<svg width="1920" height="993" viewBox="0 0 1920 993" fill="none" xmlns="http://www.w3.org/2000/svg">
<g style="mix-blend-mode:overlay">
<path d="M-780.782 809.48C-557.344 955.023 -274.772 920.224 -12.6956 944.156C135.541 957.717 265.108 990.194 361.58 885.239C548.361 682.08 672.852 463.347 1013.57 514.308C1198.46 541.955 1407.07 668.086 1592.89 645.919C1727.72 629.85 1853.14 484.307 1936.42 399.601C2115.96 217.03 2179.3 -19.35 2264.97 -244.522" stroke="white" stroke-width="0.55" stroke-miterlimit="10"/>
<path d="M2261.87 -233.841C2216.36 -135.512 2174.26 -33.2819 2127.07 68.1121C2070.11 190.528 2009.67 311.891 1908.4 414.183C1827.47 495.948 1706.57 635.795 1576.39 652.018C1397.04 674.34 1195.77 555.082 1016.97 529.23C688.92 481.366 570.157 693.009 385.326 882.329C287.678 982.33 155.046 943.568 6.06606 928.769C-35.7299 924.558 -78.0523 922.175 -120.622 920.998C-348.952 914.806 -576.137 935.395 -761.401 829.078" stroke="white" stroke-width="0.55" stroke-miterlimit="10"/>
<path d="M2258.72 -223.16C2206.73 -129.01 2156.83 -29.412 2105.31 72.3536C2042.58 196.317 1985.06 323.625 1880.29 428.796C1801.75 507.62 1685.34 641.801 1559.79 658.148C1386.94 680.625 1192.95 568.24 1020.29 544.215C704.865 499.416 591.458 703.907 408.949 879.481C310.001 974.683 174.427 929.512 24.7044 913.444C-17.6799 908.8 -60.6214 906.323 -103.842 905.797C-335.856 903.01 -559.975 938.707 -742.175 848.799" stroke="white" stroke-width="0.55" stroke-miterlimit="10"/>
<path d="M2255.59 -212.509C2197.11 -122.54 2139.4 -25.5729 2083.61 76.5332C2015.06 202.045 1960.54 335.328 1852.24 443.347C1776.11 519.292 1664.16 647.745 1543.29 664.216C1376.91 686.848 1190.19 581.676 1023.69 559.107C720.839 518.023 612.448 714.619 432.664 876.571C332.199 967.067 193.931 915.394 43.4346 898.057C0.46211 892.948 -43.0677 890.41 -86.938 890.503C-322.636 891.091 -543.66 941.958 -722.856 868.397" stroke="white" stroke-width="0.55" stroke-miterlimit="10"/>
<path d="M2252.46 -201.828C2187.51 -116.038 2121.94 -21.7339 2061.9 80.7746C1987.51 207.834 1936.02 347.093 1824.22 457.96C1750.54 531.026 1643.01 653.72 1526.79 670.377C1366.88 693.163 1187.5 594.989 1027.1 574.091C736.877 536.289 633.007 725.269 456.411 873.722C354.212 959.636 213.406 901.648 62.1971 882.732C18.6364 877.283 -25.4816 874.558 -70.0021 875.27C-309.416 879.264 -527.312 945.271 -703.475 888.057" stroke="white" stroke-width="0.55" stroke-miterlimit="10"/>
<path d="M2249.33 -191.178C2177.91 -109.567 2104.44 -17.8949 2040.2 84.9852C1959.92 213.562 1911.53 358.826 1796.17 472.512C1724.97 542.729 1621.84 659.665 1510.26 676.445C1356.82 699.355 1184.74 608.209 1030.47 589.014C752.852 554.494 653.068 735.672 480.094 870.843C375.945 952.237 232.848 887.623 80.8963 867.375C36.7473 861.493 -7.98984 858.676 -53.1295 860.038C-296.227 867.406 -511.059 948.552 -684.156 907.716" stroke="white" stroke-width="0.55" stroke-miterlimit="10"/>
<path d="M2246.21 -180.497C2168.28 -103.097 2086.92 -14.0868 2018.47 89.2267C1932.27 219.321 1887.01 370.591 1768.09 487.125C1699.36 554.494 1600.63 665.671 1493.69 682.575C1346.73 705.64 1181.96 621.46 1033.81 603.968C768.827 572.698 672.604 745.795 503.748 867.964C397.431 944.899 252.26 873.567 99.565 852.019C54.8278 845.703 9.50231 842.824 -36.3185 844.775C-283.101 855.549 -494.836 951.834 -664.899 927.376" stroke="white" stroke-width="0.55" stroke-miterlimit="10"/>
<path d="M2243.08 -169.816C2158.68 -96.5952 2069.4 -10.2477 1996.76 93.4373C1904.63 225.017 1862.52 382.356 1740.04 501.707C1673.79 566.258 1579.45 671.646 1477.16 688.674C1336.7 711.894 1179.23 634.68 1037.19 618.921C784.865 590.903 691.676 755.61 527.464 865.084C418.701 937.593 271.734 859.512 118.296 836.632C72.9709 829.883 27.0572 826.911 -19.4137 829.48C-269.911 843.66 -478.52 955.085 -645.549 946.974" stroke="white" stroke-width="0.55" stroke-miterlimit="10"/>
<path d="M2239.95 -159.165C2149.06 -90.1246 2051.81 -6.4707 1975.06 97.6478C1876.95 230.714 1838.06 394.152 1712.02 516.289C1648.31 578.054 1558.31 677.621 1460.66 694.804C1326.67 718.179 1176.51 647.931 1040.63 633.875C800.933 609.076 710.313 765.053 551.21 862.236C439.754 930.317 291.239 845.456 137.058 821.307C91.1443 814.124 44.6424 811.059 -2.47874 814.279C-256.66 831.833 -462.204 958.398 -626.168 966.664" stroke="white" stroke-width="0.55" stroke-miterlimit="10"/>
<path d="M2236.8 -148.484C2139.43 -83.6229 2034.23 -2.66255 1953.33 101.889C1849.21 236.411 1813.57 405.979 1683.94 530.902C1622.74 589.881 1537.1 683.628 1444.1 700.934C1316.57 724.464 1173.75 661.182 1043.97 648.86C816.909 627.281 728.363 774.093 574.864 859.388C460.436 922.979 310.651 831.4 155.696 805.982C109.194 798.365 62.0732 795.208 14.302 799.047C-243.564 820.007 -446.011 961.71 -606.941 986.324" stroke="white" stroke-width="0.55" stroke-miterlimit="10"/>
<path d="M2233.67 -137.834C2129.83 -77.1524 2016.64 1.08353 1931.59 106.069C1821.47 242.045 1789.11 417.743 1655.86 545.422C1597.22 601.615 1515.89 689.51 1427.53 706.972C1306.48 730.656 1170.97 674.309 1047.31 663.72C832.914 645.33 730.778 757.963 598.547 856.446C472.385 893.97 330.093 817.251 174.395 790.564C127.305 782.483 79.5959 779.263 31.1744 783.721C-230.407 808.056 -429.758 964.93 -587.623 1005.92" stroke="white" stroke-width="0.55" stroke-miterlimit="10"/>
<path d="M2230.54 -127.153C2120.2 -70.6507 1999.02 4.86071 1909.89 110.31C1793.76 247.742 1764.72 429.601 1627.81 560.035C1571.71 613.472 1494.72 695.516 1411 713.102C1296.45 736.941 1168.24 687.56 1050.69 678.705C848.952 663.504 749.013 765.579 622.232 853.598C493.098 884.403 349.536 803.195 193.095 775.238C145.417 766.724 97.1193 763.412 48.0477 768.52C-217.218 796.26 -413.473 968.243 -568.335 1025.61" stroke="white" stroke-width="0.55" stroke-miterlimit="10"/>
<path d="M2227.42 -116.502C2110.6 -64.18 1981.41 8.57597 1888.19 114.521C1766.02 253.346 1740.32 441.49 1599.79 574.618C1546.26 625.33 1473.57 701.492 1394.5 719.232C1286.42 743.226 1165.55 700.749 1054.09 693.659C865.021 681.615 767.311 773.164 645.948 850.719C513.842 874.775 369.011 789.078 211.827 759.882C163.56 750.904 114.643 747.529 64.9525 753.257C-204.028 784.403 -397.157 971.525 -548.984 1045.24" stroke="white" stroke-width="0.55" stroke-miterlimit="10"/>
<path d="M2224.29 -105.821C2100.97 -57.7094 1963.79 12.3221 1866.48 118.763C1738.25 258.98 1715.99 453.409 1571.74 589.231C1520.81 637.188 1452.39 707.498 1377.97 725.362C1276.35 749.511 1162.82 713.969 1057.47 708.613C881.057 699.696 785.546 780.78 669.662 847.871C534.584 865.177 388.515 774.991 230.557 744.557C181.702 735.145 132.197 731.709 81.825 738.025C-190.84 772.545 -380.903 974.838 -529.666 1064.9" stroke="white" stroke-width="0.55" stroke-miterlimit="10"/>
<path d="M2221.16 -95.1401C2091.38 -51.2079 1946.14 16.0682 1844.75 122.973C1710.44 264.584 1691.65 465.329 1543.66 603.782C1495.3 649.014 1431.19 713.442 1361.4 731.43C1266.26 755.703 1160.07 727.065 1060.81 723.535C897.095 717.684 803.75 788.334 693.316 844.96C555.265 855.518 407.927 760.842 249.226 729.17C199.783 719.294 149.689 715.795 98.6672 722.761C-177.682 760.687 -364.649 978.088 -510.378 1084.56" stroke="white" stroke-width="0.55" stroke-miterlimit="10"/>
<path d="M2218.03 -84.4899C2081.75 -44.7372 1928.53 19.7525 1823.05 127.184C1682.67 270.157 1667.35 477.31 1515.61 618.364C1469.86 660.903 1410.01 719.418 1344.87 737.529C1256.2 761.957 1157.38 740.192 1064.19 738.458C913.133 735.641 821.986 795.92 717.001 842.05C575.978 845.889 427.37 746.693 267.926 713.783C217.895 703.442 167.182 699.882 115.541 707.467C-164.461 748.798 -348.333 981.37 -491.027 1104.19" stroke="white" stroke-width="0.55" stroke-miterlimit="10"/>
<path d="M2214.88 -73.8086C2072.12 -38.2356 1910.85 23.4677 1801.31 131.425C1654.84 275.761 1643.11 489.354 1487.56 632.977C1444.41 672.823 1388.83 725.393 1328.37 743.69C1246.2 768.272 1154.68 753.35 1067.59 753.474C929.231 753.659 840.252 803.567 740.716 839.264C596.721 836.353 446.936 732.359 286.656 698.52C236.068 687.653 184.736 684.092 132.414 692.297C-151.304 736.941 -332.079 984.652 -471.709 1123.85" stroke="white" stroke-width="0.55" stroke-miterlimit="10"/>
<path d="M2211.75 -63.1584C2062.52 -31.765 1893.2 27.1519 1779.61 135.605C1627.04 281.272 1618.93 501.428 1459.51 647.528C1418.99 684.68 1367.66 731.337 1311.83 749.758C1236.14 774.495 1151.96 766.384 1070.97 768.365C945.3 771.461 861.336 826.787 764.431 836.322C617.867 850.75 466.41 718.179 305.387 683.101C254.21 671.77 202.291 668.148 149.318 676.971C-138.115 725.083 -315.794 987.934 -452.39 1143.48" stroke="white" stroke-width="0.55" stroke-miterlimit="10"/>
<path d="M2208.62 -52.4772C2052.89 -25.2633 1875.56 30.8362 1757.88 139.846C1599.21 286.844 1594.78 513.626 1431.43 662.142C1393.54 696.6 1346.45 737.343 1295.27 755.888C1226.05 780.78 1149.23 779.418 1074.34 783.35C961.337 789.294 877.931 830.967 788.116 833.505C637.372 837.716 485.884 704.154 324.087 667.807C272.353 656.042 219.783 652.327 166.191 661.801C-124.925 713.226 -299.509 991.216 -433.07 1163.14" stroke="white" stroke-width="0.55" stroke-miterlimit="10"/>
<path d="M2205.5 -41.8269C2043.3 -18.8236 1857.69 34.3037 1736.17 144.057C1571.16 292.108 1570.78 525.887 1403.38 676.693C1368.12 708.489 1325.27 743.288 1278.74 761.957C1215.98 787.003 1146.51 792.297 1077.72 798.242C977.405 806.911 894.99 834.682 811.8 830.564C657.372 822.917 505.327 690.006 342.787 652.358C290.465 640.129 237.307 636.352 183.065 646.445C-111.767 701.368 -283.224 994.497 -413.782 1182.77" stroke="white" stroke-width="0.55" stroke-miterlimit="10"/>
<path d="M2202.37 -31.1458C2033.67 -12.3221 1840.14 38.0808 1714.47 148.298C1543.48 297.773 1546.85 538.301 1375.36 691.306C1342.73 720.439 1304.13 749.294 1262.24 768.118C1205.98 793.319 1143.78 805.177 1081.12 813.226C993.442 824.496 912.791 838.18 835.546 827.716C678.269 806.446 524.832 675.95 361.549 637.033C308.638 624.37 254.891 620.5 199.968 631.212C-98.5479 689.479 -266.939 997.748 -394.433 1202.39" stroke="white" stroke-width="0.55" stroke-miterlimit="10"/>
<path d="M2199.24 -20.4956C2024.07 -5.85153 1822.55 41.7959 1692.77 152.478C1515.77 303.377 1523.08 550.809 1347.32 705.857C1223.91 814.712 1026.51 863.381 859.231 824.836C648.61 776.26 442.726 569.881 216.842 615.98C-85.3899 677.652 -250.685 1001.06 -375.145 1222.08" stroke="white" stroke-width="0.55" stroke-miterlimit="10"/>
</g>
</svg>
