<svg width="1920" height="722" viewBox="0 0 1920 722" fill="none" xmlns="http://www.w3.org/2000/svg">
<g style="mix-blend-mode:overlay" opacity="0.4">
<path d="M2586.3 334.02C2439.61 283.679 2286.61 230.8 2126.86 252.224C1986.17 271.079 1852.52 336.033 1718.12 375.383C1548.09 425.197 1319.64 511.39 1153.23 417.117C977.436 317.488 870.129 27.0519 658.145 3.15077C459.537 -19.2333 324.706 120.582 226.749 254.082C111.949 410.553 6.15877 510.709 -211.676 530.059C-386.073 545.57 -682.392 537.644 -831.897 442.752" stroke="white" stroke-width="0.55" stroke-miterlimit="10"/>
<path d="M-814.932 456.684C-672.918 532.412 -378.024 533.774 -197.992 516.406C-49.8172 502.474 49.4406 453.959 134.673 378.386C175.665 342.039 213.467 298.819 252.074 249.716C355.109 118.724 491.89 -19.9764 693.501 5.62756C902.388 32.1293 1008.49 314.67 1181.46 414.021C1270.35 465.012 1377.16 464.517 1483.88 445.321C1572.83 429.222 1661.09 400.306 1737.75 378.169C1857.04 343.711 1975.62 288.757 2098.5 263.184C2112.34 260.305 2126.21 257.766 2140.14 255.691C2296.92 232.162 2445.13 278.261 2591.23 326.621" stroke="white" stroke-width="0.55" stroke-miterlimit="10"/>
<path d="M-797.996 470.585C-663.506 527.149 -370.036 521.545 -184.307 502.721C-35.5132 487.644 66.9334 441.142 154.922 369.655C197.708 334.887 237.213 293.029 277.369 245.351C385.543 116.867 524.182 -20.7504 728.827 8.10436C934.649 37.1139 1039.51 311.822 1209.7 410.925C1296.88 461.545 1401.46 462.752 1506.95 445.043C1594.53 430.12 1681.53 402.504 1757.38 380.956C1875.15 347.426 1992.09 293.556 2112.62 267.085C2126.21 264.082 2139.8 261.419 2153.45 259.19C2307.26 233.555 2450.7 272.905 2596.18 319.221" stroke="white" stroke-width="0.55" stroke-miterlimit="10"/>
<path d="M-781.062 484.517C-654.095 521.917 -362.018 509.594 -170.654 489.099C-21.2722 473.093 84.4562 428.417 175.169 361.017C219.813 327.828 260.99 287.364 302.662 241.047C416.007 115.071 556.441 -21.5553 764.152 10.6121C966.909 42.0056 1070.53 309.036 1237.93 407.86C1323.38 458.108 1425.77 461.018 1530.01 444.764C1616.23 431.049 1701.93 404.733 1777.04 383.742C1893.29 351.141 2008.59 298.354 2126.76 270.986C2140.11 267.89 2153.45 265.072 2166.79 262.657C2317.63 234.917 2456.3 267.518 2601.13 311.822" stroke="white" stroke-width="0.55" stroke-miterlimit="10"/>
<path d="M-764.157 498.418C-644.683 516.653 -354.061 497.613 -157.032 475.415C-7.03042 458.51 102.011 415.693 195.386 352.287C241.888 320.708 284.737 281.605 327.957 236.651C446.565 113.245 588.733 -22.484 799.478 13.058C999.17 46.7425 1101.59 306.156 1266.17 404.733C1349.88 454.64 1450.1 459.254 1553.04 444.455C1637.94 431.947 1722.33 406.931 1796.67 386.498C1911.44 354.825 2025.09 303.122 2140.91 274.856C2154.01 271.636 2167.07 268.695 2180.14 266.125C2328 236.311 2461.91 262.131 2606.12 304.392" stroke="white" stroke-width="0.55" stroke-miterlimit="10"/>
<path d="M-747.222 512.319C-635.27 511.39 -346.042 485.662 -143.378 461.73C7.24259 443.959 119.658 402.968 215.603 343.556C263.994 313.587 308.545 275.877 353.221 232.286C477.123 111.418 620.963 -23.4748 834.772 15.5348C1031.4 51.4175 1132.58 303.339 1294.37 401.606C1376.39 451.142 1474.41 457.706 1576.08 444.145C1659.64 432.999 1742.74 409.129 1816.27 389.253C1929.52 358.51 2041.53 307.859 2155 278.726C2167.85 275.413 2180.63 272.348 2193.42 269.562C2338.38 237.921 2467.45 256.682 2611.04 296.961" stroke="white" stroke-width="0.55" stroke-miterlimit="10"/>
<path d="M-730.287 526.251C-625.828 506.189 -338.055 473.774 -129.694 448.108C21.5455 429.47 137.367 390.367 235.882 334.887C286.192 306.559 332.384 270.212 378.545 227.951C507.772 109.684 653.253 -24.5275 870.128 18.0425C1063.69 56.0304 1163.66 300.521 1322.64 398.541C1402.92 447.736 1498.74 456.003 1599.17 443.897C1681.37 433.99 1763.2 411.389 1835.96 392.07C1947.69 362.256 2058.06 312.689 2169.18 282.658C2181.78 279.221 2194.32 276.032 2206.8 273.06C2348.81 239.376 2473.08 251.326 2616.06 289.562" stroke="white" stroke-width="0.55" stroke-miterlimit="10"/>
<path d="M-713.383 540.152C-616.447 500.926 -330.067 461.885 -116.071 434.424C35.7873 414.919 155.076 377.736 256.068 326.187C308.297 299.531 356.192 264.515 403.809 223.617C538.423 107.981 685.514 -25.642 905.454 20.5503C1095.98 60.5507 1194.68 297.735 1350.88 395.476C1429.45 444.3 1523.04 454.3 1622.24 443.619C1703.08 434.919 1783.6 413.618 1855.59 394.857C1965.8 365.971 2074.53 317.488 2183.3 286.559C2195.65 282.998 2207.91 279.686 2220.11 276.559C2359.15 240.8 2478.66 245.97 2621.01 282.193" stroke="white" stroke-width="0.55" stroke-miterlimit="10"/>
<path d="M-696.447 554.053C-607.035 495.662 -322.048 449.996 -102.418 420.739C50.0603 400.429 172.848 365.166 276.316 317.457C330.496 292.472 380.032 258.818 429.103 219.221C569.136 106.217 717.806 -26.8804 940.779 22.9961C1128.27 64.9469 1225.7 294.856 1379.11 392.349C1455.95 440.801 1547.35 452.535 1645.27 443.309C1724.75 435.817 1804.01 415.786 1875.21 397.612C1983.91 369.655 2091.04 322.256 2197.41 290.46C2209.52 286.806 2221.5 283.339 2233.42 280.026C2369.52 242.193 2484.23 240.583 2625.96 274.794" stroke="white" stroke-width="0.55" stroke-miterlimit="10"/>
<path d="M-679.513 567.985C-597.593 490.43 -314.03 438.201 -88.7649 407.086C64.3323 385.971 190.649 352.689 296.563 308.757C352.725 285.475 403.933 253.153 454.397 214.886C599.878 104.576 750.096 -28.1498 976.104 25.473C1160.56 69.2504 1256.76 292.039 1407.35 389.222C1482.49 437.334 1571.65 450.771 1668.34 443C1746.45 436.715 1824.44 417.984 1894.84 400.337C2002.03 373.309 2107.51 326.992 2211.53 294.299C2223.39 290.522 2235.12 286.93 2246.73 283.432C2379.89 243.524 2489.8 235.103 2630.92 267.302" stroke="white" stroke-width="0.55" stroke-miterlimit="10"/>
<path d="M-662.577 581.886C-588.18 485.167 -306.042 426.343 -75.0802 393.433C78.6362 371.513 208.482 340.243 316.811 300.057C374.954 278.509 427.803 247.487 479.692 210.521C630.684 102.966 782.388 -29.5429 1011.43 27.9498C1192.89 73.5229 1287.78 289.19 1435.58 386.126C1508.99 433.866 1595.95 449.006 1691.4 442.721C1768.19 437.643 1844.87 420.213 1914.5 403.123C2020.17 376.993 2124.01 331.791 2225.68 298.2C2237.29 294.33 2248.75 290.583 2260.08 286.93C2390.26 244.948 2495.4 229.747 2635.9 259.933" stroke="white" stroke-width="0.55" stroke-miterlimit="10"/>
<path d="M-645.673 595.818C-578.799 479.935 -298.023 414.578 -61.4577 379.779C92.8779 357.086 226.285 327.828 337.029 291.357C397.153 271.574 451.673 241.852 504.987 206.156C661.489 101.356 814.741 -31.029 1046.76 30.4266C1225.21 77.7025 1318.62 286.652 1463.82 383.03C1535.4 430.554 1620.26 447.272 1714.47 442.411C1789.89 438.541 1865.28 422.411 1934.13 405.879C2038.28 380.677 2140.48 336.559 2239.8 302.07C2251.16 298.076 2262.34 294.206 2273.39 290.367C2400.64 246.28 2500.98 224.329 2640.86 252.472" stroke="white" stroke-width="0.55" stroke-miterlimit="10"/>
<path d="M-628.738 609.719C-569.357 474.672 -290.005 402.783 -47.8049 366.095C107.181 342.627 244.117 315.475 357.245 282.658C419.351 264.639 475.543 236.249 530.249 201.821C692.294 99.8389 847.063 -32.577 1082.05 32.9343C1257.53 81.8511 1349.64 283.834 1492.02 379.965C1561.9 427.117 1644.53 445.538 1737.47 442.164C1811.53 439.47 1885.65 424.671 1953.73 408.696C2056.39 384.423 2156.95 341.389 2253.89 306.002C2265 301.915 2275.93 297.89 2286.67 293.896C2410.95 247.704 2506.52 219.004 2645.78 245.134" stroke="white" stroke-width="0.55" stroke-miterlimit="10"/>
<path d="M-611.803 623.62C-559.945 469.439 -281.986 391.018 -34.1511 352.441C121.454 328.2 261.95 303.153 377.493 273.958C441.611 257.766 499.444 230.645 555.544 197.456C723.161 98.3527 879.448 -34.218 1117.38 35.4111C1289.92 85.9068 1380.66 281.017 1520.26 376.869C1588.4 423.649 1668.8 443.773 1760.54 441.885C1833.23 440.399 1906.08 426.9 1973.36 411.482C2074.5 388.138 2173.42 346.188 2268 309.902C2278.87 305.692 2289.52 301.512 2299.99 297.364C2421.32 249.066 2512.09 213.586 2650.73 237.735" stroke="white" stroke-width="0.55" stroke-miterlimit="10"/>
<path d="M-594.898 637.552C-550.533 464.207 -273.998 379.315 -20.5285 338.788C135.727 313.803 279.783 290.893 397.71 265.258C463.81 250.893 523.346 225.041 580.839 193.121C754.029 96.9286 911.863 -35.9517 1152.7 37.9189C1322.3 89.9316 1411.9 277.921 1548.49 373.773C1615.03 420.058 1693.11 442.009 1783.6 441.606C1854.94 441.297 1926.48 429.098 1993.02 414.269C2092.65 391.854 2189.92 350.986 2282.15 313.803C2292.77 309.5 2303.14 305.166 2313.33 300.831C2431.69 250.428 2517.7 208.199 2655.68 230.304" stroke="white" stroke-width="0.55" stroke-miterlimit="10"/>
<path d="M-577.964 651.453C-541.121 458.944 -265.949 367.581 -6.84475 325.104C150.03 299.407 297.616 278.633 417.957 256.527C486.038 244.02 547.246 219.437 606.132 188.725C784.895 95.4735 944.339 -37.8403 1188.03 40.3337C1354.71 93.8016 1442.92 275.011 1576.73 370.615C1641.53 416.56 1717.41 440.151 1806.67 441.266C1876.64 442.133 1946.92 431.266 2012.65 416.993C2110.76 395.507 2206.39 355.723 2296.27 317.642C2306.64 313.215 2316.73 308.757 2326.64 304.268C2442.03 251.729 2523.27 202.781 2660.64 222.874" stroke="white" stroke-width="0.55" stroke-miterlimit="10"/>
<path d="M-561.028 665.354C-531.709 453.681 -257.899 355.878 6.80904 311.45C164.334 285.011 315.449 266.466 438.206 247.859C508.268 237.239 571.179 213.895 631.427 184.391C815.794 94.1422 976.848 -39.7598 1223.35 42.8415C1387.16 97.7335 1473.97 272.224 1604.96 367.55C1668.03 413.123 1741.71 438.386 1829.7 440.987C1898.31 442.999 1967.32 433.495 2032.27 419.779C2128.87 399.222 2222.89 360.522 2310.39 321.543C2320.51 316.992 2330.36 312.41 2339.95 307.735C2452.37 253.06 2528.84 197.394 2665.59 215.443" stroke="white" stroke-width="0.55" stroke-miterlimit="10"/>
<path d="M-544.124 679.286C-522.297 448.448 -249.911 344.206 20.4316 297.797C178.575 270.645 333.221 254.298 458.423 239.159C530.467 230.428 595.08 208.354 656.722 180.056C846.692 92.8419 1009.39 -41.7721 1258.68 45.3493C1419.64 101.604 1504.99 269.407 1633.2 364.485C1694.56 409.687 1766.02 436.622 1852.77 440.739C1920.01 443.928 1987.75 435.755 2051.9 422.597C2146.98 402.968 2239.37 365.352 2324.51 325.475C2334.38 320.831 2343.95 316.094 2353.27 311.234C2462.68 254.391 2534.41 192.007 2670.55 208.075" stroke="white" stroke-width="0.55" stroke-miterlimit="10"/>
<path d="M-527.189 693.187C-512.886 443.185 -241.862 332.534 34.0844 284.113C192.878 256.249 351.022 242.162 478.639 230.428C552.664 223.617 618.95 202.781 681.984 175.66C877.559 91.5416 1041.96 -43.9703 1293.97 47.7951C1452.11 105.381 1535.99 266.558 1661.4 361.358C1721.03 406.219 1790.29 434.795 1875.8 440.43C1941.72 444.764 2008.12 437.953 2071.53 425.352C2165.09 406.652 2255.84 370.12 2338.62 329.345C2348.25 324.578 2357.54 319.686 2366.58 314.701C2473.02 255.722 2539.99 186.62 2675.5 200.645" stroke="white" stroke-width="0.55" stroke-miterlimit="10"/>
<path d="M-510.254 707.119C-503.474 437.953 -233.719 321.296 47.7691 270.459C207.244 242.1 368.824 230.057 498.918 221.728C574.894 216.868 642.913 197.239 707.31 171.325C908.488 90.3341 1074.65 -46.1994 1329.36 50.3029C1484.68 109.158 1567.1 263.741 1689.7 358.262C1747.63 402.751 1814.69 432.814 1898.9 440.151C1963.45 445.538 2028.59 440.151 2091.19 428.139C2183.27 410.368 2272.34 374.918 2352.77 333.277C2362.15 328.417 2371.16 323.37 2379.92 318.2C2483.27 256.899 2545.59 181.264 2680.48 193.276" stroke="white" stroke-width="0.55" stroke-miterlimit="10"/>
<path d="M-493.35 721.02C-494.062 432.69 -225.732 309.5 61.3911 256.806C221.485 227.642 386.564 217.982 519.104 213.06C597.03 210.149 666.814 191.883 732.573 166.991C939.509 89.5292 1107.34 -48.5524 1364.65 52.8106C1517.22 112.904 1598.09 260.955 1717.87 355.197C1774.07 399.315 1838.93 431.08 1921.9 439.873C1985.09 446.436 2048.96 442.38 2110.79 430.925C2201.35 414.083 2288.81 379.717 2366.86 337.178C2375.99 332.194 2384.72 327.023 2393.21 321.698C2493.58 258.292 2551.13 175.908 2685.41 185.908" stroke="white" stroke-width="0.55" stroke-miterlimit="10"/>
<path d="M-476.415 734.921C-489.17 258.633 158.327 208.756 539.352 204.329C871.738 200.459 1057.93 -84.6827 1399.98 55.2565C1619.58 145.102 1687.72 407.272 1944.97 439.563C2097.01 458.634 2253.39 414.238 2380.98 341.017C2495.62 275.227 2545.47 169.778 2690.33 178.415" stroke="white" stroke-width="0.55" stroke-miterlimit="10"/>
</g>
</svg>
