<svg width="1920" height="1013" viewBox="0 0 1920 1013" fill="none" xmlns="http://www.w3.org/2000/svg">
<g style="mix-blend-mode:overlay" opacity="0.4">
<path d="M-302.513 760.767C-92.3872 848.384 146.593 925.784 383.747 857.176C519.073 818.012 639.012 734.451 764.369 675.999C922.977 602.035 1132.55 483.613 1314 552.344C1505.71 624.946 1664.87 895.815 1878.34 888.446C2078.37 881.511 2185.74 723.925 2257.88 577.917C2342.43 406.771 2428.44 292.559 2639.74 241.63C2808.94 200.856 3102.72 165.406 3267.61 237.172" stroke="white" stroke-width="0.55" stroke-miterlimit="10"/>
<path d="M3248.32 225.902C3093.95 170.081 2805.93 211.877 2633.73 255.128C2424.07 307.822 2332.24 418.349 2243.61 582.407C2167.72 722.81 2059.86 876.743 1863.94 886.712C1688.34 896.248 1548.65 720.426 1393.91 618.754C1363.66 598.722 1333.04 581.663 1301.65 569.651C1121.89 500.951 917.342 607.267 759.043 675.379C713.78 695.07 669.074 718.166 623.872 741.634C545.11 782.625 465.574 824.235 380.372 849.251C289.318 875.969 198.296 882.316 109.1 875.567C-32.0775 865.319 -166.289 823.182 -295.671 772.718" stroke="white" stroke-width="0.55" stroke-miterlimit="10"/>
<path d="M3229.09 214.664C3085.25 174.818 2802.99 222.899 2627.76 268.689C2419.74 323.055 2322.09 429.96 2229.33 586.927C2149.67 721.758 2041.31 871.356 1849.52 885.01C1676.45 897.332 1537.13 734.544 1381.03 635.101C1350.78 615.843 1320.41 599.001 1289.3 586.989C1111.24 518.319 911.491 611.911 753.719 674.822C708.765 692.748 664.306 714.544 619.104 736.866C540.528 775.876 461.363 816.247 376.966 841.387C286.873 868.198 197.058 875.969 109.441 872.161C-29.7242 866.093 -158.735 832.037 -288.859 784.73" stroke="white" stroke-width="0.55" stroke-miterlimit="10"/>
<path d="M3209.84 203.394C3076.52 179.493 2800.02 233.828 2621.78 282.187C2415.4 338.194 2311.87 441.539 2215.09 591.416C2131.62 720.643 2022.8 866.31 1835.15 883.276C1664.65 898.725 1525.89 748.321 1368.21 651.416C1338 632.84 1307.84 616.339 1276.97 604.326C1100.59 535.657 905.794 616.896 748.393 674.234C703.78 690.488 659.538 710.86 614.336 732.067C535.977 769.126 457.121 808.229 373.591 833.461C284.458 860.365 195.881 869.715 109.812 868.694C-27.3716 867.053 -151.119 840.861 -282.018 796.681" stroke="white" stroke-width="0.55" stroke-miterlimit="10"/>
<path d="M3190.58 192.156C3067.79 184.23 2797.05 244.788 2615.81 295.748C2411.04 353.334 2301.63 453.18 2200.85 595.936C2113.54 719.59 2004.25 861.294 1820.75 881.573C1652.8 900.149 1514.62 762.129 1355.36 667.732C1325.21 649.868 1295.24 633.645 1264.65 621.633C1089.98 552.995 900.159 621.85 743.099 673.615C698.826 688.197 654.801 707.175 609.6 727.238C531.426 762.315 452.911 800.21 370.248 825.536C282.074 852.533 194.705 863.492 110.246 865.226C-24.9255 868.013 -143.471 849.653 -275.113 808.631" stroke="white" stroke-width="0.55" stroke-miterlimit="10"/>
<path d="M3171.32 180.886C3059.06 188.905 2794.04 255.686 2609.83 309.277C2406.67 368.38 2291.35 464.79 2186.61 600.456C2095.43 718.538 1985.71 856.31 1806.36 879.87C1640.94 901.604 1503.38 775.876 1342.52 684.079C1312.39 666.896 1282.61 651.014 1252.33 638.971C1079.36 570.332 894.525 626.865 737.806 673.027C693.904 685.968 650.034 703.398 604.863 722.47C526.844 755.411 448.701 792.223 366.874 817.641C279.66 844.731 193.467 857.3 110.618 861.79C-22.6029 869.034 -135.886 858.477 -268.271 820.644" stroke="white" stroke-width="0.55" stroke-miterlimit="10"/>
<path d="M3152.1 169.648C3050.39 193.642 2791.1 266.553 2603.89 322.807C2402.34 383.365 2281.04 476.4 2172.37 604.945C2077.29 717.454 1967.17 851.356 1791.99 878.136C1629.11 903.059 1492.21 789.591 1329.7 700.395C1299.64 683.893 1270.04 668.321 1240.04 656.308C1068.77 587.701 888.952 631.912 732.511 672.469C688.982 683.77 645.297 699.745 600.127 717.702C522.293 748.662 444.491 784.235 363.53 809.777C277.276 836.96 192.29 851.139 111.02 858.384C-20.2191 870.087 -128.239 867.331 -261.397 832.656" stroke="white" stroke-width="0.55" stroke-miterlimit="10"/>
<path d="M3132.84 158.378C3041.66 198.348 2788.1 277.358 2597.88 336.336C2397.91 398.318 2270.6 488.01 2158.1 609.466C2059.05 716.401 1948.59 846.433 1777.57 876.434C1617.19 904.576 1481 803.306 1316.82 716.711C1286.82 700.89 1257.41 685.658 1227.69 673.615C1058.09 605.038 883.348 636.958 727.186 671.85C684.028 681.509 640.529 696.03 595.358 712.872C517.711 741.82 440.249 776.185 360.155 801.82C274.86 829.096 191.052 844.916 111.392 854.885C-17.8974 871.078 -120.654 876.124 -254.556 844.576" stroke="white" stroke-width="0.55" stroke-miterlimit="10"/>
<path d="M3113.58 147.14C3032.93 203.054 2785.1 288.163 2591.91 349.866C2393.51 413.241 2260.17 499.589 2143.85 613.986C2040.82 715.318 1930.04 841.573 1763.2 874.731C1605.37 906.124 1469.85 816.99 1303.97 733.058C1274.03 717.918 1244.81 702.996 1215.33 690.952C1047.44 622.376 877.775 642.066 721.86 671.262C679.074 679.28 635.761 692.346 590.59 708.073C513.159 735.039 436.007 768.167 356.749 793.925C272.414 821.294 189.813 838.755 111.763 851.449C-15.5758 872.161 -113.038 884.948 -247.714 856.557" stroke="white" stroke-width="0.55" stroke-miterlimit="10"/>
<path d="M3094.33 135.87C3024.2 207.76 2782.09 298.906 2585.93 363.395C2389.12 428.102 2249.71 511.137 2129.61 618.475C2022.55 714.172 1911.5 836.712 1748.8 873.028C1593.48 907.703 1458.71 830.644 1291.12 749.405C1261.25 734.915 1232.17 720.333 1203.01 708.321C1036.82 639.775 872.233 647.237 716.566 670.735C674.182 677.144 631.024 688.723 585.853 703.336C508.639 728.321 431.827 760.21 353.405 786.061C270.03 813.523 188.605 832.656 112.165 848.043C-13.2229 873.276 -105.422 893.802 -240.841 868.57" stroke="white" stroke-width="0.55" stroke-miterlimit="10"/>
<path d="M3075.07 124.632C3015.47 212.466 2779.06 309.618 2579.96 376.956C2384.69 442.963 2239.18 522.685 2115.34 623.026C2004.19 713.089 1892.92 831.944 1734.41 871.356C1581.62 909.344 1447.56 844.297 1278.27 765.783C1248.46 751.944 1219.57 737.733 1190.69 725.689C1026.2 657.175 866.692 652.438 711.242 670.178C669.229 674.977 626.257 685.07 581.086 698.599C504.057 721.603 427.586 752.253 350.031 778.229C267.616 805.783 187.368 826.588 112.537 844.669C-10.9003 874.483 -97.836 902.688 -233.998 880.613" stroke="white" stroke-width="0.55" stroke-miterlimit="10"/>
<path d="M3055.84 113.363C3006.8 217.171 2776.06 320.299 2574.01 390.455C2371.97 460.61 2228.65 534.109 2101.13 627.484C1985.9 711.85 1874.41 827.114 1720.04 869.592C1569.79 910.923 1436.51 857.827 1265.46 782.037C1235.7 768.848 1207 754.978 1178.4 742.934C1015.58 674.42 861.212 657.577 705.978 669.497C664.368 672.686 621.551 681.324 576.38 693.708C499.568 714.761 423.407 744.142 346.688 770.21C265.232 797.857 186.191 820.365 112.94 841.108C-8.5474 875.505 -90.1889 911.388 -227.125 892.471" stroke="white" stroke-width="0.55" stroke-miterlimit="10"/>
<path d="M3036.59 102.124C2998.07 221.877 2772.99 330.949 2568.01 404.015C2375.81 472.53 2218.03 545.595 2086.86 632.035C1967.47 710.674 1855.86 822.439 1705.65 867.92C1557.94 912.626 1425.4 871.418 1252.61 798.414C1222.95 785.876 1194.37 772.377 1166.04 760.303C1004.93 691.819 855.67 662.872 700.653 668.971C659.414 670.581 616.814 677.701 571.612 688.971C495.017 708.042 419.165 736.185 343.313 762.377C262.786 790.117 184.953 814.359 113.342 837.734C-6.19452 876.743 -82.5728 920.304 -220.252 904.514" stroke="white" stroke-width="0.55" stroke-miterlimit="10"/>
<path d="M3017.33 90.8546C2989.34 226.583 2769.93 341.538 2562.03 417.514C2371.35 487.236 2207.44 556.957 2072.61 636.494C1949.08 709.374 1837.32 817.703 1691.25 866.155C1545.18 914.607 1414.34 884.855 1239.76 814.7C1210.16 802.811 1181.77 789.653 1153.72 777.609C994.308 709.126 850.159 668.166 695.328 668.352C654.491 668.413 612.045 674.017 566.844 684.141C490.465 701.262 414.923 728.135 339.938 754.42C260.371 782.253 183.745 808.229 113.713 834.235C-3.84191 877.889 -74.957 929.066 -213.41 916.434" stroke="white" stroke-width="0.55" stroke-miterlimit="10"/>
<path d="M2998.07 79.6161C2980.61 231.289 2766.83 352.095 2556.05 431.074C2366.89 501.941 2196.79 568.32 2058.34 641.045C1930.63 708.104 1818.8 813.09 1676.82 864.483C1534.22 916.093 1403.23 898.353 1226.85 831.077C1197.34 819.808 1169.11 807.052 1141.34 794.978C983.596 726.525 844.586 673.584 689.972 667.794C649.507 666.277 607.247 670.395 562.045 679.373C485.852 694.544 410.651 720.179 336.501 746.557C257.894 774.482 182.475 802.192 114.023 830.83C-1.55085 879.158 -67.4337 937.92 -206.63 928.477" stroke="white" stroke-width="0.55" stroke-miterlimit="10"/>
<path d="M2978.85 68.3467C2971.91 235.995 2763.77 362.621 2550.11 444.573C2362.43 516.586 2186.21 579.589 2044.13 645.534C1912.24 706.742 1800.35 808.476 1662.49 862.749C1522.49 917.858 1392.24 911.759 1214.06 847.362C1184.62 836.712 1156.57 824.328 1129.08 812.254C973.04 743.832 839.107 678.94 684.74 667.144C644.678 664.079 602.572 666.649 557.371 674.512C481.395 687.732 406.502 712.098 333.22 738.569C255.572 766.588 181.361 796.061 114.488 827.3C0.926486 880.335 -59.7242 946.651 -199.694 940.366" stroke="white" stroke-width="0.55" stroke-miterlimit="10"/>
<path d="M2959.59 57.1082C2963.18 240.701 2760.64 373.117 2544.14 458.133C2357.91 531.261 2175.56 590.828 2029.89 650.054C1893.82 705.349 1781.9 803.894 1648.09 861.047C1510.69 919.716 1381.22 925.134 1201.21 863.709C1171.86 853.678 1143.94 841.697 1116.76 829.622C962.42 761.201 833.565 684.42 679.415 666.618C639.724 662.036 597.835 663.057 552.603 669.807C476.843 681.076 402.292 704.172 329.845 730.767C253.158 758.879 180.185 790.148 114.89 823.957C3.34127 881.728 -52.1081 955.598 -192.821 952.441" stroke="white" stroke-width="0.55" stroke-miterlimit="10"/>
<path d="M2940.33 45.8388C2954.48 245.407 2757.48 383.55 2538.13 471.663C2353.39 545.874 2164.91 602.035 2015.62 654.574C1875.37 703.925 1763.42 799.374 1633.7 859.344C1498.93 921.604 1370.16 938.447 1188.37 880.056C1159.11 870.644 1131.34 859.034 1104.4 846.96C951.77 778.569 827.961 689.931 674.09 666.029C634.771 659.93 593.067 659.404 547.804 665.008C472.262 674.327 398.019 696.154 326.409 722.841C250.681 751.077 178.946 784.08 115.2 820.489C5.69427 882.997 -44.5848 964.391 -186.041 964.391" stroke="white" stroke-width="0.55" stroke-miterlimit="10"/>
<path d="M2921.07 34.6003C2945.75 250.113 2754.32 393.953 2532.15 485.192C2348.84 560.456 2154.29 613.181 2001.34 659.063C1856.95 702.407 1745 794.854 1619.27 857.61C1487.19 923.524 1359.11 951.728 1175.49 896.341C1146.29 887.548 1118.71 876.31 1092.05 864.236C941.088 795.845 822.326 695.442 668.764 665.379C629.817 657.763 588.299 655.782 543.036 660.147C467.71 667.701 393.777 688.073 323.034 714.884C248.266 743.213 177.801 778.012 115.571 816.99C8.13973 884.267 -36.969 973.153 -179.199 976.311" stroke="white" stroke-width="0.55" stroke-miterlimit="10"/>
<path d="M2901.85 23.3309C2937.05 254.819 2751.2 404.294 2526.21 498.722C2344.35 575.038 2143.73 624.264 1987.13 663.584C1838.59 700.859 1726.67 790.427 1604.93 855.907C1475.55 925.505 1348.15 964.948 1162.7 912.688C1133.6 904.483 1106.17 893.678 1079.79 881.604C930.531 813.244 816.753 701.076 663.501 664.853C624.925 655.72 583.593 652.19 538.33 655.41C463.221 660.983 389.598 680.116 319.721 707.021C245.913 735.442 176.717 772.068 116.005 813.585C10.6787 885.629 -29.3217 982.007 -172.295 988.323" stroke="white" stroke-width="0.55" stroke-miterlimit="10"/>
<path d="M2882.59 12.0924C2928.32 259.525 2747.82 414.263 2520.23 512.251C2339.64 589.28 2133.14 635.317 1972.89 668.073C1820.2 699.281 1708.34 785.969 1590.54 854.173C1463.94 927.487 1337.13 978.106 1149.82 929.004C1120.81 921.388 1093.5 910.985 1067.44 898.911C919.881 830.582 811.057 706.68 658.176 664.234C619.941 653.615 578.857 648.475 533.562 650.581C458.639 654.203 385.357 672.067 316.316 699.095C243.467 727.609 175.572 766.03 116.345 810.117C13.1558 886.96 -21.7361 990.8 -165.483 1000.27" stroke="white" stroke-width="0.55" stroke-miterlimit="10"/>
<path d="M2863.33 0.822968C2963.3 468.814 2333.7 612.593 1958.62 672.593C1631.4 724.946 1500.04 1033.43 1136.97 945.32C903.843 888.756 788.517 640.085 528.825 645.782C375.325 649.156 229.225 715.813 116.778 806.65C15.7557 888.291 -14.0898 999.624 -158.58 1012.22" stroke="white" stroke-width="0.55" stroke-miterlimit="10"/>
</g>
</svg>
