<svg width="16" height="17" viewBox="0 0 16 17" fill="none" xmlns="http://www.w3.org/2000/svg">
<g clip-path="url(#clip0_89_163)">
<path d="M8 0.493652C3.6 0.493652 0 4.09365 0 8.49365C0 12.8937 3.6 16.4937 8 16.4937C12.4 16.4937 16 12.8937 16 8.49365C16 4.09365 12.4 0.493652 8 0.493652ZM8 15.8537C3.92 15.8537 0.64 12.5737 0.64 8.49365C0.64 4.41365 3.92 1.13365 8 1.13365C12.08 1.13365 15.36 4.41365 15.36 8.49365C15.36 12.5737 12.08 15.8537 8 15.8537Z" fill="#FF6700"/>
<path d="M8.00012 4.81372C7.52012 4.81372 7.12012 5.21372 7.12012 5.69372C7.12012 6.17372 7.52012 6.65372 8.00012 6.65372C8.48012 6.65372 8.88012 6.25372 8.88012 5.77372C8.88012 5.29372 8.48012 4.81372 8.00012 4.81372Z" fill="#FF6700"/>
<path d="M8.88012 7.6936H7.12012V12.0936H8.88012V7.6936Z" fill="#FF6700"/>
</g>
<defs>
<clipPath id="clip0_89_163">
<rect width="16" height="16" fill="white" transform="translate(0 0.493652)"/>
</clipPath>
</defs>
</svg>
