<svg width="117" height="117" viewBox="0 0 117 117" fill="none" xmlns="http://www.w3.org/2000/svg">
<circle cx="58.4961" cy="58.4951" r="39.9952" transform="rotate(37.8927 58.4961 58.4951)" fill="url(#paint0_linear_92_303)" stroke="url(#paint1_linear_92_303)" stroke-width="3"/>
<path d="M79.7094 51.514L77.4401 42.0695C76.9646 40.1244 75.2789 38.7845 73.3122 38.7845H43.293C41.3479 38.7845 39.6405 40.146 39.1867 42.0695L36.9174 51.514C36.3987 53.7184 36.8742 55.9661 38.2574 57.7383C38.4303 57.976 38.668 58.1489 38.8625 58.365V73.3638C38.8625 75.7412 40.8076 77.6862 43.1849 77.6862H73.4418C75.8192 77.6862 77.7643 75.7412 77.7643 73.3638V58.365C77.9588 58.1705 78.1965 57.976 78.3694 57.7599C79.7526 55.9877 80.2497 53.7184 79.7094 51.514ZM73.2473 43.0853L75.5166 52.5298C75.7327 53.4375 75.5382 54.3452 74.9763 55.0584C74.6737 55.4474 74.0254 56.0742 72.9448 56.0742C71.6264 56.0742 70.481 55.0152 70.3297 53.6104L69.0762 43.1069L73.2473 43.0853ZM60.4746 43.1069H64.7106L65.8776 52.8756C65.9857 53.7184 65.7263 54.5613 65.1644 55.1881C64.689 55.75 63.9974 56.0742 63.1113 56.0742C61.6633 56.0742 60.4746 54.799 60.4746 53.243V43.1069ZM50.7275 52.8756L51.9162 43.1069H56.1522V53.243C56.1522 54.799 54.9635 56.0742 53.3642 56.0742C52.6294 56.0742 51.9594 55.75 51.4407 55.1881C50.9004 54.5613 50.6411 53.7184 50.7275 52.8756ZM41.1102 52.5298L43.293 43.1069H47.5506L46.2971 53.6104C46.1242 55.0152 45.0003 56.0742 43.682 56.0742C42.623 56.0742 41.953 55.4474 41.6721 55.0584C41.0886 54.3668 40.894 53.4375 41.1102 52.5298ZM43.1849 73.3638V60.3317C43.3578 60.3534 43.5091 60.3966 43.682 60.3966C45.5623 60.3966 47.2696 59.6185 48.5231 58.3434C49.8198 59.6402 51.5488 60.3966 53.5155 60.3966C55.3958 60.3966 57.0815 59.6185 58.335 58.3867C59.6101 59.6185 61.3391 60.3966 63.2842 60.3966C65.0996 60.3966 66.8286 59.6402 68.1253 58.3434C69.3788 59.6185 71.0861 60.3966 72.9664 60.3966C73.1393 60.3966 73.2906 60.3534 73.4635 60.3317V73.3638H43.1849Z" fill="white"/>
<defs>
<linearGradient id="paint0_linear_92_303" x1="18.2693" y1="16.9999" x2="98.6504" y2="16.9999" gradientUnits="userSpaceOnUse">
<stop stop-color="#624BEE"/>
<stop offset="0.25331" stop-color="#A6469E"/>
<stop offset="0.49318" stop-color="#E0425A"/>
<stop offset="0.695051" stop-color="#F2522C"/>
<stop offset="0.791236" stop-color="#F95D16"/>
<stop offset="1" stop-color="#FF6700"/>
</linearGradient>
<linearGradient id="paint1_linear_92_303" x1="18.2693" y1="16.9999" x2="98.6504" y2="16.9999" gradientUnits="userSpaceOnUse">
<stop stop-color="#624BEE"/>
<stop offset="0.25331" stop-color="#A6469E"/>
<stop offset="0.49318" stop-color="#E0425A"/>
<stop offset="0.695051" stop-color="#F2522C"/>
<stop offset="0.791236" stop-color="#F95D16"/>
<stop offset="1" stop-color="#FF6700"/>
</linearGradient>
</defs>
</svg>
