<svg width="601" height="122" viewBox="0 0 601 122" fill="none" xmlns="http://www.w3.org/2000/svg">
<g filter="url(#filter0_d_320_55)">
<path d="M11.9047 63.2532C13.2456 52.3327 15.4448 43.5542 18.5025 36.9178C21.6077 30.2395 25.6037 25.0942 30.4906 21.482C35.4198 17.8698 41.2698 16.0637 48.0406 16.0637C53.0341 16.0637 57.2902 17.0717 60.809 19.0878C64.3328 21.062 67.0899 23.9391 69.0802 27.7193C71.0756 31.4575 72.4389 36.0358 73.1701 41.4541C73.9065 46.8304 73.7125 54.0967 72.5883 63.2532C71.2577 74.0898 69.061 82.8473 65.9982 89.5257C62.9405 96.162 58.9445 101.307 54.0101 104.962C49.1232 108.574 43.2732 110.38 36.4601 110.38C27.4887 110.38 20.8348 107.188 16.4982 100.803C11.3059 93.1169 9.77474 80.6002 11.9047 63.2532ZM23.6478 63.2532C21.7861 78.4161 22.3231 88.5176 25.2589 93.5579C28.2422 98.5562 32.3576 101.055 37.605 101.055C42.8524 101.055 47.5628 98.5352 51.7364 93.4949C55.9523 88.4546 58.9885 78.3741 60.8451 63.2532C62.712 48.0484 62.1538 37.9469 59.1705 32.9486C56.2296 27.9503 52.0931 25.4512 46.761 25.4512C41.5136 25.4512 37.0534 27.6563 33.3804 32.0666C28.7538 37.6949 25.5096 48.0904 23.6478 63.2532ZM140.062 97.9051L138.724 108.805H77.215C77.4656 106.075 78.2322 103.449 79.515 100.929C81.5913 96.7711 84.5909 92.6758 88.5137 88.6436C92.4788 84.6114 98.0448 79.9492 105.212 74.6569C116.336 66.4244 123.97 59.9141 128.113 55.1258C132.26 50.2955 134.597 45.7383 135.123 41.4541C135.675 36.9598 134.51 33.1796 131.628 30.1134C128.794 27.0053 124.774 25.4512 119.569 25.4512C114.067 25.4512 109.465 27.0893 105.762 30.3655C102.059 33.6416 99.8305 38.1779 99.0765 43.9742L87.4803 42.7771C89.3519 34.0827 93.1899 27.4673 98.9943 22.9311C104.804 18.3528 112.131 16.0637 120.975 16.0637C129.904 16.0637 136.67 18.5208 141.271 23.4351C145.873 28.3494 147.728 34.4397 146.835 41.7061C146.382 45.4023 145.174 49.0355 143.212 52.6057C141.25 56.1759 138.25 59.9351 134.21 63.8833C130.213 67.8315 123.687 73.2498 114.631 80.1382C107.074 85.8505 102.196 89.7357 99.997 91.7938C97.8029 93.8099 95.9447 95.847 94.4224 97.9051H140.062Z" fill="url(#paint0_linear_320_55)"/>
</g>
<g filter="url(#filter1_d_320_55)">
<path d="M222.756 64.9979C222.756 65.5579 222.596 66.0779 222.276 66.5579C221.996 67.0379 221.636 67.4779 221.196 67.8779C220.636 68.3579 220.036 68.7379 219.396 69.0179C218.756 69.2979 218.116 69.4379 217.476 69.4379H202.776V81.8579H193.536V69.4379H178.896C177.976 69.4379 177.136 69.2579 176.376 68.8979C175.656 68.4979 175.056 67.9579 174.576 67.2779C174.176 66.7179 173.856 66.0979 173.616 65.4179C173.416 64.7379 173.316 64.0379 173.316 63.3179V41.5979C173.316 41.1179 173.476 40.5979 173.796 40.0379C174.116 39.4379 174.556 38.9179 175.116 38.4779C175.556 38.0779 176.036 37.7579 176.556 37.5179C177.116 37.2779 177.676 37.1579 178.236 37.1579H193.536V28.6979H202.776V37.1579H218.016C219.216 37.1579 220.296 37.6779 221.256 38.7179C221.696 39.1979 222.056 39.7379 222.336 40.3379C222.616 40.9379 222.756 41.5579 222.756 42.1979V64.9979ZM213.576 44.3579C213.576 43.8779 213.456 43.4979 213.216 43.2179C213.016 42.9379 212.756 42.7979 212.436 42.7979H202.776V63.7979H212.196C212.556 63.7979 212.876 63.6779 213.156 63.4379C213.436 63.1979 213.576 62.9179 213.576 62.5979V44.3579ZM193.536 42.7979H183.816C182.976 42.7979 182.556 43.2579 182.556 44.1779V62.2979C182.556 62.6579 182.676 62.9979 182.916 63.3179C183.196 63.6379 183.556 63.7979 183.996 63.7979H193.536V42.7979ZM277.456 73.3979C276.336 70.7579 275.336 67.9579 274.456 64.9979C273.576 62.0379 272.796 59.0379 272.116 55.9979C271.476 52.9179 270.896 49.8379 270.376 46.7579C269.896 43.6379 269.456 40.6179 269.056 37.6979H278.056C278.456 40.5379 278.936 43.4979 279.496 46.5779C280.056 49.6579 280.716 52.7579 281.476 55.8779C282.236 58.9579 283.096 61.9979 284.056 64.9979C285.016 67.9579 286.096 70.7579 287.296 73.3979H277.456ZM263.956 76.6379C263.956 77.3179 263.796 77.9579 263.476 78.5579C263.156 79.1979 262.756 79.7579 262.276 80.2379C261.796 80.7179 261.256 81.0979 260.656 81.3779C260.096 81.6579 259.556 81.7979 259.036 81.7979H244.516L242.776 76.0379H253.576C253.816 76.0379 254.036 75.9379 254.236 75.7379C254.476 75.5379 254.596 75.3379 254.596 75.1379V29.0579H263.956V76.6379ZM249.136 37.6979C248.376 43.8179 247.336 49.8779 246.016 55.8779C244.736 61.8779 242.916 67.7179 240.556 73.3979H230.776C231.896 70.9179 232.916 68.2379 233.836 65.3579C234.796 62.4779 235.656 59.4979 236.416 56.4179C237.216 53.3379 237.916 50.2179 238.516 47.0579C239.156 43.8579 239.736 40.7379 240.256 37.6979H249.136ZM336.356 51.2579C334.556 48.8579 332.876 46.4379 331.316 43.9979C329.796 41.5179 328.356 38.9779 326.996 36.3779C326.796 36.0579 326.516 35.7979 326.156 35.5979C325.836 35.3579 325.516 35.2379 325.196 35.2379H314.396C314.076 35.2379 313.776 35.3779 313.496 35.6579C313.216 35.8979 313.016 36.1379 312.896 36.3779C311.496 39.0179 310.036 41.5779 308.516 44.0579C307.036 46.5379 305.316 48.9379 303.356 51.2579H292.316C294.836 48.3779 297.116 45.3379 299.156 42.1379C301.236 38.8979 303.236 35.6779 305.156 32.4779C305.676 31.5979 306.456 30.8979 307.496 30.3779C308.456 29.8979 309.476 29.6579 310.556 29.6579H329.636C330.836 29.6579 331.936 29.9979 332.936 30.6779C333.736 31.2779 334.336 31.9179 334.736 32.5979C336.256 35.2779 337.976 38.1179 339.896 41.1179C341.856 44.1179 344.376 47.4979 347.456 51.2579H336.356ZM294.116 81.2579V75.6779H299.936V54.4379H308.996V75.6779H315.956V44.2379H325.136V57.0179H342.116V62.5379H325.136V75.6779H346.256V81.2579H294.116ZM405.336 30.6779C405.056 31.8379 404.716 33.0179 404.316 34.2179C403.916 35.4179 403.496 36.5779 403.056 37.6979H394.296C394.856 36.6179 395.356 35.4779 395.796 34.2779C396.236 33.0779 396.616 31.8779 396.936 30.6779H405.336ZM354.996 44.0579V39.0779H370.236V28.9979H378.876V39.0779H383.556V28.9979H392.196V39.0779H407.256V44.0579H354.996ZM359.316 37.6979C358.836 36.5379 358.396 35.3979 357.996 34.2779C357.636 33.1179 357.296 31.9179 356.976 30.6779H365.436C365.836 31.8779 366.256 33.0579 366.696 34.2179C367.136 35.3779 367.636 36.5379 368.196 37.6979H359.316ZM397.356 80.8979C395.956 79.6179 394.596 78.2379 393.276 76.7579C391.956 75.2379 390.776 73.7379 389.736 72.2579H400.236C401.476 73.8179 402.796 75.3379 404.196 76.8179C405.596 78.2979 407.096 79.6579 408.696 80.8979H397.356ZM385.836 70.3979V81.7379H376.776V70.3979H355.116V65.4779H376.776V62.3579H358.056V57.8579H376.776V54.7979H356.316V49.8179H368.076C367.276 49.3379 366.456 48.7179 365.616 47.9579C364.776 47.1979 364.076 46.4579 363.516 45.7379H373.356C373.996 46.4979 374.756 47.2379 375.636 47.9579C376.516 48.6779 377.356 49.2979 378.156 49.8179H384.876C385.516 49.3779 386.296 48.7779 387.216 48.0179C388.136 47.2179 388.856 46.4579 389.376 45.7379H399.036C398.476 46.4979 397.756 47.2379 396.876 47.9579C395.996 48.6379 395.156 49.2579 394.356 49.8179H406.116V54.7979H385.836V57.8579H404.556V62.4179H385.836V65.4779H407.436V70.3979H385.836ZM372.696 72.2579C371.616 73.7779 370.416 75.2779 369.096 76.7579C367.816 78.2379 366.456 79.6179 365.016 80.8979H354.036C355.476 79.6179 356.916 78.2379 358.356 76.7579C359.836 75.2779 361.216 73.7779 362.496 72.2579H372.696ZM467.776 65.5379C467.776 67.5379 467.236 69.0579 466.156 70.0979C465.196 71.0579 463.796 71.5379 461.956 71.5379H456.016V81.7979H447.796V71.5379H442.576C440.536 71.5379 438.956 71.0779 437.836 70.1579C436.716 69.1979 436.156 67.6779 436.156 65.5979V42.6179C436.156 40.8579 436.776 39.4779 438.016 38.4779C439.056 37.6379 440.316 37.2179 441.796 37.2179H447.796V28.7579H456.016V37.2179H461.296C463.456 37.2179 465.096 37.7779 466.216 38.8979C467.256 39.9379 467.776 41.3579 467.776 43.1579V65.5379ZM430.636 65.6579C430.476 64.7779 430.316 63.7979 430.156 62.7179C429.996 61.5979 429.856 60.4579 429.736 59.2979C429.616 58.1379 429.516 56.9979 429.436 55.8779C429.356 54.7179 429.296 53.6779 429.256 52.7579C429.176 52.9979 428.996 53.3979 428.716 53.9579C428.436 54.4779 428.216 54.8579 428.056 55.0979V81.7979H419.416V62.2979H414.196C416.596 58.8579 418.756 55.3979 420.676 51.9179C422.636 48.4379 424.256 44.9579 425.536 41.4779C425.576 41.3579 425.536 41.2379 425.416 41.1179C425.296 40.9579 425.176 40.8779 425.056 40.8779H416.176V35.2979H420.556C420.276 34.2979 419.996 33.2179 419.716 32.0579C419.476 30.8979 419.256 29.7979 419.056 28.7579H427.876C428.036 29.8779 428.236 30.9979 428.476 32.1179C428.756 33.1979 429.056 34.2779 429.376 35.3579C431.336 35.3579 432.736 35.8379 433.576 36.7979C434.496 37.7579 434.616 39.2979 433.936 41.4179C433.336 43.3379 432.656 45.2379 431.896 47.1179C431.136 48.9579 430.296 50.7779 429.376 52.5779H433.456C433.536 53.5779 433.616 54.6579 433.696 55.8179C433.776 56.9379 433.876 58.0779 433.996 59.2379C434.116 60.3979 434.256 61.5379 434.416 62.6579C434.576 63.7379 434.756 64.7379 434.956 65.6579H430.636ZM459.916 44.3579C459.916 44.0379 459.756 43.6979 459.436 43.3379C459.156 42.9779 458.836 42.7979 458.476 42.7979H456.016V51.9779H459.916V44.3579ZM447.796 42.7979H445.036C444.756 42.7979 444.496 42.9379 444.256 43.2179C444.056 43.4979 443.956 43.7579 443.956 43.9979V51.9779H447.796V42.7979ZM459.916 57.4379H456.016V66.0779H458.836C459.076 66.0779 459.316 65.9579 459.556 65.7179C459.796 65.4779 459.916 65.1979 459.916 64.8779V57.4379ZM447.796 57.4379H443.956V64.5779C443.956 64.9779 444.076 65.3379 444.316 65.6579C444.596 65.9379 444.876 66.0779 445.156 66.0779H447.796V57.4379ZM502.436 36.0779C501.876 34.9179 501.336 33.7379 500.816 32.5379C500.296 31.2979 499.816 30.0379 499.376 28.7579H507.896C508.336 30.0379 508.836 31.3179 509.396 32.5979C509.956 33.8379 510.556 34.9979 511.196 36.0779H502.436ZM530.036 48.6179C529.556 50.7379 528.996 52.8379 528.356 54.9179C527.716 56.9979 526.956 58.9979 526.076 60.9179H519.296C519.416 63.4379 519.456 65.8579 519.416 68.1779C519.416 70.4979 519.376 72.9179 519.296 75.4379C519.176 77.2779 518.576 78.7579 517.496 79.8779C516.296 81.1579 514.696 81.7979 512.696 81.7979H507.536L506.216 76.2779H509.276C509.716 76.2779 510.096 76.1579 510.416 75.9179C510.736 75.6379 510.916 75.2779 510.956 74.8379C511.196 72.3979 511.336 69.9179 511.376 67.3979C511.416 64.8379 511.356 62.3179 511.196 59.8379C511.116 58.5579 510.796 57.1979 510.236 55.7579C509.676 54.2779 508.956 53.0179 508.076 51.9779C507.756 52.3379 507.436 52.6779 507.116 52.9979C506.796 53.2779 506.436 53.5779 506.036 53.8979H495.056C496.976 52.3379 498.796 50.6779 500.516 48.9179C502.276 47.1579 503.956 45.3779 505.556 43.5779H496.856V38.1779H514.016C514.896 36.6579 515.696 35.1179 516.416 33.5579C517.136 31.9979 517.836 30.4179 518.516 28.8179H527.756C527.076 30.4179 526.356 31.9979 525.596 33.5579C524.836 35.1179 524.036 36.6579 523.196 38.1779H529.556V43.5779H515.336C515.016 44.0579 514.636 44.5779 514.196 45.1379C513.796 45.6579 513.416 46.1179 513.056 46.5179C514.896 48.1979 516.256 50.0779 517.136 52.1579C518.016 54.2379 518.656 56.4179 519.056 58.6979C519.736 57.0579 520.356 55.4179 520.916 53.7779C521.476 52.1379 522.016 50.4179 522.536 48.6179H530.036ZM523.196 79.2179C522.476 76.6979 521.876 74.0779 521.396 71.3579C520.916 68.6379 520.516 65.8979 520.196 63.1379H527.636C527.956 65.8579 528.376 68.5779 528.896 71.2979C529.416 73.9779 529.976 76.6179 530.576 79.2179H523.196ZM511.076 65.1779C510.596 66.1779 509.996 67.3179 509.276 68.5979C508.596 69.8379 507.856 71.0979 507.056 72.3779C506.256 73.6179 505.436 74.8379 504.596 76.0379C503.756 77.2379 502.956 78.2979 502.196 79.2179L492.896 79.1579C493.536 78.3579 494.216 77.4579 494.936 76.4579C495.656 75.4179 496.396 74.3579 497.156 73.2779C497.916 72.1579 498.636 71.0579 499.316 69.9779C500.036 68.8579 500.676 67.7979 501.236 66.7979H495.716C495.596 67.6779 495.436 68.3979 495.236 68.9579C495.036 69.4779 494.656 70.0379 494.096 70.6379C493.576 71.1979 492.976 71.6579 492.296 72.0179C491.656 72.3379 490.876 72.4979 489.956 72.4979H486.416L485.276 68.2379V81.7379H476.996V33.5579C476.996 32.1579 477.396 31.0579 478.196 30.2579C479.076 29.4979 480.316 29.1179 481.916 29.1179H492.416C493.936 29.1179 495.036 29.5779 495.716 30.4979C496.396 31.4179 496.616 32.6179 496.376 34.0979C495.976 36.5379 495.496 38.9579 494.936 41.3579C494.376 43.7179 493.776 46.0179 493.136 48.2579C493.056 48.4979 493.016 48.8379 493.016 49.2779C493.056 49.7179 493.116 50.0579 493.196 50.2979C493.676 51.5379 494.076 52.6779 494.396 53.7179C494.756 54.7579 495.056 55.7979 495.296 56.8379C495.536 57.8379 495.716 58.8979 495.836 60.0179C495.996 61.0979 496.116 62.2979 496.196 63.6179C497.116 62.3379 497.936 61.0379 498.656 59.7179C499.416 58.3979 500.136 57.0379 500.816 55.6379L509.396 55.6979C508.716 57.2579 507.956 58.8779 507.116 60.5579C506.316 62.2379 505.436 63.7779 504.476 65.1779H511.076ZM488.756 35.4779C488.796 35.2779 488.736 35.0779 488.576 34.8779C488.456 34.6779 488.296 34.5779 488.096 34.5779H486.296C486.016 34.5779 485.776 34.6579 485.576 34.8179C485.376 34.9779 485.276 35.1979 485.276 35.4779V66.6179H487.196C487.916 66.6179 488.316 66.2179 488.396 65.4179C488.596 62.8179 488.496 60.3379 488.096 57.9779C487.696 55.5779 487.116 53.1779 486.356 50.7779C486.196 50.2579 486.116 49.7179 486.116 49.1579C486.156 48.5979 486.256 48.0379 486.416 47.4779C486.856 45.4779 487.276 43.4979 487.676 41.5379C488.076 39.5379 488.436 37.5179 488.756 35.4779ZM578.136 81.7979C577.496 81.3979 576.796 80.9379 576.036 80.4179C575.316 79.8979 574.576 79.3579 573.816 78.7979C573.056 78.2379 572.316 77.6579 571.596 77.0579C570.876 76.4579 570.216 75.8779 569.616 75.3179C568.456 76.4379 567.136 77.5579 565.656 78.6779C564.216 79.8379 562.756 80.8779 561.276 81.7979H548.076C550.716 79.9579 553.436 78.0379 556.236 76.0379C559.076 74.0379 561.636 71.9979 563.916 69.9179C563.156 68.9979 562.336 67.9979 561.456 66.9179C560.576 65.8379 559.696 64.7379 558.816 63.6179C557.976 62.4579 557.136 61.3179 556.296 60.1979C555.496 59.0779 554.756 58.0179 554.076 57.0179C553.556 61.8579 552.616 66.3979 551.256 70.6379C549.936 74.8379 548.036 78.5579 545.556 81.7979H536.016C538.416 78.3579 540.256 74.9779 541.536 71.6579C542.816 68.3379 543.736 64.9179 544.296 61.3979C544.536 59.8379 544.756 58.1979 544.956 56.4779C545.156 54.7179 545.316 52.9379 545.436 51.1379C545.596 49.3379 545.716 47.5579 545.796 45.7979C545.876 43.9979 545.916 42.2579 545.916 40.5779H537.996V34.9379H545.916V28.7579H555.096V34.9379H590.136V40.5779H555.096C555.096 40.9379 555.076 41.4179 555.036 42.0179C555.036 42.6179 555.016 43.2379 554.976 43.8779C554.936 44.5179 554.896 45.1379 554.856 45.7379C554.856 46.2979 554.856 46.7379 554.856 47.0579H583.176C584.216 47.0579 585.116 47.2579 585.876 47.6579C586.636 48.0179 587.236 48.4979 587.676 49.0979C588.436 50.3779 588.456 51.8579 587.736 53.5379C587.216 54.7379 586.476 56.0579 585.516 57.4979C584.596 58.8979 583.576 60.3179 582.456 61.7579C581.376 63.1979 580.236 64.5979 579.036 65.9579C577.836 67.3179 576.696 68.5379 575.616 69.6179C578.056 72.0179 580.656 74.2379 583.416 76.2779C586.176 78.2779 588.996 80.1179 591.876 81.7979H578.136ZM578.196 53.5379C578.276 53.4179 578.276 53.2579 578.196 53.0579C578.156 52.8579 578.056 52.7379 577.896 52.6979H554.616C554.576 53.0979 554.536 53.6779 554.496 54.4379C554.456 55.1979 554.396 55.8179 554.316 56.2979H563.856C564.096 56.7379 564.456 57.2979 564.936 57.9779C565.416 58.6179 565.916 59.2979 566.436 60.0179C566.996 60.7379 567.556 61.4579 568.116 62.1779C568.716 62.8579 569.256 63.4379 569.736 63.9179C571.256 62.3179 572.776 60.6379 574.296 58.8779C575.856 57.1179 577.156 55.3379 578.196 53.5379Z" fill="#3E1EE6"/>
</g>
<defs>
<filter id="filter0_d_320_55" x="5.31816" y="16.0637" width="153.593" height="105.116" filterUnits="userSpaceOnUse" color-interpolation-filters="sRGB">
<feFlood flood-opacity="0" result="BackgroundImageFix"/>
<feColorMatrix in="SourceAlpha" type="matrix" values="0 0 0 0 0 0 0 0 0 0 0 0 0 0 0 0 0 0 127 0" result="hardAlpha"/>
<feOffset dx="4" dy="6"/>
<feGaussianBlur stdDeviation="2.4"/>
<feComposite in2="hardAlpha" operator="out"/>
<feColorMatrix type="matrix" values="0 0 0 0 1 0 0 0 0 1 0 0 0 0 1 0 0 0 0.8 0"/>
<feBlend mode="screen" in2="BackgroundImageFix" result="effect1_dropShadow_320_55"/>
<feBlend mode="normal" in="SourceGraphic" in2="effect1_dropShadow_320_55" result="shape"/>
</filter>
<filter id="filter1_d_320_55" x="172.516" y="28.6979" width="428.16" height="63.96" filterUnits="userSpaceOnUse" color-interpolation-filters="sRGB">
<feFlood flood-opacity="0" result="BackgroundImageFix"/>
<feColorMatrix in="SourceAlpha" type="matrix" values="0 0 0 0 0 0 0 0 0 0 0 0 0 0 0 0 0 0 127 0" result="hardAlpha"/>
<feOffset dx="4" dy="6"/>
<feGaussianBlur stdDeviation="2.4"/>
<feComposite in2="hardAlpha" operator="out"/>
<feColorMatrix type="matrix" values="0 0 0 0 1 0 0 0 0 1 0 0 0 0 1 0 0 0 0.8 0"/>
<feBlend mode="screen" in2="BackgroundImageFix" result="effect1_dropShadow_320_55"/>
<feBlend mode="normal" in="SourceGraphic" in2="effect1_dropShadow_320_55" result="shape"/>
</filter>
<linearGradient id="paint0_linear_320_55" x1="157.25" y1="16.4979" x2="14.4036" y2="-1.04141" gradientUnits="userSpaceOnUse">
<stop stop-color="#FF8F08"/>
<stop offset="1" stop-color="#F73603"/>
</linearGradient>
</defs>
</svg>
