<svg width="277" height="107" viewBox="0 0 277 107" fill="none" xmlns="http://www.w3.org/2000/svg">
<g filter="url(#filter0_d_98_4332)">
<path d="M10.143 52.3135C11.3807 42.233 13.4108 34.1298 16.2333 28.0039C19.0996 21.8393 22.7882 17.0898 27.2992 13.7554C31.8492 10.4211 37.2492 8.75394 43.4992 8.75394C48.1086 8.75394 52.0373 9.68445 55.2854 11.5455C58.5382 13.3677 61.0832 16.0236 62.9204 19.513C64.7623 22.9636 66.0207 27.1897 66.6957 32.1912C67.3754 37.1539 67.1964 43.8614 66.1586 52.3135C64.9304 62.3165 62.9026 70.4004 60.0754 76.565C57.2529 82.6909 53.5643 87.4404 49.0095 90.8135C44.4985 94.1478 39.0985 95.815 32.8095 95.815C24.5282 95.815 18.3861 92.8683 14.3831 86.9751C9.59026 79.88 8.17686 68.3261 10.143 52.3135ZM20.9828 52.3135C19.2643 66.31 19.76 75.6345 22.47 80.287C25.2238 84.9008 29.0226 87.2077 33.8663 87.2077C38.7101 87.2077 43.0582 84.8815 46.9107 80.2289C50.8023 75.5763 53.605 66.2712 55.3187 52.3135C57.042 38.2783 56.5268 28.9538 53.773 24.34C51.0582 19.7262 47.2399 17.4193 42.3181 17.4193C37.4743 17.4193 33.3572 19.4548 29.9667 23.5258C25.696 28.7212 22.7014 38.3171 20.9828 52.3135ZM111.504 94.361H100.957L109.147 27.655C106.313 30.0588 102.678 32.4626 98.2422 34.8664C93.8455 37.2703 89.9327 39.0731 86.5039 40.275L87.7464 30.1557C93.9828 27.403 99.5485 24.0686 104.443 20.1527C109.338 16.2368 112.93 12.4372 115.218 8.75394H122.015L111.504 94.361Z" fill="url(#paint0_linear_98_4332)"/>
</g>
<g filter="url(#filter1_d_98_4332)">
<path d="M173.574 25.36V30.84H179.774C181.081 30.84 182.068 31.2 182.734 31.92C183.321 32.56 183.614 33.4133 183.614 34.48V41.44C183.614 42.4533 183.294 43.3067 182.654 44C182.014 44.64 181.201 44.96 180.214 44.96H162.774C161.628 44.96 160.721 44.6533 160.054 44.04C159.308 43.3733 158.934 42.4 158.934 41.12V34.48C158.934 33.2267 159.308 32.2667 160.054 31.6C160.694 31.0933 161.481 30.84 162.414 30.84H167.574V17.96H173.574V21.64H184.974V25.36H173.574ZM157.894 16.64C157.681 16.64 157.508 16.7467 157.374 16.96C157.268 17.1467 157.214 17.3333 157.214 17.52V34.04C157.214 36.0133 157.121 37.8933 156.934 39.68C156.748 41.4667 156.388 43.3067 155.854 45.2H149.854C150.334 43.2 150.681 41.16 150.894 39.08C151.134 37 151.254 34.7067 151.254 32.2V16.72C151.254 15.4133 151.668 14.4133 152.494 13.72C153.134 13.16 154.001 12.88 155.094 12.88H165.974C165.814 12.5067 165.628 12.0133 165.414 11.4C165.201 10.76 165.028 10.24 164.894 9.84H171.774C172.148 10.9867 172.628 12 173.214 12.88H185.334V16.64H157.894ZM177.734 35.24C177.734 35.08 177.654 34.92 177.494 34.76C177.334 34.6 177.174 34.52 177.014 34.52H165.654C165.468 34.52 165.308 34.6 165.174 34.76C165.041 34.92 164.974 35.0667 164.974 35.2V40.44C164.974 40.6 165.068 40.76 165.254 40.92C165.441 41.08 165.614 41.16 165.774 41.16H177.014C177.201 41.16 177.361 41.0933 177.494 40.96C177.654 40.8 177.734 40.6133 177.734 40.4V35.24ZM208.094 37.04C206.441 38.6133 204.908 40.0267 203.494 41.28C202.081 42.5333 200.734 43.6667 199.454 44.68H190.254C191.134 44.12 192.134 43.44 193.254 42.64C194.401 41.8133 195.561 40.9467 196.734 40.04C197.908 39.1333 199.041 38.2267 200.134 37.32C201.254 36.3867 202.241 35.5467 203.094 34.8H208.054C208.134 32.8267 208.054 31.16 207.814 29.8C207.654 29.0267 207.428 28.3867 207.134 27.88C206.841 27.3467 206.454 26.9467 205.974 26.68C205.521 26.9733 204.988 27.3067 204.374 27.68C203.788 28.0533 203.268 28.3733 202.814 28.64H190.854C193.174 27.92 195.334 27.0533 197.334 26.04C199.334 25.0267 201.174 23.96 202.854 22.84H198.334V19.32H219.174V22.84H211.334C211.174 23 211.028 23.1467 210.894 23.28C210.761 23.4133 210.588 23.5467 210.374 23.68C211.228 24.1867 211.854 24.8933 212.254 25.8C212.654 26.7067 212.961 27.7333 213.174 28.88C213.334 29.8133 213.468 30.84 213.574 31.96C213.681 33.0533 213.734 34.1733 213.734 35.32C213.761 36.44 213.734 37.56 213.654 38.68C213.601 39.8 213.494 40.84 213.334 41.8C213.228 42.44 213.028 42.9733 212.734 43.4C212.468 43.8533 212.121 44.2133 211.694 44.48C211.241 44.7733 210.721 44.9867 210.134 45.12C209.574 45.2533 208.974 45.32 208.334 45.32H204.454L203.254 41.64H206.254C207.241 41.64 207.774 41.1733 207.854 40.24C207.908 39.8667 207.948 39.4 207.974 38.84C208.028 38.28 208.068 37.68 208.094 37.04ZM220.534 21.36V17.44C220.534 17.2267 220.441 17.04 220.254 16.88C220.094 16.6933 219.908 16.6 219.694 16.6H197.854C197.641 16.6 197.428 16.6933 197.214 16.88C197.028 17.0667 196.934 17.2667 196.934 17.48V21.44H191.214V16.16C191.214 15.2533 191.508 14.5333 192.094 14C192.388 13.7067 192.748 13.48 193.174 13.32C193.601 13.16 194.041 13.08 194.494 13.08H205.494C205.414 12.8667 205.321 12.6133 205.214 12.32C205.134 12.0267 205.041 11.7333 204.934 11.44C204.854 11.1467 204.774 10.8667 204.694 10.6C204.614 10.3067 204.548 10.0667 204.494 9.88H211.214C211.268 10.0667 211.334 10.3067 211.414 10.6C211.494 10.8667 211.574 11.16 211.654 11.48C211.761 11.7733 211.854 12.0667 211.934 12.36C212.041 12.6267 212.134 12.8667 212.214 13.08H222.374C223.761 13.08 224.761 13.4267 225.374 14.12C225.881 14.7333 226.134 15.68 226.134 16.96V21.36H220.534ZM225.094 24.8C224.561 26.1067 223.974 27.3333 223.334 28.48C222.721 29.6 221.948 30.7467 221.014 31.92H214.214C215.228 30.6667 216.094 29.4667 216.814 28.32C217.534 27.1467 218.201 25.9733 218.814 24.8H225.094ZM219.974 44.2C218.988 42.6267 218.001 40.88 217.014 38.96C216.054 37.0133 215.214 35.1467 214.494 33.36H221.054C221.748 35.04 222.601 36.8267 223.614 38.72C224.628 40.6133 225.734 42.44 226.934 44.2H219.974ZM207.134 29.84C205.908 31.0133 204.574 32.2133 203.134 33.44C201.694 34.64 200.334 35.6667 199.054 36.52H190.254C192.068 35.4267 193.774 34.32 195.374 33.2C196.974 32.0533 198.454 30.9333 199.814 29.84H207.134ZM178.134 80.04V91.44C178.134 92.4533 177.841 93.2933 177.254 93.96C176.614 94.68 175.761 95.04 174.694 95.04H169.254L167.934 91.4H171.494C171.708 91.4 171.881 91.32 172.014 91.16C172.174 91 172.254 90.8 172.254 90.56V80.04H165.294V76.28H172.254V72.16C173.374 70.9333 174.414 69.7067 175.374 68.48C176.334 67.2267 177.241 65.9467 178.094 64.64C178.148 64.56 178.148 64.4667 178.094 64.36C178.068 64.2533 177.988 64.2 177.854 64.2H165.694V60.48H181.654C182.214 60.48 182.721 60.6 183.174 60.84C183.628 61.08 184.001 61.4 184.294 61.8C184.614 62.2533 184.801 62.76 184.854 63.32C184.908 63.8533 184.788 64.4133 184.494 65C184.068 65.8 183.588 66.6 183.054 67.4C182.548 68.2 182.014 68.9733 181.454 69.72C180.921 70.4667 180.361 71.1867 179.774 71.88C179.214 72.5733 178.668 73.2 178.134 73.76V76.28H185.494V80.04H178.134ZM160.294 94.08C160.028 93.8133 159.748 93.52 159.454 93.2C159.188 92.88 158.948 92.5733 158.734 92.28C158.441 92.76 158.134 93.24 157.814 93.72C157.494 94.2267 157.161 94.7067 156.814 95.16H149.934C150.921 93.96 151.854 92.7333 152.734 91.48C153.641 90.2267 154.468 88.9467 155.214 87.64C154.574 86.8133 153.908 85.96 153.214 85.08C152.548 84.1733 151.948 83.28 151.414 82.4C151.094 81.84 150.868 81.24 150.734 80.6C150.628 79.96 150.654 79.28 150.814 78.56C151.108 77.2 151.388 75.8267 151.654 74.44C151.948 73.0267 152.214 71.6267 152.454 70.24H150.094V66.48H153.054C153.268 65.36 153.454 64.2533 153.614 63.16C153.774 62.0667 153.921 60.96 154.054 59.84H159.694C159.534 60.96 159.374 62.0667 159.214 63.16C159.054 64.2533 158.881 65.36 158.694 66.48H161.894C163.014 66.48 163.854 66.7067 164.414 67.16C165.161 67.7467 165.494 68.6933 165.414 70C165.308 71.44 165.148 72.92 164.934 74.44C164.721 75.96 164.454 77.4667 164.134 78.96C163.814 80.4267 163.428 81.8667 162.974 83.28C162.548 84.6667 162.054 85.96 161.494 87.16C162.348 88.36 163.268 89.5333 164.254 90.68C165.241 91.8267 166.241 92.96 167.254 94.08H160.294ZM159.934 70.88C159.934 70.6933 159.854 70.5467 159.694 70.44C159.534 70.3067 159.388 70.24 159.254 70.24H158.054C157.814 71.7333 157.548 73.1867 157.254 74.6C156.988 75.9867 156.694 77.3867 156.374 78.8C156.321 79.0133 156.294 79.2533 156.294 79.52C156.321 79.7867 156.388 80.0133 156.494 80.2C156.681 80.5467 156.881 80.8667 157.094 81.16C157.334 81.4533 157.574 81.7467 157.814 82.04C158.374 80.2267 158.828 78.4133 159.174 76.6C159.521 74.7867 159.774 72.88 159.934 70.88ZM226.014 83.12C225.534 84.3467 224.894 85.5333 224.094 86.68C223.294 87.8267 222.414 88.92 221.454 89.96C220.494 90.9733 219.468 91.92 218.374 92.8C217.308 93.68 216.228 94.4667 215.134 95.16H206.694C207.094 94.92 207.414 94.7067 207.654 94.52C207.921 94.3333 208.174 94.1333 208.414 93.92H204.094C203.748 92.56 203.481 91.1867 203.294 89.8C203.108 88.3867 202.988 86.9333 202.934 85.44H206.934C207.068 86.88 207.254 88.2933 207.494 89.68C207.761 91.0667 208.121 92.44 208.574 93.8C209.588 93.16 210.561 92.4933 211.494 91.8C212.454 91.1067 213.401 90.32 214.334 89.44C213.881 88.8267 213.428 88.2267 212.974 87.64C212.548 87.0533 212.121 86.4667 211.694 85.88H207.574C208.694 84.6 209.734 83.28 210.694 81.92C211.681 80.5333 212.561 79.12 213.334 77.68H207.214C208.228 77.0933 209.281 76.4133 210.374 75.64C211.494 74.84 212.494 74 213.374 73.12C212.868 72.56 212.334 71.9333 211.774 71.24C211.214 70.5467 210.748 69.8933 210.374 69.28H207.814V74.16C207.814 75.1467 207.601 75.9333 207.174 76.52C206.588 77.32 205.668 77.72 204.414 77.72H202.214V80.12H208.294V83.64H202.214V95.16H196.974V83.64H190.974V80.12H196.974V77.72H194.734C193.748 77.72 192.921 77.4267 192.254 76.84C191.961 76.5467 191.721 76.2133 191.534 75.84C191.348 75.44 191.254 74.9867 191.254 74.48V63.32C191.254 62.92 191.334 62.5467 191.494 62.2C191.681 61.8267 191.921 61.4933 192.214 61.2C192.881 60.5333 193.708 60.2 194.694 60.2H203.774C204.948 60.2 205.881 60.4667 206.574 61C207.401 61.6133 207.814 62.5067 207.814 63.68V68.04C208.748 66.7333 209.588 65.3867 210.334 64C211.081 62.6133 211.801 61.2 212.494 59.76H218.214C218.081 60.0533 217.908 60.4267 217.694 60.88C217.481 61.3067 217.308 61.6533 217.174 61.92H223.214C223.748 61.92 224.188 62.0267 224.534 62.24C224.881 62.4267 225.161 62.68 225.374 63C225.588 63.3467 225.681 63.7333 225.654 64.16C225.654 64.5867 225.588 65.0267 225.454 65.48C225.134 66.4933 224.721 67.48 224.214 68.44C223.708 69.4 223.108 70.3333 222.414 71.24C221.641 72.2533 220.761 73.2133 219.774 74.12C218.814 75.0267 217.774 75.84 216.654 76.56H220.014C219.881 76.88 219.708 77.24 219.494 77.64C219.308 78.0133 219.121 78.36 218.934 78.68H223.254C224.561 78.68 225.468 79.0267 225.974 79.72C226.294 80.1733 226.441 80.6933 226.414 81.28C226.388 81.8667 226.254 82.48 226.014 83.12ZM196.334 85.44C196.201 86.9067 196.001 88.36 195.734 89.8C195.494 91.2133 195.148 92.5867 194.694 93.92H190.294C190.801 92.56 191.188 91.1867 191.454 89.8C191.748 88.3867 192.001 86.9333 192.214 85.44H196.334ZM219.374 65.88C219.428 65.8 219.414 65.6933 219.334 65.56C219.281 65.4267 219.214 65.36 219.134 65.36H215.454C215.268 65.7067 215.028 66.1067 214.734 66.56C214.468 67.0133 214.214 67.4267 213.974 67.8H215.414C215.468 67.88 215.548 68.0133 215.654 68.2C215.788 68.36 215.921 68.5333 216.054 68.72C216.214 68.9067 216.361 69.0933 216.494 69.28C216.654 69.44 216.774 69.56 216.854 69.64C217.334 69.1867 217.788 68.68 218.214 68.12C218.668 67.5333 219.054 66.7867 219.374 65.88ZM203.974 64.16C203.974 64.0533 203.908 63.9467 203.774 63.84C203.668 63.7067 203.561 63.64 203.454 63.64H202.214V67.12H203.974V64.16ZM220.094 82.6C220.148 82.4933 220.148 82.4 220.094 82.32C220.068 82.2133 219.988 82.16 219.854 82.16H216.934C216.801 82.3733 216.601 82.6667 216.334 83.04C216.094 83.4133 215.881 83.7067 215.694 83.92H216.534C216.694 84.1333 216.934 84.4533 217.254 84.88C217.574 85.3067 217.814 85.6267 217.974 85.84C218.428 85.36 218.854 84.8267 219.254 84.24C219.654 83.6267 219.934 83.08 220.094 82.6ZM203.974 70.44H202.214V74.16H203.534C203.828 74.16 203.974 74 203.974 73.68V70.44ZM196.974 63.64H195.734C195.628 63.64 195.508 63.6933 195.374 63.8C195.268 63.9067 195.214 63.9867 195.214 64.04V67.12H196.974V63.64ZM196.974 70.44H195.214V73.68C195.214 73.8133 195.254 73.9333 195.334 74.04C195.441 74.12 195.548 74.16 195.654 74.16H196.974V70.44ZM266.814 62.08C266.521 63.84 266.161 65.5467 265.734 67.2C265.334 68.8533 264.894 70.5333 264.414 72.24H258.214C258.748 70.5867 259.254 68.92 259.734 67.24C260.214 65.56 260.588 63.84 260.854 62.08H266.814ZM245.054 72.24C244.548 70.5867 244.108 68.9067 243.734 67.2C243.361 65.4933 243.028 63.7867 242.734 62.08H248.454C248.748 63.84 249.094 65.56 249.494 67.24C249.894 68.8933 250.348 70.56 250.854 72.24H245.054ZM257.494 86.88V95.2H251.614V86.88H241.294V83.2H251.614V78.2H242.454V74.44H251.614V59.96H257.494V74.44H266.454V78.2H257.494V83.2H267.294V86.88H257.494ZM242.854 59.96C242.401 62.3333 241.841 64.6667 241.174 66.96C240.534 69.2533 239.814 71.5333 239.014 73.8H240.134V95.2H234.334V75.28H231.974C233.068 72.8533 233.988 70.36 234.734 67.8C235.481 65.24 236.134 62.6267 236.694 59.96H242.854Z" fill="#3E1EE6"/>
</g>
<defs>
<filter id="filter0_d_98_4332" x="4.00176" y="8.75397" width="126.813" height="97.861" filterUnits="userSpaceOnUse" color-interpolation-filters="sRGB">
<feFlood flood-opacity="0" result="BackgroundImageFix"/>
<feColorMatrix in="SourceAlpha" type="matrix" values="0 0 0 0 0 0 0 0 0 0 0 0 0 0 0 0 0 0 127 0" result="hardAlpha"/>
<feOffset dx="4" dy="6"/>
<feGaussianBlur stdDeviation="2.4"/>
<feComposite in2="hardAlpha" operator="out"/>
<feColorMatrix type="matrix" values="0 0 0 0 1 0 0 0 0 1 0 0 0 0 1 0 0 0 0.8 0"/>
<feBlend mode="screen" in2="BackgroundImageFix" result="effect1_dropShadow_98_4332"/>
<feBlend mode="normal" in="SourceGraphic" in2="effect1_dropShadow_98_4332" result="shape"/>
</filter>
<filter id="filter1_d_98_4332" x="149.054" y="9.84003" width="127.039" height="96.16" filterUnits="userSpaceOnUse" color-interpolation-filters="sRGB">
<feFlood flood-opacity="0" result="BackgroundImageFix"/>
<feColorMatrix in="SourceAlpha" type="matrix" values="0 0 0 0 0 0 0 0 0 0 0 0 0 0 0 0 0 0 127 0" result="hardAlpha"/>
<feOffset dx="4" dy="6"/>
<feGaussianBlur stdDeviation="2.4"/>
<feComposite in2="hardAlpha" operator="out"/>
<feColorMatrix type="matrix" values="0 0 0 0 1 0 0 0 0 1 0 0 0 0 1 0 0 0 0.8 0"/>
<feBlend mode="screen" in2="BackgroundImageFix" result="effect1_dropShadow_98_4332"/>
<feBlend mode="normal" in="SourceGraphic" in2="effect1_dropShadow_98_4332" result="shape"/>
</filter>
<linearGradient id="paint0_linear_98_4332" x1="144.48" y1="9.00208" x2="12.4707" y2="-7.20669" gradientUnits="userSpaceOnUse">
<stop stop-color="#FF8F08"/>
<stop offset="1" stop-color="#F73603"/>
</linearGradient>
</defs>
</svg>
