<svg width="318" height="107" viewBox="0 0 318 107" fill="none" xmlns="http://www.w3.org/2000/svg">
<g filter="url(#filter0_d_98_4362)">
<path d="M10.143 52.4861C11.3807 42.4056 13.4108 34.3024 16.2333 28.1765C19.0996 22.0119 22.7882 17.2624 27.2992 13.928C31.8492 10.5937 37.2492 8.92655 43.4992 8.92655C48.1086 8.92655 52.0373 9.85706 55.2854 11.7181C58.5382 13.5403 61.0832 16.1962 62.9204 19.6856C64.7623 23.1362 66.0207 27.3623 66.6957 32.3638C67.3754 37.3265 67.1964 44.034 66.1586 52.4861C64.9304 62.4891 62.9026 70.573 60.0754 76.7376C57.2529 82.8635 53.5643 87.613 49.0095 90.9861C44.4985 94.3204 39.0985 95.9876 32.8095 95.9876C24.5282 95.9876 18.3861 93.041 14.3831 87.1477C9.59026 80.0526 8.17686 68.4987 10.143 52.4861ZM20.9828 52.4861C19.2643 66.4826 19.76 75.8071 22.47 80.4597C25.2238 85.0734 29.0226 87.3803 33.8663 87.3803C38.7101 87.3803 43.0582 85.0541 46.9107 80.4015C50.8023 75.7489 53.605 66.4438 55.3187 52.4861C57.042 38.4509 56.5268 29.1264 53.773 24.5126C51.0582 19.8988 47.2399 17.5919 42.3181 17.5919C37.4743 17.5919 33.3572 19.6274 29.9667 23.6984C25.696 28.8938 22.7014 38.4897 20.9828 52.4861ZM74.5991 72.0269L85.3174 70.6311C85.8 76.5631 87.3247 80.8474 89.8916 83.4838C92.5023 86.0815 95.8976 87.3803 100.077 87.3803C105.038 87.3803 109.427 85.6744 113.245 82.2625C117.101 78.8506 119.339 74.6246 119.958 69.5843C120.548 64.7767 119.451 60.822 116.668 57.7203C113.89 54.5798 110.059 53.0096 105.176 53.0096C103.184 53.0096 100.656 53.3973 97.5921 54.1727L99.8922 44.9839C100.586 45.0614 101.147 45.1002 101.577 45.1002C106.069 45.1002 110.255 43.9371 114.135 41.6108C118.014 39.2845 120.251 35.6982 120.846 30.8517C121.317 27.0134 120.399 23.8341 118.092 21.314C115.784 18.7939 112.56 17.5338 108.419 17.5338C104.317 17.5338 100.742 18.8132 97.6937 21.3721C94.6452 23.9311 92.4161 27.7694 91.0064 32.8872L80.6881 31.0262C82.8388 24.0086 86.4349 18.5806 91.4765 14.7422C96.5229 10.8651 102.445 8.92655 109.241 8.92655C113.929 8.92655 118.122 9.9346 121.819 11.9507C125.522 13.928 128.196 16.642 129.843 20.0927C131.529 23.5433 132.134 27.2072 131.657 31.0844C131.205 34.7676 129.797 38.1214 127.434 41.1455C125.07 44.1697 121.826 46.5735 117.701 48.357C122.636 49.5201 126.284 51.9433 128.644 55.6266C131.009 59.2711 131.854 63.8461 131.178 69.3517C130.264 76.7958 126.753 83.1155 120.647 88.3109C114.545 93.4674 107.314 96.0457 98.9547 96.0457C91.4156 96.0457 85.4198 93.8164 80.9673 89.3577C76.5538 84.899 74.4311 79.122 74.5991 72.0269Z" fill="url(#paint0_linear_98_4362)"/>
</g>
<g filter="url(#filter1_d_98_4362)">
<path d="M178.494 25.0126C177.294 23.4126 176.174 21.7993 175.134 20.1726C174.121 18.5193 173.161 16.8259 172.254 15.0926C172.121 14.8793 171.934 14.7059 171.694 14.5726C171.481 14.4126 171.268 14.3326 171.054 14.3326H163.854C163.641 14.3326 163.441 14.4259 163.254 14.6126C163.068 14.7726 162.934 14.9326 162.854 15.0926C161.921 16.8526 160.948 18.5593 159.934 20.2126C158.948 21.8659 157.801 23.4659 156.494 25.0126H149.134C150.814 23.0926 152.334 21.0659 153.694 18.9326C155.081 16.7726 156.414 14.6259 157.694 12.4926C158.041 11.9059 158.561 11.4393 159.254 11.0926C159.894 10.7726 160.574 10.6126 161.294 10.6126H174.014C174.814 10.6126 175.548 10.8393 176.214 11.2926C176.748 11.6926 177.148 12.1193 177.414 12.5726C178.428 14.3593 179.574 16.2526 180.854 18.2526C182.161 20.2526 183.841 22.5059 185.894 25.0126H178.494ZM150.334 45.0126V41.2926H154.214V27.1326H160.254V41.2926H164.894V20.3326H171.014V28.8526H182.334V32.5326H171.014V41.2926H185.094V45.0126H150.334ZM224.814 11.2926C224.628 12.0659 224.401 12.8526 224.134 13.6526C223.868 14.4526 223.588 15.2259 223.294 15.9726H217.454C217.828 15.2526 218.161 14.4926 218.454 13.6926C218.748 12.8926 219.001 12.0926 219.214 11.2926H224.814ZM191.254 20.2126V16.8926H201.414V10.1726H207.174V16.8926H210.294V10.1726H216.054V16.8926H226.094V20.2126H191.254ZM194.134 15.9726C193.814 15.1993 193.521 14.4393 193.254 13.6926C193.014 12.9193 192.788 12.1193 192.574 11.2926H198.214C198.481 12.0926 198.761 12.8793 199.054 13.6526C199.348 14.4259 199.681 15.1993 200.054 15.9726H194.134ZM219.494 44.7726C218.561 43.9193 217.654 42.9993 216.774 42.0126C215.894 40.9993 215.108 39.9993 214.414 39.0126H221.414C222.241 40.0526 223.121 41.0659 224.054 42.0526C224.988 43.0393 225.988 43.9459 227.054 44.7726H219.494ZM211.814 37.7726V45.3326H205.774V37.7726H191.334V34.4926H205.774V32.4126H193.294V29.4126H205.774V27.3726H192.134V24.0526H199.974C199.441 23.7326 198.894 23.3193 198.334 22.8126C197.774 22.3059 197.308 21.8126 196.934 21.3326H203.494C203.921 21.8393 204.428 22.3326 205.014 22.8126C205.601 23.2926 206.161 23.7059 206.694 24.0526H211.174C211.601 23.7593 212.121 23.3593 212.734 22.8526C213.348 22.3193 213.828 21.8126 214.174 21.3326H220.614C220.241 21.8393 219.761 22.3326 219.174 22.8126C218.588 23.2659 218.028 23.6793 217.494 24.0526H225.334V27.3726H211.814V29.4126H224.294V32.4526H211.814V34.4926H226.214V37.7726H211.814ZM203.054 39.0126C202.334 40.0259 201.534 41.0259 200.654 42.0126C199.801 42.9993 198.894 43.9193 197.934 44.7726H190.614C191.574 43.9193 192.534 42.9993 193.494 42.0126C194.481 41.0259 195.401 40.0259 196.254 39.0126H203.054ZM264.574 17.2526C264.574 18.2659 264.308 19.0393 263.774 19.5726C263.268 20.0793 262.561 20.3326 261.654 20.3326H237.694C237.321 20.3326 236.974 20.2659 236.654 20.1326C236.334 19.9726 236.041 19.7726 235.774 19.5326C235.161 18.9726 234.854 18.2793 234.854 17.4526V13.2526C234.854 12.2126 235.121 11.4526 235.654 10.9726C236.188 10.4926 236.894 10.2526 237.774 10.2526H261.614C262.548 10.2526 263.268 10.5459 263.774 11.1326C264.308 11.7459 264.574 12.5459 264.574 13.5326V17.2526ZM266.174 35.7326C266.174 36.2126 266.081 36.6659 265.894 37.0926C265.708 37.4926 265.468 37.8393 265.174 38.1326C264.881 38.4259 264.534 38.6526 264.134 38.8126C263.734 38.9726 263.308 39.0526 262.854 39.0526H237.694C237.028 39.0526 236.428 38.9726 235.894 38.8126C235.361 38.6526 234.908 38.3993 234.534 38.0526C233.841 37.4126 233.494 36.4926 233.494 35.2926V25.6926C233.494 24.6526 233.801 23.7993 234.414 23.1326C235.054 22.4393 235.868 22.0926 236.854 22.0926H262.254C262.868 22.0926 263.414 22.2126 263.894 22.4526C264.401 22.6659 264.841 22.9593 265.214 23.3326C265.854 24.0526 266.174 24.9459 266.174 26.0126V35.7326ZM260.214 45.3726C258.748 44.6793 257.361 43.8926 256.054 43.0126C254.748 42.1059 253.508 41.1726 252.334 40.2126H259.934C260.441 40.6126 261.028 41.0526 261.694 41.5326C262.388 42.0126 263.094 42.4793 263.814 42.9326C264.561 43.3859 265.308 43.8259 266.054 44.2526C266.801 44.6793 267.508 45.0526 268.174 45.3726H260.214ZM247.294 40.1326C246.308 41.0659 245.174 42.0126 243.894 42.9726C242.614 43.9326 241.281 44.7326 239.894 45.3726H231.374C233.214 44.5193 234.854 43.6393 236.294 42.7326C237.761 41.8259 239.001 40.9593 240.014 40.1326H247.294ZM258.574 14.2926C258.574 14.0793 258.494 13.9059 258.334 13.7726C258.174 13.6126 258.001 13.5326 257.814 13.5326H241.454C241.294 13.5326 241.148 13.5859 241.014 13.6926C240.881 13.7726 240.814 13.8926 240.814 14.0526V16.4126C240.814 16.5993 240.894 16.7593 241.054 16.8926C241.241 17.0259 241.428 17.0926 241.614 17.0926H257.774C258.308 17.0926 258.574 16.8526 258.574 16.3726V14.2926ZM260.254 26.0526C260.254 25.8659 260.188 25.7059 260.054 25.5726C259.921 25.4393 259.774 25.3726 259.614 25.3726H240.174C239.961 25.3726 239.774 25.4393 239.614 25.5726C239.481 25.7059 239.414 25.8793 239.414 26.0926V26.8526H260.254V26.0526ZM260.254 29.7726H239.414V31.3326H260.254V29.7726ZM260.254 34.1726H239.414V34.7326C239.414 35.4793 239.748 35.8526 240.414 35.8526H259.494C259.708 35.8526 259.881 35.7593 260.014 35.5726C260.174 35.3593 260.254 35.1326 260.254 34.8926V34.1726ZM273.334 44.3726V40.6126H287.534V14.9726H274.654V11.2526H306.694V14.9726H293.774V40.6126H308.054V44.3726H273.334ZM181.414 84.1326V85.4926H185.134V88.8126H181.414V92.1726C181.414 92.6793 181.334 93.1193 181.174 93.4926C181.014 93.8659 180.801 94.1859 180.534 94.4526C180.241 94.7726 179.881 95.0126 179.454 95.1726C179.028 95.3326 178.574 95.4126 178.094 95.4126H168.574L167.254 92.0526H174.574C174.814 92.0526 175.028 91.9726 175.214 91.8126C175.428 91.6526 175.534 91.4393 175.534 91.1726V88.8126H150.334V85.4926H175.534V83.9726H178.814C178.521 83.4393 178.228 82.8926 177.934 82.3326C177.668 81.7459 177.401 81.1859 177.134 80.6526L176.294 83.0126C171.948 83.1459 167.628 83.2393 163.334 83.2926C159.041 83.3459 154.708 83.3593 150.334 83.3326V80.0126C152.761 80.1193 155.161 80.1726 157.534 80.1726C159.908 80.1459 162.308 80.1059 164.734 80.0526V77.6526H155.214C154.254 77.6526 153.481 77.3859 152.894 76.8526C152.334 76.3193 152.054 75.5859 152.054 74.6526V69.7326C152.054 68.6393 152.388 67.8259 153.054 67.2926C153.694 66.8126 154.548 66.5726 155.614 66.5726H164.734V64.8926H150.254V61.7326H164.734V59.8526H170.734V61.7326H185.054V64.8926H170.734V66.5726H179.894C181.041 66.5726 181.894 66.8659 182.454 67.4526C182.934 67.9326 183.174 68.6259 183.174 69.5326V74.7726C183.174 75.1993 183.094 75.5859 182.934 75.9326C182.774 76.2793 182.561 76.5726 182.294 76.8126C181.708 77.3726 180.961 77.6526 180.054 77.6526H170.734V80.0526C171.748 80.0259 172.748 79.9993 173.734 79.9726C174.748 79.9459 175.761 79.9059 176.774 79.8526C176.694 79.6393 176.614 79.4393 176.534 79.2526C176.454 79.0393 176.401 78.8126 176.374 78.5726H182.534C182.934 79.5326 183.374 80.4793 183.854 81.4126C184.361 82.3459 184.921 83.2526 185.534 84.1326H181.414ZM158.014 94.4526C157.268 94.0526 156.428 93.4259 155.494 92.5726C154.561 91.7193 153.641 90.8659 152.734 90.0126H160.734C161.561 90.7593 162.481 91.5326 163.494 92.3326C164.508 93.1059 165.628 93.8126 166.854 94.4526H158.014ZM177.334 70.2126C177.334 70.0526 177.281 69.9059 177.174 69.7726C177.094 69.6126 176.948 69.5326 176.734 69.5326H170.734V70.8926H177.334V70.2126ZM177.334 73.2526H170.734V74.6926H176.494C176.708 74.6926 176.894 74.6259 177.054 74.4926C177.241 74.3326 177.334 74.1326 177.334 73.8926V73.2526ZM164.734 69.5326H158.694C158.534 69.5326 158.361 69.6126 158.174 69.7726C158.014 69.9326 157.934 70.0926 157.934 70.2526V70.8926H164.734V69.5326ZM164.734 73.2526H157.934V74.0526C157.934 74.2659 157.988 74.4259 158.094 74.5326C158.228 74.6393 158.374 74.6926 158.534 74.6926H164.734V73.2526ZM225.374 67.7726C225.001 68.1459 224.574 68.5193 224.094 68.8926C223.641 69.2659 223.188 69.5993 222.734 69.8926H215.614C216.094 69.5993 216.588 69.2659 217.094 68.8926C217.628 68.5193 218.108 68.1459 218.534 67.7726H225.374ZM219.254 73.2126C218.721 72.8926 218.174 72.5459 217.614 72.1726C217.081 71.7726 216.561 71.3193 216.054 70.8126H222.934C223.468 71.2659 224.041 71.7059 224.654 72.1326C225.294 72.5326 225.921 72.8926 226.534 73.2126H219.254ZM209.094 72.9326V67.8926H214.694V72.9326H209.094ZM201.534 69.8926C200.548 69.2793 199.654 68.5726 198.854 67.7726H205.654C206.054 68.1459 206.481 68.5059 206.934 68.8526C207.414 69.1726 207.921 69.5193 208.454 69.8926H201.534ZM207.934 70.8126C207.508 71.2393 207.054 71.6526 206.574 72.0526C206.121 72.4526 205.668 72.8393 205.214 73.2126H198.414C198.948 72.8393 199.481 72.4659 200.014 72.0926C200.548 71.6926 201.081 71.2659 201.614 70.8126H207.934ZM226.094 92.4526C226.094 93.3326 225.814 94.0526 225.254 94.6126C224.668 95.1993 223.934 95.4926 223.054 95.4926H219.334L218.854 94.6526H215.894C215.788 94.4926 215.681 94.3326 215.574 94.1726C215.494 94.0126 215.428 93.8659 215.374 93.7326C212.628 93.9193 209.814 94.0659 206.934 94.1726C204.054 94.2793 201.241 94.3593 198.494 94.4126V91.8926C199.774 91.8926 201.121 91.8926 202.534 91.8926C203.948 91.8659 205.321 91.8126 206.654 91.7326V90.0926H201.494C200.881 90.0926 200.374 89.8659 199.974 89.4126C199.814 89.2259 199.681 89.0259 199.574 88.8126C199.468 88.5726 199.414 88.3193 199.414 88.0526V86.9326C199.414 86.6926 199.441 86.4526 199.494 86.2126C199.574 85.9726 199.654 85.7459 199.734 85.5326H197.534C197.428 87.2126 197.294 88.8526 197.134 90.4526C197.001 92.0526 196.748 93.6793 196.374 95.3326H190.494C190.734 94.4793 190.934 93.5459 191.094 92.5326C191.281 91.5193 191.441 90.5059 191.574 89.4926C191.708 88.4526 191.801 87.4393 191.854 86.4526C191.934 85.4393 191.974 84.5059 191.974 83.6526V63.4926C191.974 63.0659 192.054 62.6659 192.214 62.2926C192.401 61.9193 192.641 61.5859 192.934 61.2926C193.654 60.5726 194.508 60.2126 195.494 60.2126H223.134C223.828 60.2126 224.388 60.4526 224.814 60.9326C225.214 61.3593 225.414 61.8793 225.414 62.4926V64.3726C225.414 65.0659 225.228 65.6259 224.854 66.0526C224.454 66.5593 223.828 66.8126 222.974 66.8126H197.654V84.5726C198.348 83.8526 199.001 83.1059 199.614 82.3326C200.254 81.5326 200.841 80.7059 201.374 79.8526C200.708 79.7726 200.188 79.5193 199.814 79.0926C199.441 78.6659 199.254 78.1326 199.254 77.4926V76.0926C199.254 75.7193 199.334 75.4126 199.494 75.1726C199.654 74.9059 199.868 74.6793 200.134 74.4926C200.668 74.1726 201.214 74.0126 201.774 74.0126H223.174C223.814 74.0126 224.348 74.2526 224.774 74.7326C225.201 75.1593 225.414 75.6259 225.414 76.1326V77.6126C225.414 77.9859 225.334 78.3059 225.174 78.5726C225.041 78.8393 224.854 79.0793 224.614 79.2926C224.108 79.6659 223.521 79.8526 222.854 79.8526H207.214C207.081 80.0659 206.921 80.3193 206.734 80.6126C206.574 80.8793 206.428 81.0926 206.294 81.2526H223.094C223.521 81.2526 223.908 81.3459 224.254 81.5326C224.628 81.7193 224.961 81.9593 225.254 82.2526C225.814 82.8126 226.094 83.4526 226.094 84.1726V92.4526ZM219.574 63.1326C219.574 62.8393 219.414 62.6926 219.094 62.6926H198.414C198.201 62.6926 198.014 62.7859 197.854 62.9726C197.721 63.1326 197.654 63.3059 197.654 63.4926V64.3726H219.134C219.428 64.3726 219.574 64.2126 219.574 63.8926V63.1326ZM220.014 76.5326C220.014 76.3193 219.881 76.2126 219.614 76.2126H218.014V77.7326H219.614C219.694 77.7326 219.774 77.6926 219.854 77.6126C219.961 77.5326 220.014 77.4393 220.014 77.3326V76.5326ZM213.214 76.2126H211.294V77.7326H213.214V76.2126ZM206.374 76.2126H204.894C204.654 76.2126 204.534 76.3193 204.534 76.5326V77.3326C204.534 77.5993 204.668 77.7326 204.934 77.7326H206.374V76.2126ZM220.534 84.2926C220.534 84.1593 220.454 84.0126 220.294 83.8526C220.134 83.6659 219.988 83.5726 219.854 83.5726H211.934V84.8926H216.854C217.094 84.8926 217.348 84.9326 217.614 85.0126C217.881 85.0926 218.121 85.2259 218.334 85.4126C218.548 85.5459 218.721 85.7326 218.854 85.9726C219.014 86.1859 219.094 86.4393 219.094 86.7326V88.4126C219.094 89.1059 218.761 89.6259 218.094 89.9726C218.254 90.4259 218.428 90.8659 218.614 91.2926C218.801 91.6926 219.014 92.0926 219.254 92.4926H219.974C220.134 92.4926 220.268 92.4259 220.374 92.2926C220.481 92.1593 220.534 92.0259 220.534 91.8926V84.2926ZM214.254 87.2126C214.254 86.9726 214.108 86.8526 213.814 86.8526H211.934V88.0926H213.814C214.108 88.0926 214.254 87.9593 214.254 87.6926V87.2126ZM213.854 90.0926H211.934V91.4526C212.228 91.4526 212.614 91.4393 213.094 91.4126C213.574 91.3859 213.961 91.3459 214.254 91.2926L213.854 90.0926ZM206.654 83.5726H204.654C204.521 83.7859 204.348 84.0259 204.134 84.2926C203.948 84.5326 203.788 84.7326 203.654 84.8926H206.654V83.5726ZM206.654 86.8526H204.734C204.628 86.8526 204.521 86.8793 204.414 86.9326C204.308 86.9859 204.254 87.0793 204.254 87.2126V87.6926C204.254 87.9593 204.388 88.0926 204.654 88.0926H206.654V86.8526ZM262.614 84.1726C262.108 83.3459 261.668 82.5326 261.294 81.7326C260.948 80.9326 260.628 80.0926 260.334 79.2126H262.254V78.0926C262.254 77.6393 262.014 77.4126 261.534 77.4126H258.374C258.588 77.8926 258.841 78.3859 259.134 78.8926C259.454 79.3993 259.761 79.8659 260.054 80.2926H255.174C254.881 79.8659 254.588 79.3993 254.294 78.8926C254.028 78.3593 253.801 77.8659 253.614 77.4126H247.494C247.281 77.4126 247.094 77.4793 246.934 77.6126C246.801 77.7459 246.734 77.9193 246.734 78.1326V79.3326H248.534C248.161 80.1859 247.748 81.0126 247.294 81.8126C246.868 82.6126 246.374 83.3993 245.814 84.1726H240.774C241.228 83.5859 241.668 82.9726 242.094 82.3326C242.521 81.6659 242.894 81.0126 243.214 80.3726H241.574V77.4526C241.574 76.7326 241.801 76.1193 242.254 75.6126C242.788 75.0793 243.428 74.7993 244.174 74.7726V67.5726C244.174 66.6659 244.414 65.9593 244.894 65.4526C245.374 64.8393 246.121 64.5326 247.134 64.5326H250.734C250.841 64.3193 250.934 64.0926 251.014 63.8526C251.121 63.6126 251.214 63.3726 251.294 63.1326H243.214V60.3726H267.094V63.1326H257.094C256.934 63.6393 256.734 64.1059 256.494 64.5326H262.094C262.468 64.5326 262.841 64.6126 263.214 64.7726C263.588 64.9059 263.908 65.1193 264.174 65.4126C264.388 65.6259 264.548 65.8659 264.654 66.1326C264.788 66.3993 264.854 66.6926 264.854 67.0126V74.6926C265.228 74.7726 265.574 74.8926 265.894 75.0526C266.241 75.2126 266.521 75.4259 266.734 75.6926C267.134 76.1193 267.334 76.6659 267.334 77.3326V80.2526H265.414C265.894 81.5593 266.548 82.8659 267.374 84.1726H262.614ZM257.734 95.3326C257.281 95.1459 256.814 94.9326 256.334 94.6926C255.881 94.4793 255.428 94.2526 254.974 94.0126C254.414 94.2793 253.854 94.5193 253.294 94.7326C252.734 94.9726 252.161 95.1726 251.574 95.3326H240.894C244.068 94.2126 247.188 92.9726 250.254 91.6126C249.961 91.4793 249.668 91.3193 249.374 91.1326C249.108 90.9459 248.828 90.7459 248.534 90.5326C248.428 90.6659 248.308 90.7993 248.174 90.9326C248.041 91.0659 247.908 91.1993 247.774 91.3326H241.214C242.414 90.1593 243.588 88.9193 244.734 87.6126C245.881 86.2793 246.948 84.9326 247.934 83.5726H250.134C249.841 83.3593 249.601 83.0926 249.414 82.7726C249.228 82.4259 249.134 82.0659 249.134 81.6926V78.5726H253.814V80.9326C253.814 81.0926 253.894 81.2526 254.054 81.4126C254.214 81.5459 254.361 81.6126 254.494 81.6126H260.854L260.014 84.0526H253.654C253.521 84.2659 253.374 84.4926 253.214 84.7326C253.054 84.9459 252.881 85.1459 252.694 85.3326H262.694C263.068 85.3326 263.388 85.4526 263.654 85.6926C263.948 85.9059 264.161 86.1726 264.294 86.4926C264.428 86.8393 264.468 87.1993 264.414 87.5726C264.388 87.9193 264.228 88.2393 263.934 88.5326C263.268 89.1726 262.561 89.7326 261.814 90.2126C261.094 90.6926 260.334 91.1593 259.534 91.6126C260.841 92.3059 262.174 92.9593 263.534 93.5726C264.894 94.1859 266.281 94.7726 267.694 95.3326H257.734ZM242.814 60.0126C242.228 62.3859 241.561 64.7326 240.814 67.0526C240.094 69.3726 239.254 71.6526 238.294 73.8926H240.174V95.3726H234.174V75.5726H231.174C233.494 70.5593 235.268 65.3726 236.494 60.0126H242.814ZM259.374 67.7726C259.374 67.6393 259.294 67.5059 259.134 67.3726C259.001 67.2393 258.868 67.1726 258.734 67.1726H250.454C250.294 67.1726 250.134 67.2259 249.974 67.3326C249.814 67.4393 249.734 67.5859 249.734 67.7726V68.3326H259.374V67.7726ZM259.374 70.2926H249.734V71.3726H259.374V70.2926ZM259.374 73.5326H249.734V74.7726H259.374V73.5326ZM251.014 87.6526C250.881 87.8659 250.734 88.0659 250.574 88.2526C250.414 88.4393 250.254 88.6259 250.094 88.8126H254.014C254.148 88.8926 254.294 88.9859 254.454 89.0926C254.641 89.1726 254.801 89.2393 254.934 89.2926C255.388 89.0793 255.854 88.8259 256.334 88.5326C256.841 88.2393 257.308 87.9459 257.734 87.6526H251.014ZM301.894 85.0926C301.681 84.8793 301.468 84.6526 301.254 84.4126C301.068 84.1726 300.894 83.9326 300.734 83.6926C296.148 83.9059 291.548 84.0793 286.934 84.2126C282.348 84.3193 277.774 84.3726 273.214 84.3726V80.9326C275.668 80.9859 278.094 81.0126 280.494 81.0126C282.921 81.0126 285.348 80.9859 287.774 80.9326V78.7726H278.494C278.014 78.7726 277.548 78.6793 277.094 78.4926C276.641 78.3059 276.254 78.0126 275.934 77.6126C275.428 77.0259 275.174 76.2126 275.174 75.1726V70.1326C275.174 69.6793 275.254 69.2793 275.414 68.9326C275.574 68.5593 275.801 68.2259 276.094 67.9326C276.788 67.2926 277.614 66.9726 278.574 66.9726H287.774V65.2926H273.334V62.1726H287.774V60.0526H293.614V62.1726H308.094V65.2926H293.614V66.9726H302.854C303.948 66.9726 304.828 67.3059 305.494 67.9726C306.081 68.6126 306.374 69.4393 306.374 70.4526V75.3326C306.374 76.3193 306.068 77.1193 305.454 77.7326C304.761 78.4259 303.854 78.7726 302.734 78.7726H293.614V80.8126C293.908 80.8126 294.268 80.7993 294.694 80.7726C295.148 80.7459 295.601 80.7326 296.054 80.7326C296.534 80.7059 297.001 80.6793 297.454 80.6526C297.908 80.6259 298.308 80.6126 298.654 80.6126C298.388 80.2126 298.201 79.8659 298.094 79.5726H304.854C305.414 80.5059 306.001 81.4393 306.614 82.3726C307.228 83.3059 307.934 84.2126 308.734 85.0926H301.894ZM303.054 94.6926C302.388 93.3859 301.801 92.0526 301.294 90.6926C300.788 89.3326 300.334 87.9326 299.934 86.4926H305.734C306.134 87.9059 306.614 89.2926 307.174 90.6526C307.734 92.0126 308.348 93.3593 309.014 94.6926H303.054ZM291.614 90.5326C291.214 89.6526 290.854 88.7593 290.534 87.8526C290.241 86.9459 289.974 86.0259 289.734 85.0926H295.534C296.014 86.9326 296.708 88.7459 297.614 90.5326H291.614ZM299.814 95.3726H286.014C285.401 95.3726 284.868 95.2526 284.414 95.0126C283.988 94.7993 283.628 94.5059 283.334 94.1326C282.801 93.3859 282.534 92.4526 282.534 91.3326V85.5326H288.214V91.0526C288.214 91.2926 288.294 91.5193 288.454 91.7326C288.641 91.9193 288.868 92.0126 289.134 92.0126H300.774L299.814 95.3726ZM281.414 86.5326C281.041 87.9459 280.614 89.3326 280.134 90.6926C279.681 92.0526 279.148 93.3993 278.534 94.7326H272.574C273.188 93.4259 273.748 92.0926 274.254 90.7326C274.788 89.3459 275.228 87.9459 275.574 86.5326H281.414ZM300.494 70.4526C300.494 70.3193 300.414 70.1859 300.254 70.0526C300.121 69.9193 299.988 69.8526 299.854 69.8526H293.614V71.4126H300.494V70.4526ZM300.494 74.2926H293.614V75.8926H299.774C299.934 75.8926 300.094 75.8393 300.254 75.7326C300.414 75.5993 300.494 75.4526 300.494 75.2926V74.2926ZM287.774 69.8526H281.694C281.534 69.8526 281.361 69.9193 281.174 70.0526C281.014 70.1593 280.934 70.3059 280.934 70.4926V71.4126H287.774V69.8526ZM287.774 74.2926H280.934V75.2126C280.934 75.3459 281.001 75.4926 281.134 75.6526C281.294 75.8126 281.441 75.8926 281.574 75.8926H287.774V74.2926Z" fill="#3E1EE6"/>
</g>
<defs>
<filter id="filter0_d_98_4362" x="3.99492" y="8.92657" width="143.402" height="97.9191" filterUnits="userSpaceOnUse" color-interpolation-filters="sRGB">
<feFlood flood-opacity="0" result="BackgroundImageFix"/>
<feColorMatrix in="SourceAlpha" type="matrix" values="0 0 0 0 0 0 0 0 0 0 0 0 0 0 0 0 0 0 127 0" result="hardAlpha"/>
<feOffset dx="4" dy="6"/>
<feGaussianBlur stdDeviation="2.4"/>
<feComposite in2="hardAlpha" operator="out"/>
<feColorMatrix type="matrix" values="0 0 0 0 1 0 0 0 0 1 0 0 0 0 1 0 0 0 0.8 0"/>
<feBlend mode="screen" in2="BackgroundImageFix" result="effect1_dropShadow_98_4362"/>
<feBlend mode="normal" in="SourceGraphic" in2="effect1_dropShadow_98_4362" result="shape"/>
</filter>
<filter id="filter1_d_98_4362" x="148.334" y="10.1726" width="169.481" height="96.12" filterUnits="userSpaceOnUse" color-interpolation-filters="sRGB">
<feFlood flood-opacity="0" result="BackgroundImageFix"/>
<feColorMatrix in="SourceAlpha" type="matrix" values="0 0 0 0 0 0 0 0 0 0 0 0 0 0 0 0 0 0 127 0" result="hardAlpha"/>
<feOffset dx="4" dy="6"/>
<feGaussianBlur stdDeviation="2.4"/>
<feComposite in2="hardAlpha" operator="out"/>
<feColorMatrix type="matrix" values="0 0 0 0 1 0 0 0 0 1 0 0 0 0 1 0 0 0 0.8 0"/>
<feBlend mode="screen" in2="BackgroundImageFix" result="effect1_dropShadow_98_4362"/>
<feBlend mode="normal" in="SourceGraphic" in2="effect1_dropShadow_98_4362" result="shape"/>
</filter>
<linearGradient id="paint0_linear_98_4362" x1="144.48" y1="9.17468" x2="12.4707" y2="-7.03409" gradientUnits="userSpaceOnUse">
<stop stop-color="#FF8F08"/>
<stop offset="1" stop-color="#F73603"/>
</linearGradient>
</defs>
</svg>
