<svg width="318" height="107" viewBox="0 0 318 107" fill="none" xmlns="http://www.w3.org/2000/svg">
<g filter="url(#filter0_d_98_4347)">
<path d="M10.143 52.3998C11.3807 42.3193 13.4108 34.2161 16.2333 28.0902C19.0996 21.9256 22.7882 17.1761 27.2992 13.8417C31.8492 10.5074 37.2492 8.84024 43.4992 8.84024C48.1086 8.84024 52.0373 9.77075 55.2854 11.6318C58.5382 13.454 61.0832 16.1099 62.9204 19.5993C64.7623 23.0499 66.0207 27.276 66.6957 32.2775C67.3754 37.2402 67.1964 43.9477 66.1586 52.3998C64.9304 62.4028 62.9026 70.4867 60.0754 76.6513C57.2529 82.7772 53.5643 87.5267 49.0095 90.8998C44.4985 94.2341 39.0985 95.9013 32.8095 95.9013C24.5282 95.9013 18.3861 92.9547 14.3831 87.0614C9.59026 79.9663 8.17686 68.4124 10.143 52.3998ZM20.9828 52.3998C19.2643 66.3963 19.76 75.7208 22.47 80.3734C25.2238 84.9871 29.0226 87.294 33.8663 87.294C38.7101 87.294 43.0582 84.9678 46.9107 80.3152C50.8023 75.6626 53.605 66.3575 55.3187 52.3998C57.042 38.3646 56.5268 29.0401 53.773 24.4263C51.0582 19.8125 47.2399 17.5056 42.3181 17.5056C37.4743 17.5056 33.3572 19.5411 29.9667 23.6121C25.696 28.8075 22.7014 38.4034 20.9828 52.3998ZM128.442 84.3862L127.207 94.4473H70.4294C70.6607 91.9272 71.3684 89.504 72.5525 87.1777C74.4691 83.3394 77.2379 79.5592 80.859 75.8371C84.5191 72.1151 89.6569 67.8114 96.2724 62.9263C106.541 55.3271 113.588 49.3175 117.412 44.8976C121.24 40.4389 123.398 36.2322 123.883 32.2775C124.393 28.129 123.317 24.6396 120.657 21.8093C118.04 18.9402 114.33 17.5056 109.525 17.5056C104.447 17.5056 100.199 19.0177 96.7806 22.0419C93.3624 25.066 91.3053 29.2533 90.6093 34.6038L79.9051 33.4988C81.6327 25.4731 85.1755 19.3667 90.5334 15.1794C95.896 10.9533 102.659 8.84024 110.823 8.84024C119.066 8.84024 125.311 11.1084 129.558 15.6446C133.806 20.1809 135.518 25.8027 134.694 32.5101C134.276 35.922 133.161 39.2757 131.35 42.5713C129.539 45.8669 126.769 49.3369 123.04 52.9814C119.351 56.6259 113.326 61.6274 104.968 67.9859C97.992 73.2588 93.4891 76.8452 91.459 78.745C89.4336 80.606 87.7183 82.4864 86.3132 84.3862H128.442Z" fill="url(#paint0_linear_98_4347)"/>
</g>
<g filter="url(#filter1_d_98_4347)">
<path d="M184.094 34.0863C184.094 34.4596 183.988 34.8063 183.774 35.1263C183.588 35.4463 183.348 35.7396 183.054 36.0063C182.681 36.3263 182.281 36.5796 181.854 36.7663C181.428 36.953 181.001 37.0463 180.574 37.0463H170.774V45.3263H164.614V37.0463H154.854C154.241 37.0463 153.681 36.9263 153.174 36.6863C152.694 36.4196 152.294 36.0596 151.974 35.6063C151.708 35.233 151.494 34.8196 151.334 34.3663C151.201 33.913 151.134 33.4463 151.134 32.9663V18.4863C151.134 18.1663 151.241 17.8196 151.454 17.4463C151.668 17.0463 151.961 16.6996 152.334 16.4063C152.628 16.1396 152.948 15.9263 153.294 15.7663C153.668 15.6063 154.041 15.5263 154.414 15.5263H164.614V9.8863H170.774V15.5263H180.934C181.734 15.5263 182.454 15.873 183.094 16.5663C183.388 16.8863 183.628 17.2463 183.814 17.6463C184.001 18.0463 184.094 18.4596 184.094 18.8863V34.0863ZM177.974 20.3263C177.974 20.0063 177.894 19.753 177.734 19.5663C177.601 19.3796 177.428 19.2863 177.214 19.2863H170.774V33.2863H177.054C177.294 33.2863 177.508 33.2063 177.694 33.0463C177.881 32.8863 177.974 32.6996 177.974 32.4863V20.3263ZM164.614 19.2863H158.134C157.574 19.2863 157.294 19.593 157.294 20.2063V32.2863C157.294 32.5263 157.374 32.753 157.534 32.9663C157.721 33.1796 157.961 33.2863 158.254 33.2863H164.614V19.2863ZM220.894 39.6863C220.148 37.9263 219.481 36.0596 218.894 34.0863C218.308 32.113 217.788 30.113 217.334 28.0863C216.908 26.033 216.521 23.9796 216.174 21.9263C215.854 19.8463 215.561 17.833 215.294 15.8863H221.294C221.561 17.7796 221.881 19.753 222.254 21.8063C222.628 23.8596 223.068 25.9263 223.574 28.0063C224.081 30.0596 224.654 32.0863 225.294 34.0863C225.934 36.0596 226.654 37.9263 227.454 39.6863H220.894ZM211.894 41.8463C211.894 42.2996 211.788 42.7263 211.574 43.1263C211.361 43.553 211.094 43.9263 210.774 44.2463C210.454 44.5663 210.094 44.8196 209.694 45.0063C209.321 45.193 208.961 45.2863 208.614 45.2863H198.934L197.774 41.4463H204.974C205.134 41.4463 205.281 41.3796 205.414 41.2463C205.574 41.113 205.654 40.9796 205.654 40.8463V10.1263H211.894V41.8463ZM202.014 15.8863C201.508 19.9663 200.814 24.0063 199.934 28.0063C199.081 32.0063 197.868 35.8996 196.294 39.6863H189.774C190.521 38.033 191.201 36.2463 191.814 34.3263C192.454 32.4063 193.028 30.4196 193.534 28.3663C194.068 26.313 194.534 24.233 194.934 22.1263C195.361 19.993 195.748 17.913 196.094 15.8863H202.014ZM260.494 24.9263C259.294 23.3263 258.174 21.713 257.134 20.0863C256.121 18.433 255.161 16.7396 254.254 15.0063C254.121 14.793 253.934 14.6196 253.694 14.4863C253.481 14.3263 253.268 14.2463 253.054 14.2463H245.854C245.641 14.2463 245.441 14.3396 245.254 14.5263C245.068 14.6863 244.934 14.8463 244.854 15.0063C243.921 16.7663 242.948 18.473 241.934 20.1263C240.948 21.7796 239.801 23.3796 238.494 24.9263H231.134C232.814 23.0063 234.334 20.9796 235.694 18.8463C237.081 16.6863 238.414 14.5396 239.694 12.4063C240.041 11.8196 240.561 11.353 241.254 11.0063C241.894 10.6863 242.574 10.5263 243.294 10.5263H256.014C256.814 10.5263 257.548 10.753 258.214 11.2063C258.748 11.6063 259.148 12.033 259.414 12.4863C260.428 14.273 261.574 16.1663 262.854 18.1663C264.161 20.1663 265.841 22.4196 267.894 24.9263H260.494ZM232.334 44.9263V41.2063H236.214V27.0463H242.254V41.2063H246.894V20.2463H253.014V28.7663H264.334V32.4463H253.014V41.2063H267.094V44.9263H232.334ZM306.814 11.2063C306.628 11.9796 306.401 12.7663 306.134 13.5663C305.868 14.3663 305.588 15.1396 305.294 15.8863H299.454C299.828 15.1663 300.161 14.4063 300.454 13.6063C300.748 12.8063 301.001 12.0063 301.214 11.2063H306.814ZM273.254 20.1263V16.8063H283.414V10.0863H289.174V16.8063H292.294V10.0863H298.054V16.8063H308.094V20.1263H273.254ZM276.134 15.8863C275.814 15.113 275.521 14.353 275.254 13.6063C275.014 12.833 274.788 12.033 274.574 11.2063H280.214C280.481 12.0063 280.761 12.793 281.054 13.5663C281.348 14.3396 281.681 15.113 282.054 15.8863H276.134ZM301.494 44.6863C300.561 43.833 299.654 42.913 298.774 41.9263C297.894 40.913 297.108 39.913 296.414 38.9263H303.414C304.241 39.9663 305.121 40.9796 306.054 41.9663C306.988 42.953 307.988 43.8596 309.054 44.6863H301.494ZM293.814 37.6863V45.2463H287.774V37.6863H273.334V34.4063H287.774V32.3263H275.294V29.3263H287.774V27.2863H274.134V23.9663H281.974C281.441 23.6463 280.894 23.233 280.334 22.7263C279.774 22.2196 279.308 21.7263 278.934 21.2463H285.494C285.921 21.753 286.428 22.2463 287.014 22.7263C287.601 23.2063 288.161 23.6196 288.694 23.9663H293.174C293.601 23.673 294.121 23.273 294.734 22.7663C295.348 22.233 295.828 21.7263 296.174 21.2463H302.614C302.241 21.753 301.761 22.2463 301.174 22.7263C300.588 23.1796 300.028 23.593 299.494 23.9663H307.334V27.2863H293.814V29.3263H306.294V32.3663H293.814V34.4063H308.214V37.6863H293.814ZM285.054 38.9263C284.334 39.9396 283.534 40.9396 282.654 41.9263C281.801 42.913 280.894 43.833 279.934 44.6863H272.614C273.574 43.833 274.534 42.913 275.494 41.9263C276.481 40.9396 277.401 39.9396 278.254 38.9263H285.054ZM184.774 84.4463C184.774 85.7796 184.414 86.793 183.694 87.4863C183.054 88.1263 182.121 88.4463 180.894 88.4463H176.934V95.2863H171.454V88.4463H167.974C166.614 88.4463 165.561 88.1396 164.814 87.5263C164.068 86.8863 163.694 85.873 163.694 84.4863V69.1663C163.694 67.993 164.108 67.073 164.934 66.4063C165.628 65.8463 166.468 65.5663 167.454 65.5663H171.454V59.9263H176.934V65.5663H180.454C181.894 65.5663 182.988 65.9396 183.734 66.6863C184.428 67.3796 184.774 68.3263 184.774 69.5263V84.4463ZM160.014 84.5263C159.908 83.9396 159.801 83.2863 159.694 82.5663C159.588 81.8196 159.494 81.0596 159.414 80.2863C159.334 79.513 159.268 78.753 159.214 78.0063C159.161 77.233 159.121 76.5396 159.094 75.9263C159.041 76.0863 158.921 76.353 158.734 76.7263C158.548 77.073 158.401 77.3263 158.294 77.4863V95.2863H152.534V82.2863H149.054C150.654 79.993 152.094 77.6863 153.374 75.3663C154.681 73.0463 155.761 70.7263 156.614 68.4063C156.641 68.3263 156.614 68.2463 156.534 68.1663C156.454 68.0596 156.374 68.0063 156.294 68.0063H150.374V64.2863H153.294C153.108 63.6196 152.921 62.8996 152.734 62.1263C152.574 61.353 152.428 60.6196 152.294 59.9263H158.174C158.281 60.673 158.414 61.4196 158.574 62.1663C158.761 62.8863 158.961 63.6063 159.174 64.3263C160.481 64.3263 161.414 64.6463 161.974 65.2863C162.588 65.9263 162.668 66.953 162.214 68.3663C161.814 69.6463 161.361 70.913 160.854 72.1663C160.348 73.393 159.788 74.6063 159.174 75.8063H161.894C161.948 76.473 162.001 77.193 162.054 77.9663C162.108 78.713 162.174 79.473 162.254 80.2463C162.334 81.0196 162.428 81.7796 162.534 82.5263C162.641 83.2463 162.761 83.913 162.894 84.5263H160.014ZM179.534 70.3263C179.534 70.113 179.428 69.8863 179.214 69.6463C179.028 69.4063 178.814 69.2863 178.574 69.2863H176.934V75.4063H179.534V70.3263ZM171.454 69.2863H169.614C169.428 69.2863 169.254 69.3796 169.094 69.5663C168.961 69.753 168.894 69.9263 168.894 70.0863V75.4063H171.454V69.2863ZM179.534 79.0463H176.934V84.8063H178.814C178.974 84.8063 179.134 84.7263 179.294 84.5663C179.454 84.4063 179.534 84.2196 179.534 84.0063V79.0463ZM171.454 79.0463H168.894V83.8063C168.894 84.073 168.974 84.313 169.134 84.5263C169.321 84.713 169.508 84.8063 169.694 84.8063H171.454V79.0463ZM208.214 64.8063C207.841 64.033 207.481 63.2463 207.134 62.4463C206.788 61.6196 206.468 60.7796 206.174 59.9263H211.854C212.148 60.7796 212.481 61.633 212.854 62.4863C213.228 63.313 213.628 64.0863 214.054 64.8063H208.214ZM226.614 73.1663C226.294 74.5796 225.921 75.9796 225.494 77.3663C225.068 78.753 224.561 80.0863 223.974 81.3663H219.454C219.534 83.0463 219.561 84.6596 219.534 86.2063C219.534 87.753 219.508 89.3663 219.454 91.0463C219.374 92.273 218.974 93.2596 218.254 94.0063C217.454 94.8596 216.388 95.2863 215.054 95.2863H211.614L210.734 91.6063H212.774C213.068 91.6063 213.321 91.5263 213.534 91.3663C213.748 91.1796 213.868 90.9396 213.894 90.6463C214.054 89.0196 214.148 87.3663 214.174 85.6863C214.201 83.9796 214.161 82.2996 214.054 80.6463C214.001 79.793 213.788 78.8863 213.414 77.9263C213.041 76.9396 212.561 76.0996 211.974 75.4063C211.761 75.6463 211.548 75.873 211.334 76.0863C211.121 76.273 210.881 76.473 210.614 76.6863H203.294C204.574 75.6463 205.788 74.5396 206.934 73.3663C208.108 72.193 209.228 71.0063 210.294 69.8063H204.494V66.2063H215.934C216.521 65.193 217.054 64.1663 217.534 63.1263C218.014 62.0863 218.481 61.033 218.934 59.9663H225.094C224.641 61.033 224.161 62.0863 223.654 63.1263C223.148 64.1663 222.614 65.193 222.054 66.2063H226.294V69.8063H216.814C216.601 70.1263 216.348 70.473 216.054 70.8463C215.788 71.193 215.534 71.4996 215.294 71.7663C216.521 72.8863 217.428 74.1396 218.014 75.5263C218.601 76.913 219.028 78.3663 219.294 79.8863C219.748 78.793 220.161 77.6996 220.534 76.6063C220.908 75.513 221.268 74.3663 221.614 73.1663H226.614ZM222.054 93.5663C221.574 91.8863 221.174 90.1396 220.854 88.3263C220.534 86.513 220.268 84.6863 220.054 82.8463H225.014C225.228 84.6596 225.508 86.473 225.854 88.2863C226.201 90.073 226.574 91.833 226.974 93.5663H222.054ZM213.974 84.2063C213.654 84.873 213.254 85.633 212.774 86.4863C212.321 87.313 211.828 88.153 211.294 89.0063C210.761 89.833 210.214 90.6463 209.654 91.4463C209.094 92.2463 208.561 92.953 208.054 93.5663L201.854 93.5263C202.281 92.993 202.734 92.393 203.214 91.7263C203.694 91.033 204.188 90.3263 204.694 89.6063C205.201 88.8596 205.681 88.1263 206.134 87.4063C206.614 86.6596 207.041 85.953 207.414 85.2863H203.734C203.654 85.873 203.548 86.353 203.414 86.7263C203.281 87.073 203.028 87.4463 202.654 87.8463C202.308 88.2196 201.908 88.5263 201.454 88.7663C201.028 88.9796 200.508 89.0863 199.894 89.0863H197.534L196.774 86.2463V95.2463H191.254V63.1263C191.254 62.193 191.521 61.4596 192.054 60.9263C192.641 60.4196 193.468 60.1663 194.534 60.1663H201.534C202.548 60.1663 203.281 60.473 203.734 61.0863C204.188 61.6996 204.334 62.4996 204.174 63.4863C203.908 65.113 203.588 66.7263 203.214 68.3263C202.841 69.8996 202.441 71.433 202.014 72.9263C201.961 73.0863 201.934 73.313 201.934 73.6063C201.961 73.8996 202.001 74.1263 202.054 74.2863C202.374 75.113 202.641 75.873 202.854 76.5663C203.094 77.2596 203.294 77.953 203.454 78.6463C203.614 79.313 203.734 80.0196 203.814 80.7663C203.921 81.4863 204.001 82.2863 204.054 83.1663C204.668 82.313 205.214 81.4463 205.694 80.5663C206.201 79.6863 206.681 78.7796 207.134 77.8463L212.854 77.8863C212.401 78.9263 211.894 80.0063 211.334 81.1263C210.801 82.2463 210.214 83.273 209.574 84.2063H213.974ZM199.094 64.4063C199.121 64.273 199.081 64.1396 198.974 64.0063C198.894 63.873 198.788 63.8063 198.654 63.8063H197.454C197.268 63.8063 197.108 63.8596 196.974 63.9663C196.841 64.073 196.774 64.2196 196.774 64.4063V85.1663H198.054C198.534 85.1663 198.801 84.8996 198.854 84.3663C198.988 82.633 198.921 80.9796 198.654 79.4063C198.388 77.8063 198.001 76.2063 197.494 74.6063C197.388 74.2596 197.334 73.8996 197.334 73.5263C197.361 73.153 197.428 72.7796 197.534 72.4063C197.828 71.073 198.108 69.753 198.374 68.4463C198.641 67.113 198.881 65.7663 199.094 64.4063ZM259.014 95.2863C258.588 95.0196 258.121 94.713 257.614 94.3663C257.134 94.0196 256.641 93.6596 256.134 93.2863C255.628 92.913 255.134 92.5263 254.654 92.1263C254.174 91.7263 253.734 91.3396 253.334 90.9663C252.561 91.713 251.681 92.4596 250.694 93.2063C249.734 93.9796 248.761 94.673 247.774 95.2863H238.974C240.734 94.0596 242.548 92.7796 244.414 91.4463C246.308 90.113 248.014 88.753 249.534 87.3663C249.028 86.753 248.481 86.0863 247.894 85.3663C247.308 84.6463 246.721 83.913 246.134 83.1663C245.574 82.393 245.014 81.633 244.454 80.8863C243.921 80.1396 243.428 79.433 242.974 78.7663C242.628 81.993 242.001 85.0196 241.094 87.8463C240.214 90.6463 238.948 93.1263 237.294 95.2863H230.934C232.534 92.993 233.761 90.7396 234.614 88.5263C235.468 86.313 236.081 84.033 236.454 81.6863C236.614 80.6463 236.761 79.553 236.894 78.4063C237.028 77.233 237.134 76.0463 237.214 74.8463C237.321 73.6463 237.401 72.4596 237.454 71.2863C237.508 70.0863 237.534 68.9263 237.534 67.8063H232.254V64.0463H237.534V59.9263H243.654V64.0463H267.014V67.8063H243.654C243.654 68.0463 243.641 68.3663 243.614 68.7663C243.614 69.1663 243.601 69.5796 243.574 70.0063C243.548 70.433 243.521 70.8463 243.494 71.2463C243.494 71.6196 243.494 71.913 243.494 72.1263H262.374C263.068 72.1263 263.668 72.2596 264.174 72.5263C264.681 72.7663 265.081 73.0863 265.374 73.4863C265.881 74.3396 265.894 75.3263 265.414 76.4463C265.068 77.2463 264.574 78.1263 263.934 79.0863C263.321 80.0196 262.641 80.9663 261.894 81.9263C261.174 82.8863 260.414 83.8196 259.614 84.7263C258.814 85.633 258.054 86.4463 257.334 87.1663C258.961 88.7663 260.694 90.2463 262.534 91.6063C264.374 92.9396 266.254 94.1663 268.174 95.2863H259.014ZM259.054 76.4463C259.108 76.3663 259.108 76.2596 259.054 76.1263C259.028 75.993 258.961 75.913 258.854 75.8863H243.334C243.308 76.153 243.281 76.5396 243.254 77.0463C243.228 77.553 243.188 77.9663 243.134 78.2863H249.494C249.654 78.5796 249.894 78.953 250.214 79.4063C250.534 79.833 250.868 80.2863 251.214 80.7663C251.588 81.2463 251.961 81.7263 252.334 82.2063C252.734 82.6596 253.094 83.0463 253.414 83.3663C254.428 82.2996 255.441 81.1796 256.454 80.0063C257.494 78.833 258.361 77.6463 259.054 76.4463Z" fill="#3E1EE6"/>
</g>
<defs>
<filter id="filter0_d_98_4347" x="4.00176" y="8.84024" width="142.516" height="97.861" filterUnits="userSpaceOnUse" color-interpolation-filters="sRGB">
<feFlood flood-opacity="0" result="BackgroundImageFix"/>
<feColorMatrix in="SourceAlpha" type="matrix" values="0 0 0 0 0 0 0 0 0 0 0 0 0 0 0 0 0 0 127 0" result="hardAlpha"/>
<feOffset dx="4" dy="6"/>
<feGaussianBlur stdDeviation="2.4"/>
<feComposite in2="hardAlpha" operator="out"/>
<feColorMatrix type="matrix" values="0 0 0 0 1 0 0 0 0 1 0 0 0 0 1 0 0 0 0.8 0"/>
<feBlend mode="screen" in2="BackgroundImageFix" result="effect1_dropShadow_98_4347"/>
<feBlend mode="normal" in="SourceGraphic" in2="effect1_dropShadow_98_4347" result="shape"/>
</filter>
<filter id="filter1_d_98_4347" x="148.254" y="9.88631" width="169.6" height="96.2" filterUnits="userSpaceOnUse" color-interpolation-filters="sRGB">
<feFlood flood-opacity="0" result="BackgroundImageFix"/>
<feColorMatrix in="SourceAlpha" type="matrix" values="0 0 0 0 0 0 0 0 0 0 0 0 0 0 0 0 0 0 127 0" result="hardAlpha"/>
<feOffset dx="4" dy="6"/>
<feGaussianBlur stdDeviation="2.4"/>
<feComposite in2="hardAlpha" operator="out"/>
<feColorMatrix type="matrix" values="0 0 0 0 1 0 0 0 0 1 0 0 0 0 1 0 0 0 0.8 0"/>
<feBlend mode="screen" in2="BackgroundImageFix" result="effect1_dropShadow_98_4347"/>
<feBlend mode="normal" in="SourceGraphic" in2="effect1_dropShadow_98_4347" result="shape"/>
</filter>
<linearGradient id="paint0_linear_98_4347" x1="144.48" y1="9.08838" x2="12.4707" y2="-7.12039" gradientUnits="userSpaceOnUse">
<stop stop-color="#FF8F08"/>
<stop offset="1" stop-color="#F73603"/>
</linearGradient>
</defs>
</svg>
