<svg width="477" height="121" viewBox="0 0 477 121" fill="none" xmlns="http://www.w3.org/2000/svg">
<g filter="url(#filter0_d_320_54)">
<path d="M11.0717 62.7553C12.4125 51.8347 14.6118 43.0563 17.6695 36.4199C20.7747 29.7415 24.7707 24.5963 29.6576 20.9841C34.5868 17.3719 40.4368 15.5658 47.2076 15.5658C52.2011 15.5658 56.4572 16.5738 59.9759 18.5899C63.4998 20.564 66.2569 23.4412 68.2472 27.2214C70.2426 30.9596 71.6059 35.5378 72.3371 40.9561C73.0735 46.3324 72.8795 53.5988 71.7553 62.7553C70.4247 73.5919 68.228 82.3494 65.1652 89.0277C62.1075 95.6641 58.1115 100.809 53.1771 104.464C48.2902 108.076 42.4402 109.882 35.6271 109.882C26.6557 109.882 20.0017 106.69 15.6652 100.305C10.4729 92.6189 8.94173 80.1023 11.0717 62.7553ZM22.8148 62.7553C20.9531 77.9181 21.4901 88.0197 24.4259 93.06C27.4092 98.0582 31.5246 100.557 36.772 100.557C42.0194 100.557 46.7298 98.0372 50.9034 92.997C55.1193 87.9567 58.1555 77.8761 60.0121 62.7553C61.879 47.5505 61.3208 37.4489 58.3375 32.4507C55.3966 27.4524 51.2601 24.9533 45.928 24.9533C40.6806 24.9533 36.2204 27.1584 32.5474 31.5686C27.9208 37.1969 24.6766 47.5925 22.8148 62.7553ZM120.879 108.307H109.453L118.326 36.0419C115.256 38.646 111.318 41.2502 106.513 43.8543C101.749 46.4584 97.5106 48.4115 93.796 49.7136L95.1421 38.751C101.898 35.7689 107.928 32.1567 113.23 27.9144C118.533 23.6722 122.424 19.556 124.903 15.5658H132.266L120.879 108.307Z" fill="url(#paint0_linear_320_54)"/>
</g>
<g filter="url(#filter1_d_320_54)">
<path d="M206.143 51.54V59.76H215.443C217.403 59.76 218.883 60.3 219.883 61.38C220.763 62.34 221.203 63.62 221.203 65.22V75.66C221.203 77.18 220.723 78.46 219.763 79.5C218.803 80.46 217.583 80.94 216.103 80.94H189.943C188.223 80.94 186.863 80.48 185.863 79.56C184.743 78.56 184.183 77.1 184.183 75.18V65.22C184.183 63.34 184.743 61.9 185.863 60.9C186.823 60.14 188.003 59.76 189.403 59.76H197.143V40.44H206.143V45.96H223.243V51.54H206.143ZM182.623 38.46C182.303 38.46 182.043 38.62 181.843 38.94C181.683 39.22 181.603 39.5 181.603 39.78V64.56C181.603 67.52 181.463 70.34 181.183 73.02C180.903 75.7 180.363 78.46 179.563 81.3H170.563C171.283 78.3 171.803 75.24 172.123 72.12C172.483 69 172.663 65.56 172.663 61.8V38.58C172.663 36.62 173.283 35.12 174.523 34.08C175.483 33.24 176.783 32.82 178.423 32.82H194.743C194.503 32.26 194.223 31.52 193.903 30.6C193.583 29.64 193.323 28.86 193.123 28.26H203.443C204.003 29.98 204.723 31.5 205.603 32.82H223.783V38.46H182.623ZM212.383 66.36C212.383 66.12 212.263 65.88 212.023 65.64C211.783 65.4 211.543 65.28 211.303 65.28H194.263C193.983 65.28 193.743 65.4 193.543 65.64C193.343 65.88 193.243 66.1 193.243 66.3V74.16C193.243 74.4 193.383 74.64 193.663 74.88C193.943 75.12 194.203 75.24 194.443 75.24H211.303C211.583 75.24 211.823 75.14 212.023 74.94C212.263 74.7 212.383 74.42 212.383 74.1V66.36ZM257.423 69.06C254.943 71.42 252.643 73.54 250.523 75.42C248.403 77.3 246.383 79 244.463 80.52H230.663C231.983 79.68 233.483 78.66 235.163 77.46C236.883 76.22 238.623 74.92 240.383 73.56C242.143 72.2 243.843 70.84 245.483 69.48C247.163 68.08 248.643 66.82 249.923 65.7H257.363C257.483 62.74 257.363 60.24 257.003 58.2C256.763 57.04 256.423 56.08 255.983 55.32C255.543 54.52 254.963 53.92 254.243 53.52C253.563 53.96 252.763 54.46 251.843 55.02C250.963 55.58 250.183 56.06 249.503 56.46H231.563C235.043 55.38 238.283 54.08 241.283 52.56C244.283 51.04 247.043 49.44 249.563 47.76H242.783V42.48H274.043V47.76H262.283C262.043 48 261.823 48.22 261.623 48.42C261.423 48.62 261.163 48.82 260.843 49.02C262.123 49.78 263.063 50.84 263.663 52.2C264.263 53.56 264.723 55.1 265.043 56.82C265.283 58.22 265.483 59.76 265.643 61.44C265.803 63.08 265.883 64.76 265.883 66.48C265.923 68.16 265.883 69.84 265.763 71.52C265.683 73.2 265.523 74.76 265.283 76.2C265.123 77.16 264.823 77.96 264.383 78.6C263.983 79.28 263.463 79.82 262.823 80.22C262.143 80.66 261.363 80.98 260.483 81.18C259.643 81.38 258.743 81.48 257.783 81.48H251.963L250.163 75.96H254.663C256.143 75.96 256.943 75.26 257.063 73.86C257.143 73.3 257.203 72.6 257.243 71.76C257.323 70.92 257.383 70.02 257.423 69.06ZM276.083 45.54V39.66C276.083 39.34 275.943 39.06 275.663 38.82C275.423 38.54 275.143 38.4 274.823 38.4H242.063C241.743 38.4 241.423 38.54 241.103 38.82C240.823 39.1 240.683 39.4 240.683 39.72V45.66H232.103V37.74C232.103 36.38 232.543 35.3 233.423 34.5C233.863 34.06 234.403 33.72 235.043 33.48C235.683 33.24 236.343 33.12 237.023 33.12H253.523C253.403 32.8 253.263 32.42 253.103 31.98C252.983 31.54 252.843 31.1 252.683 30.66C252.563 30.22 252.443 29.8 252.323 29.4C252.203 28.96 252.103 28.6 252.023 28.32H262.103C262.183 28.6 262.283 28.96 262.403 29.4C262.523 29.8 262.643 30.24 262.763 30.72C262.923 31.16 263.063 31.6 263.183 32.04C263.343 32.44 263.483 32.8 263.603 33.12H278.843C280.923 33.12 282.423 33.64 283.343 34.68C284.103 35.6 284.483 37.02 284.483 38.94V45.54H276.083ZM282.923 50.7C282.123 52.66 281.243 54.5 280.283 56.22C279.363 57.9 278.203 59.62 276.803 61.38H266.603C268.123 59.5 269.423 57.7 270.503 55.98C271.583 54.22 272.583 52.46 273.503 50.7H282.923ZM275.243 79.8C273.763 77.44 272.283 74.82 270.803 71.94C269.363 69.02 268.103 66.22 267.023 63.54H276.863C277.903 66.06 279.183 68.74 280.703 71.58C282.223 74.42 283.883 77.16 285.683 79.8H275.243ZM255.983 58.26C254.143 60.02 252.143 61.82 249.983 63.66C247.823 65.46 245.783 67 243.863 68.28H230.663C233.383 66.64 235.943 64.98 238.343 63.3C240.743 61.58 242.963 59.9 245.003 58.26H255.983ZM334.983 58.56V75.66C334.983 77.18 334.543 78.44 333.663 79.44C332.703 80.52 331.423 81.06 329.823 81.06H321.663L319.683 75.6H325.023C325.343 75.6 325.603 75.48 325.803 75.24C326.043 75 326.163 74.7 326.163 74.34V58.56H315.723V52.92H326.163V46.74C327.843 44.9 329.403 43.06 330.843 41.22C332.283 39.34 333.643 37.42 334.923 35.46C335.003 35.34 335.003 35.2 334.923 35.04C334.883 34.88 334.763 34.8 334.563 34.8H316.323V29.22H340.263C341.103 29.22 341.863 29.4 342.543 29.76C343.223 30.12 343.783 30.6 344.223 31.2C344.703 31.88 344.983 32.64 345.063 33.48C345.143 34.28 344.963 35.12 344.523 36C343.883 37.2 343.163 38.4 342.363 39.6C341.603 40.8 340.803 41.96 339.963 43.08C339.163 44.2 338.323 45.28 337.443 46.32C336.603 47.36 335.783 48.3 334.983 49.14V52.92H346.023V58.56H334.983ZM308.223 79.62C307.823 79.22 307.403 78.78 306.963 78.3C306.563 77.82 306.203 77.36 305.883 76.92C305.443 77.64 304.983 78.36 304.503 79.08C304.023 79.84 303.523 80.56 303.003 81.24H292.683C294.163 79.44 295.563 77.6 296.883 75.72C298.243 73.84 299.483 71.92 300.603 69.96C299.643 68.72 298.643 67.44 297.603 66.12C296.603 64.76 295.703 63.42 294.903 62.1C294.423 61.26 294.083 60.36 293.883 59.4C293.723 58.44 293.763 57.42 294.003 56.34C294.443 54.3 294.863 52.24 295.263 50.16C295.703 48.04 296.103 45.94 296.463 43.86H292.923V38.22H297.363C297.683 36.54 297.963 34.88 298.203 33.24C298.443 31.6 298.663 29.94 298.863 28.26H307.323C307.083 29.94 306.843 31.6 306.603 33.24C306.363 34.88 306.103 36.54 305.823 38.22H310.623C312.303 38.22 313.563 38.56 314.403 39.24C315.523 40.12 316.023 41.54 315.903 43.5C315.743 45.66 315.503 47.88 315.183 50.16C314.863 52.44 314.463 54.7 313.983 56.94C313.503 59.14 312.923 61.3 312.243 63.42C311.603 65.5 310.863 67.44 310.023 69.24C311.303 71.04 312.683 72.8 314.163 74.52C315.643 76.24 317.143 77.94 318.663 79.62H308.223ZM307.683 44.82C307.683 44.54 307.563 44.32 307.323 44.16C307.083 43.96 306.863 43.86 306.663 43.86H304.863C304.503 46.1 304.103 48.28 303.663 50.4C303.263 52.48 302.823 54.58 302.343 56.7C302.263 57.02 302.223 57.38 302.223 57.78C302.263 58.18 302.363 58.52 302.523 58.8C302.803 59.32 303.103 59.8 303.423 60.24C303.783 60.68 304.143 61.12 304.503 61.56C305.343 58.84 306.023 56.12 306.543 53.4C307.063 50.68 307.443 47.82 307.683 44.82ZM406.303 63.18C405.583 65.02 404.623 66.8 403.423 68.52C402.223 70.24 400.903 71.88 399.463 73.44C398.023 74.96 396.483 76.38 394.843 77.7C393.243 79.02 391.623 80.2 389.983 81.24H377.323C377.923 80.88 378.403 80.56 378.763 80.28C379.163 80 379.543 79.7 379.903 79.38H373.423C372.903 77.34 372.503 75.28 372.223 73.2C371.943 71.08 371.763 68.9 371.683 66.66H377.683C377.883 68.82 378.163 70.94 378.523 73.02C378.923 75.1 379.463 77.16 380.143 79.2C381.663 78.24 383.123 77.24 384.523 76.2C385.963 75.16 387.383 73.98 388.783 72.66C388.103 71.74 387.423 70.84 386.743 69.96C386.103 69.08 385.463 68.2 384.823 67.32H378.643C380.323 65.4 381.883 63.42 383.323 61.38C384.803 59.3 386.123 57.18 387.283 55.02H378.103C379.623 54.14 381.203 53.12 382.843 51.96C384.523 50.76 386.023 49.5 387.343 48.18C386.583 47.34 385.783 46.4 384.943 45.36C384.103 44.32 383.403 43.34 382.843 42.42H379.003V49.74C379.003 51.22 378.683 52.4 378.043 53.28C377.163 54.48 375.783 55.08 373.903 55.08H370.603V58.68H379.723V63.96H370.603V81.24H362.743V63.96H353.743V58.68H362.743V55.08H359.383C357.903 55.08 356.663 54.64 355.663 53.76C355.223 53.32 354.863 52.82 354.583 52.26C354.303 51.66 354.163 50.98 354.163 50.22V33.48C354.163 32.88 354.283 32.32 354.523 31.8C354.803 31.24 355.163 30.74 355.603 30.3C356.603 29.3 357.843 28.8 359.323 28.8H372.943C374.703 28.8 376.103 29.2 377.143 30C378.383 30.92 379.003 32.26 379.003 34.02V40.56C380.403 38.6 381.663 36.58 382.783 34.5C383.903 32.42 384.983 30.3 386.023 28.14H394.603C394.403 28.58 394.143 29.14 393.823 29.82C393.503 30.46 393.243 30.98 393.043 31.38H402.103C402.903 31.38 403.563 31.54 404.083 31.86C404.603 32.14 405.023 32.52 405.343 33C405.663 33.52 405.803 34.1 405.763 34.74C405.763 35.38 405.663 36.04 405.463 36.72C404.983 38.24 404.363 39.72 403.603 41.16C402.843 42.6 401.943 44 400.903 45.36C399.743 46.88 398.423 48.32 396.943 49.68C395.503 51.04 393.943 52.26 392.263 53.34H397.303C397.103 53.82 396.843 54.36 396.523 54.96C396.243 55.52 395.963 56.04 395.683 56.52H402.163C404.123 56.52 405.483 57.04 406.243 58.08C406.723 58.76 406.943 59.54 406.903 60.42C406.863 61.3 406.663 62.22 406.303 63.18ZM361.783 66.66C361.583 68.86 361.283 71.04 360.883 73.2C360.523 75.32 360.003 77.38 359.323 79.38H352.723C353.483 77.34 354.063 75.28 354.463 73.2C354.903 71.08 355.283 68.9 355.603 66.66H361.783ZM396.343 37.32C396.423 37.2 396.403 37.04 396.283 36.84C396.203 36.64 396.103 36.54 395.983 36.54H390.463C390.183 37.06 389.823 37.66 389.383 38.34C388.983 39.02 388.603 39.64 388.243 40.2H390.403C390.483 40.32 390.603 40.52 390.763 40.8C390.963 41.04 391.163 41.3 391.363 41.58C391.603 41.86 391.823 42.14 392.023 42.42C392.263 42.66 392.443 42.84 392.563 42.96C393.283 42.28 393.963 41.52 394.603 40.68C395.283 39.8 395.863 38.68 396.343 37.32ZM373.243 34.74C373.243 34.58 373.143 34.42 372.943 34.26C372.783 34.06 372.623 33.96 372.463 33.96H370.603V39.18H373.243V34.74ZM397.423 62.4C397.503 62.24 397.503 62.1 397.423 61.98C397.383 61.82 397.263 61.74 397.063 61.74H392.683C392.483 62.06 392.183 62.5 391.783 63.06C391.423 63.62 391.103 64.06 390.823 64.38H392.083C392.323 64.7 392.683 65.18 393.163 65.82C393.643 66.46 394.003 66.94 394.243 67.26C394.923 66.54 395.563 65.74 396.163 64.86C396.763 63.94 397.183 63.12 397.423 62.4ZM373.243 44.16H370.603V49.74H372.583C373.023 49.74 373.243 49.5 373.243 49.02V44.16ZM362.743 33.96H360.883C360.723 33.96 360.543 34.04 360.343 34.2C360.183 34.36 360.103 34.48 360.103 34.56V39.18H362.743V33.96ZM362.743 44.16H360.103V49.02C360.103 49.22 360.163 49.4 360.283 49.56C360.443 49.68 360.603 49.74 360.763 49.74H362.743V44.16ZM467.003 31.62C466.563 34.26 466.023 36.82 465.383 39.3C464.783 41.78 464.123 44.3 463.403 46.86H454.103C454.903 44.38 455.663 41.88 456.383 39.36C457.103 36.84 457.663 34.26 458.063 31.62H467.003ZM434.363 46.86C433.603 44.38 432.943 41.86 432.383 39.3C431.823 36.74 431.323 34.18 430.883 31.62H439.463C439.903 34.26 440.423 36.84 441.023 39.36C441.623 41.84 442.303 44.34 443.063 46.86H434.363ZM453.023 68.82V81.3H444.203V68.82H428.723V63.3H444.203V55.8H430.463V50.16H444.203V28.44H453.023V50.16H466.463V55.8H453.023V63.3H467.723V68.82H453.023ZM431.063 28.44C430.383 32 429.543 35.5 428.543 38.94C427.583 42.38 426.503 45.8 425.303 49.2H426.983V81.3H418.283V51.42H414.743C416.383 47.78 417.763 44.04 418.883 40.2C420.003 36.36 420.983 32.44 421.823 28.44H431.063Z" fill="#3E1EE6"/>
</g>
<defs>
<filter id="filter0_d_320_54" x="4.48516" y="15.5658" width="136.581" height="105.116" filterUnits="userSpaceOnUse" color-interpolation-filters="sRGB">
<feFlood flood-opacity="0" result="BackgroundImageFix"/>
<feColorMatrix in="SourceAlpha" type="matrix" values="0 0 0 0 0 0 0 0 0 0 0 0 0 0 0 0 0 0 127 0" result="hardAlpha"/>
<feOffset dx="4" dy="6"/>
<feGaussianBlur stdDeviation="2.4"/>
<feComposite in2="hardAlpha" operator="out"/>
<feColorMatrix type="matrix" values="0 0 0 0 1 0 0 0 0 1 0 0 0 0 1 0 0 0 0.8 0"/>
<feBlend mode="screen" in2="BackgroundImageFix" result="effect1_dropShadow_320_54"/>
<feBlend mode="normal" in="SourceGraphic" in2="effect1_dropShadow_320_54" result="shape"/>
</filter>
<filter id="filter1_d_320_54" x="169.763" y="28.14" width="306.759" height="64.14" filterUnits="userSpaceOnUse" color-interpolation-filters="sRGB">
<feFlood flood-opacity="0" result="BackgroundImageFix"/>
<feColorMatrix in="SourceAlpha" type="matrix" values="0 0 0 0 0 0 0 0 0 0 0 0 0 0 0 0 0 0 127 0" result="hardAlpha"/>
<feOffset dx="4" dy="6"/>
<feGaussianBlur stdDeviation="2.4"/>
<feComposite in2="hardAlpha" operator="out"/>
<feColorMatrix type="matrix" values="0 0 0 0 1 0 0 0 0 1 0 0 0 0 1 0 0 0 0.8 0"/>
<feBlend mode="screen" in2="BackgroundImageFix" result="effect1_dropShadow_320_54"/>
<feBlend mode="normal" in="SourceGraphic" in2="effect1_dropShadow_320_54" result="shape"/>
</filter>
<linearGradient id="paint0_linear_320_54" x1="156.417" y1="16" x2="13.5706" y2="-1.53934" gradientUnits="userSpaceOnUse">
<stop stop-color="#FF8F08"/>
<stop offset="1" stop-color="#F73603"/>
</linearGradient>
</defs>
</svg>
