<svg width="662" height="121" viewBox="0 0 662 121" fill="none" xmlns="http://www.w3.org/2000/svg">
<g filter="url(#filter0_d_320_56)">
<path d="M11.9047 62.7512C13.2456 51.8306 15.4448 43.0521 18.5025 36.4157C21.6077 29.7374 25.6037 24.5921 30.4906 20.9799C35.4198 17.3677 41.2698 15.5616 48.0406 15.5616C53.0341 15.5616 57.2902 16.5697 60.809 18.5858C64.3328 20.5599 67.0899 23.437 69.0802 27.2172C71.0756 30.9554 72.4389 35.5337 73.1701 40.952C73.9065 46.3283 73.7125 53.5947 72.5883 62.7512C71.2577 73.5878 69.061 82.3452 65.9982 89.0236C62.9405 95.66 58.9445 100.805 54.0101 104.459C49.1232 108.072 43.2732 109.878 36.4601 109.878C27.4887 109.878 20.8348 106.686 16.4982 100.301C11.3059 92.6148 9.77474 80.0981 11.9047 62.7512ZM23.6478 62.7512C21.7861 77.914 22.3231 88.0155 25.2589 93.0558C28.2422 98.0541 32.3576 100.553 37.605 100.553C42.8524 100.553 47.5628 98.0331 51.7364 92.9928C55.9523 87.9525 58.9885 77.872 60.8451 62.7512C62.712 47.5463 62.1538 37.4448 59.1705 32.4465C56.2296 27.4483 52.0931 24.9491 46.761 24.9491C41.5136 24.9491 37.0534 27.1542 33.3804 31.5645C28.7538 37.1928 25.5096 47.5883 23.6478 62.7512ZM81.7322 83.9203L93.3436 82.4082C93.8664 88.8346 95.5182 93.4758 98.299 96.332C101.127 99.1461 104.805 100.553 109.333 100.553C114.708 100.553 119.463 98.7051 123.598 95.0089C127.776 91.3127 130.2 86.7345 130.871 81.2742C131.51 76.0659 130.322 71.7817 127.307 68.4215C124.297 65.0193 120.147 63.3182 114.858 63.3182C112.699 63.3182 109.961 63.7382 106.641 64.5783L109.133 54.6237C109.884 54.7077 110.493 54.7497 110.958 54.7497C115.825 54.7497 120.36 53.4897 124.562 50.9695C128.765 48.4494 131.189 44.5642 131.833 39.3139C132.344 35.1557 131.349 31.7115 128.849 28.9813C126.349 26.2512 122.856 24.8861 118.37 24.8861C113.927 24.8861 110.054 26.2722 106.751 29.0443C103.449 31.8165 101.034 35.9747 99.5068 41.519L88.3285 39.5029C90.6585 31.9005 94.5543 26.0202 100.016 21.862C105.483 17.6617 111.898 15.5616 119.261 15.5616C124.339 15.5616 128.881 16.6537 132.887 18.8378C136.898 20.9799 139.796 23.9201 141.58 27.6583C143.406 31.3965 144.061 35.3657 143.545 39.5659C143.055 43.5561 141.53 47.1893 138.97 50.4655C136.409 53.7417 132.895 56.3458 128.426 58.2779C133.772 59.538 137.724 62.1631 140.281 66.1534C142.843 70.1016 143.758 75.0578 143.026 81.0222C142.035 89.0866 138.232 95.933 131.617 101.561C125.007 107.148 117.173 109.941 108.117 109.941C99.95 109.941 93.4546 107.526 88.631 102.695C83.8497 97.8651 81.5501 91.6067 81.7322 83.9203Z" fill="url(#paint0_linear_320_56)"/>
</g>
<g filter="url(#filter1_d_320_56)">
<path d="M214.356 50.7558C212.556 48.3558 210.876 45.9358 209.316 43.4958C207.796 41.0158 206.356 38.4758 204.996 35.8758C204.796 35.5558 204.516 35.2958 204.156 35.0958C203.836 34.8558 203.516 34.7358 203.196 34.7358H192.396C192.076 34.7358 191.776 34.8758 191.496 35.1558C191.216 35.3958 191.016 35.6358 190.896 35.8758C189.496 38.5158 188.036 41.0758 186.516 43.5558C185.036 46.0358 183.316 48.4358 181.356 50.7558H170.316C172.836 47.8758 175.116 44.8358 177.156 41.6358C179.236 38.3958 181.236 35.1758 183.156 31.9758C183.676 31.0958 184.456 30.3958 185.496 29.8758C186.456 29.3958 187.476 29.1558 188.556 29.1558H207.636C208.836 29.1558 209.936 29.4958 210.936 30.1758C211.736 30.7758 212.336 31.4158 212.736 32.0958C214.256 34.7758 215.976 37.6158 217.896 40.6158C219.856 43.6158 222.376 46.9958 225.456 50.7558H214.356ZM172.116 80.7558V75.1758H177.936V53.9358H186.996V75.1758H193.956V43.7358H203.136V56.5158H220.116V62.0358H203.136V75.1758H224.256V80.7558H172.116ZM283.336 30.1758C283.056 31.3358 282.716 32.5158 282.316 33.7158C281.916 34.9158 281.496 36.0758 281.056 37.1958H272.296C272.856 36.1158 273.356 34.9758 273.796 33.7758C274.236 32.5758 274.616 31.3758 274.936 30.1758H283.336ZM232.996 43.5558V38.5758H248.236V28.4958H256.876V38.5758H261.556V28.4958H270.196V38.5758H285.256V43.5558H232.996ZM237.316 37.1958C236.836 36.0358 236.396 34.8958 235.996 33.7758C235.636 32.6158 235.296 31.4158 234.976 30.1758H243.436C243.836 31.3758 244.256 32.5558 244.696 33.7158C245.136 34.8758 245.636 36.0358 246.196 37.1958H237.316ZM275.356 80.3958C273.956 79.1158 272.596 77.7358 271.276 76.2558C269.956 74.7358 268.776 73.2358 267.736 71.7558H278.236C279.476 73.3158 280.796 74.8358 282.196 76.3158C283.596 77.7958 285.096 79.1558 286.696 80.3958H275.356ZM263.836 69.8958V81.2358H254.776V69.8958H233.116V64.9758H254.776V61.8558H236.056V57.3558H254.776V54.2958H234.316V49.3158H246.076C245.276 48.8358 244.456 48.2158 243.616 47.4558C242.776 46.6958 242.076 45.9558 241.516 45.2358H251.356C251.996 45.9958 252.756 46.7358 253.636 47.4558C254.516 48.1758 255.356 48.7958 256.156 49.3158H262.876C263.516 48.8758 264.296 48.2758 265.216 47.5158C266.136 46.7158 266.856 45.9558 267.376 45.2358H277.036C276.476 45.9958 275.756 46.7358 274.876 47.4558C273.996 48.1358 273.156 48.7558 272.356 49.3158H284.116V54.2958H263.836V57.3558H282.556V61.9158H263.836V64.9758H285.436V69.8958H263.836ZM250.696 71.7558C249.616 73.2758 248.416 74.7758 247.096 76.2558C245.816 77.7358 244.456 79.1158 243.016 80.3958H232.036C233.476 79.1158 234.916 77.7358 236.356 76.2558C237.836 74.7758 239.216 73.2758 240.496 71.7558H250.696ZM342.476 39.1158C342.476 40.6358 342.076 41.7958 341.276 42.5958C340.516 43.3558 339.456 43.7358 338.096 43.7358H302.156C301.596 43.7358 301.076 43.6358 300.596 43.4358C300.116 43.1958 299.676 42.8958 299.276 42.5358C298.356 41.6958 297.896 40.6558 297.896 39.4158V33.1158C297.896 31.5558 298.296 30.4158 299.096 29.6958C299.896 28.9758 300.956 28.6158 302.276 28.6158H338.036C339.436 28.6158 340.516 29.0558 341.276 29.9358C342.076 30.8558 342.476 32.0558 342.476 33.5358V39.1158ZM344.876 66.8358C344.876 67.5558 344.736 68.2358 344.456 68.8758C344.176 69.4758 343.816 69.9958 343.376 70.4358C342.936 70.8758 342.416 71.2158 341.816 71.4558C341.216 71.6958 340.576 71.8158 339.896 71.8158H302.156C301.156 71.8158 300.256 71.6958 299.456 71.4558C298.656 71.2158 297.976 70.8358 297.416 70.3158C296.376 69.3558 295.856 67.9758 295.856 66.1758V51.7758C295.856 50.2158 296.316 48.9358 297.236 47.9358C298.196 46.8958 299.416 46.3758 300.896 46.3758H338.996C339.916 46.3758 340.736 46.5558 341.456 46.9158C342.216 47.2358 342.876 47.6758 343.436 48.2358C344.396 49.3158 344.876 50.6558 344.876 52.2558V66.8358ZM335.936 81.2958C333.736 80.2558 331.656 79.0758 329.696 77.7558C327.736 76.3958 325.876 74.9958 324.116 73.5558H335.516C336.276 74.1558 337.156 74.8158 338.156 75.5358C339.196 76.2558 340.256 76.9558 341.336 77.6358C342.456 78.3158 343.576 78.9758 344.696 79.6158C345.816 80.2558 346.876 80.8158 347.876 81.2958H335.936ZM316.556 73.4358C315.076 74.8358 313.376 76.2558 311.456 77.6958C309.536 79.1358 307.536 80.3358 305.456 81.2958H292.676C295.436 80.0158 297.896 78.6958 300.056 77.3358C302.256 75.9758 304.116 74.6758 305.636 73.4358H316.556ZM333.476 34.6758C333.476 34.3558 333.356 34.0958 333.116 33.8958C332.876 33.6558 332.616 33.5358 332.336 33.5358H307.796C307.556 33.5358 307.336 33.6158 307.136 33.7758C306.936 33.8958 306.836 34.0758 306.836 34.3158V37.8558C306.836 38.1358 306.956 38.3758 307.196 38.5758C307.476 38.7758 307.756 38.8758 308.036 38.8758H332.276C333.076 38.8758 333.476 38.5158 333.476 37.7958V34.6758ZM335.996 52.3158C335.996 52.0358 335.896 51.7958 335.696 51.5958C335.496 51.3958 335.276 51.2958 335.036 51.2958H305.876C305.556 51.2958 305.276 51.3958 305.036 51.5958C304.836 51.7958 304.736 52.0558 304.736 52.3758V53.5158H335.996V52.3158ZM335.996 57.8958H304.736V60.2358H335.996V57.8958ZM335.996 64.4958H304.736V65.3358C304.736 66.4558 305.236 67.0158 306.236 67.0158H334.856C335.176 67.0158 335.436 66.8758 335.636 66.5958C335.876 66.2758 335.996 65.9358 335.996 65.5758V64.4958ZM355.116 79.7958V74.1558H376.416V35.6958H357.096V30.1158H405.156V35.6958H385.776V74.1558H407.196V79.7958H355.116ZM462.736 64.4358V66.4758H468.316V71.4558H462.736V76.4958C462.736 77.2558 462.616 77.9158 462.376 78.4758C462.136 79.0358 461.816 79.5158 461.416 79.9158C460.976 80.3958 460.436 80.7558 459.796 80.9958C459.156 81.2358 458.476 81.3558 457.756 81.3558H443.476L441.496 76.3158H452.476C452.836 76.3158 453.156 76.1958 453.436 75.9558C453.756 75.7158 453.916 75.3958 453.916 74.9958V71.4558H416.116V66.4758H453.916V64.1958H458.836C458.396 63.3958 457.956 62.5758 457.516 61.7358C457.116 60.8558 456.716 60.0158 456.316 59.2158L455.056 62.7558C448.536 62.9558 442.056 63.0958 435.616 63.1758C429.176 63.2558 422.676 63.2758 416.116 63.2358V58.2558C419.756 58.4158 423.356 58.4958 426.916 58.4958C430.476 58.4558 434.076 58.3958 437.716 58.3158V54.7158H423.436C421.996 54.7158 420.836 54.3158 419.956 53.5158C419.116 52.7158 418.696 51.6158 418.696 50.2158V42.8358C418.696 41.1958 419.196 39.9758 420.196 39.1758C421.156 38.4558 422.436 38.0958 424.036 38.0958H437.716V35.5758H415.996V30.8358H437.716V28.0158H446.716V30.8358H468.196V35.5758H446.716V38.0958H460.456C462.176 38.0958 463.456 38.5358 464.296 39.4158C465.016 40.1358 465.376 41.1758 465.376 42.5358V50.3958C465.376 51.0358 465.256 51.6158 465.016 52.1358C464.776 52.6558 464.456 53.0958 464.056 53.4558C463.176 54.2958 462.056 54.7158 460.696 54.7158H446.716V58.3158C448.236 58.2758 449.736 58.2358 451.216 58.1958C452.736 58.1558 454.256 58.0958 455.776 58.0158C455.656 57.6958 455.536 57.3958 455.416 57.1158C455.296 56.7958 455.216 56.4558 455.176 56.0958H464.416C465.016 57.5358 465.676 58.9558 466.396 60.3558C467.156 61.7558 467.996 63.1158 468.916 64.4358H462.736ZM427.636 79.9158C426.516 79.3158 425.256 78.3758 423.856 77.0958C422.456 75.8158 421.076 74.5358 419.716 73.2558H431.716C432.956 74.3758 434.336 75.5358 435.856 76.7358C437.376 77.8958 439.056 78.9558 440.896 79.9158H427.636ZM456.616 43.5558C456.616 43.3158 456.536 43.0958 456.376 42.8958C456.256 42.6558 456.036 42.5358 455.716 42.5358H446.716V44.5758H456.616V43.5558ZM456.616 48.1158H446.716V50.2758H455.356C455.676 50.2758 455.956 50.1758 456.196 49.9758C456.476 49.7358 456.616 49.4358 456.616 49.0758V48.1158ZM437.716 42.5358H428.656C428.416 42.5358 428.156 42.6558 427.876 42.8958C427.636 43.1358 427.516 43.3758 427.516 43.6158V44.5758H437.716V42.5358ZM437.716 48.1158H427.516V49.3158C427.516 49.6358 427.596 49.8758 427.756 50.0358C427.956 50.1958 428.176 50.2758 428.416 50.2758H437.716V48.1158ZM528.176 39.8958C527.616 40.4558 526.976 41.0158 526.256 41.5758C525.576 42.1358 524.896 42.6358 524.216 43.0758H513.536C514.256 42.6358 514.996 42.1358 515.756 41.5758C516.556 41.0158 517.276 40.4558 517.916 39.8958H528.176ZM518.996 48.0558C518.196 47.5758 517.376 47.0558 516.536 46.4958C515.736 45.8958 514.956 45.2158 514.196 44.4558H524.516C525.316 45.1358 526.176 45.7958 527.096 46.4358C528.056 47.0358 528.996 47.5758 529.916 48.0558H518.996ZM503.756 47.6358V40.0758H512.156V47.6358H503.756ZM492.416 43.0758C490.936 42.1558 489.596 41.0958 488.396 39.8958H498.596C499.196 40.4558 499.836 40.9958 500.516 41.5158C501.236 41.9958 501.996 42.5158 502.796 43.0758H492.416ZM502.016 44.4558C501.376 45.0958 500.696 45.7158 499.976 46.3158C499.296 46.9158 498.616 47.4958 497.936 48.0558H487.736C488.536 47.4958 489.336 46.9358 490.136 46.3758C490.936 45.7758 491.736 45.1358 492.536 44.4558H502.016ZM529.256 76.9158C529.256 78.2358 528.836 79.3158 527.996 80.1558C527.116 81.0358 526.016 81.4758 524.696 81.4758H519.116L518.396 80.2158H513.956C513.796 79.9758 513.636 79.7358 513.476 79.4958C513.356 79.2558 513.256 79.0358 513.176 78.8358C509.056 79.1158 504.836 79.3358 500.516 79.4958C496.196 79.6558 491.976 79.7758 487.856 79.8558V76.0758C489.776 76.0758 491.796 76.0758 493.916 76.0758C496.036 76.0358 498.096 75.9558 500.096 75.8358V73.3758H492.356C491.436 73.3758 490.676 73.0358 490.076 72.3558C489.836 72.0758 489.636 71.7758 489.476 71.4558C489.316 71.0958 489.236 70.7158 489.236 70.3158V68.6358C489.236 68.2758 489.276 67.9158 489.356 67.5558C489.476 67.1958 489.596 66.8558 489.716 66.5358H486.416C486.256 69.0558 486.056 71.5158 485.816 73.9158C485.616 76.3158 485.236 78.7558 484.676 81.2358H475.856C476.216 79.9558 476.516 78.5558 476.756 77.0358C477.036 75.5158 477.276 73.9958 477.476 72.4758C477.676 70.9158 477.816 69.3958 477.896 67.9158C478.016 66.3958 478.076 64.9958 478.076 63.7158V33.4758C478.076 32.8358 478.196 32.2358 478.436 31.6758C478.716 31.1158 479.076 30.6158 479.516 30.1758C480.596 29.0958 481.876 28.5558 483.356 28.5558H524.816C525.856 28.5558 526.696 28.9158 527.336 29.6358C527.936 30.2758 528.236 31.0558 528.236 31.9758V34.7958C528.236 35.8358 527.956 36.6758 527.396 37.3158C526.796 38.0758 525.856 38.4558 524.576 38.4558H486.596V65.0958C487.636 64.0158 488.616 62.8958 489.536 61.7358C490.496 60.5358 491.376 59.2958 492.176 58.0158C491.176 57.8958 490.396 57.5158 489.836 56.8758C489.276 56.2358 488.996 55.4358 488.996 54.4758V52.3758C488.996 51.8158 489.116 51.3558 489.356 50.9958C489.596 50.5958 489.916 50.2558 490.316 49.9758C491.116 49.4958 491.936 49.2558 492.776 49.2558H524.876C525.836 49.2558 526.636 49.6158 527.276 50.3358C527.916 50.9758 528.236 51.6758 528.236 52.4358V54.6558C528.236 55.2158 528.116 55.6958 527.876 56.0958C527.676 56.4958 527.396 56.8558 527.036 57.1758C526.276 57.7358 525.396 58.0158 524.396 58.0158H500.936C500.736 58.3358 500.496 58.7158 500.216 59.1558C499.976 59.5558 499.756 59.8758 499.556 60.1158H524.756C525.396 60.1158 525.976 60.2558 526.496 60.5358C527.056 60.8158 527.556 61.1758 527.996 61.6158C528.836 62.4558 529.256 63.4158 529.256 64.4958V76.9158ZM519.476 32.9358C519.476 32.4958 519.236 32.2758 518.756 32.2758H487.736C487.416 32.2758 487.136 32.4158 486.896 32.6958C486.696 32.9358 486.596 33.1958 486.596 33.4758V34.7958H518.816C519.256 34.7958 519.476 34.5558 519.476 34.0758V32.9358ZM520.136 53.0358C520.136 52.7158 519.936 52.5558 519.536 52.5558H517.136V54.8358H519.536C519.656 54.8358 519.776 54.7758 519.896 54.6558C520.056 54.5358 520.136 54.3958 520.136 54.2358V53.0358ZM509.936 52.5558H507.056V54.8358H509.936V52.5558ZM499.676 52.5558H497.456C497.096 52.5558 496.916 52.7158 496.916 53.0358V54.2358C496.916 54.6358 497.116 54.8358 497.516 54.8358H499.676V52.5558ZM520.916 64.6758C520.916 64.4758 520.796 64.2558 520.556 64.0158C520.316 63.7358 520.096 63.5958 519.896 63.5958H508.016V65.5758H515.396C515.756 65.5758 516.136 65.6358 516.536 65.7558C516.936 65.8758 517.296 66.0758 517.616 66.3558C517.936 66.5558 518.196 66.8358 518.396 67.1958C518.636 67.5158 518.756 67.8958 518.756 68.3358V70.8558C518.756 71.8958 518.256 72.6758 517.256 73.1958C517.496 73.8758 517.756 74.5358 518.036 75.1758C518.316 75.7758 518.636 76.3758 518.996 76.9758H520.076C520.316 76.9758 520.516 76.8758 520.676 76.6758C520.836 76.4758 520.916 76.2758 520.916 76.0758V64.6758ZM511.496 69.0558C511.496 68.6958 511.276 68.5158 510.836 68.5158H508.016V70.3758H510.836C511.276 70.3758 511.496 70.1758 511.496 69.7758V69.0558ZM510.896 73.3758H508.016V75.4158C508.456 75.4158 509.036 75.3958 509.756 75.3558C510.476 75.3158 511.056 75.2558 511.496 75.1758L510.896 73.3758ZM500.096 63.5958H497.096C496.896 63.9158 496.636 64.2758 496.316 64.6758C496.036 65.0358 495.796 65.3358 495.596 65.5758H500.096V63.5958ZM500.096 68.5158H497.216C497.056 68.5158 496.896 68.5558 496.736 68.6358C496.576 68.7158 496.496 68.8558 496.496 69.0558V69.7758C496.496 70.1758 496.696 70.3758 497.096 70.3758H500.096V68.5158ZM583.536 64.4958C582.776 63.2558 582.116 62.0358 581.556 60.8358C581.036 59.6358 580.556 58.3758 580.116 57.0558H582.996V55.3758C582.996 54.6958 582.636 54.3558 581.916 54.3558H577.176C577.496 55.0758 577.876 55.8158 578.316 56.5758C578.796 57.3358 579.256 58.0358 579.696 58.6758H572.376C571.936 58.0358 571.496 57.3358 571.056 56.5758C570.656 55.7758 570.316 55.0358 570.036 54.3558H560.856C560.536 54.3558 560.256 54.4558 560.016 54.6558C559.816 54.8558 559.716 55.1158 559.716 55.4358V57.2358H562.416C561.856 58.5158 561.236 59.7558 560.556 60.9558C559.916 62.1558 559.176 63.3358 558.336 64.4958H550.776C551.456 63.6158 552.116 62.6958 552.756 61.7358C553.396 60.7358 553.956 59.7558 554.436 58.7958H551.976V54.4158C551.976 53.3358 552.316 52.4158 552.996 51.6558C553.796 50.8558 554.756 50.4358 555.876 50.3958V39.5958C555.876 38.2358 556.236 37.1758 556.956 36.4158C557.676 35.4958 558.796 35.0358 560.316 35.0358H565.716C565.876 34.7158 566.016 34.3758 566.136 34.0158C566.296 33.6558 566.436 33.2958 566.556 32.9358H554.436V28.7958H590.256V32.9358H575.256C575.016 33.6958 574.716 34.3958 574.356 35.0358H582.756C583.316 35.0358 583.876 35.1558 584.436 35.3958C584.996 35.5958 585.476 35.9158 585.876 36.3558C586.196 36.6758 586.436 37.0358 586.596 37.4358C586.796 37.8358 586.896 38.2758 586.896 38.7558V50.2758C587.456 50.3958 587.976 50.5758 588.456 50.8158C588.976 51.0558 589.396 51.3758 589.716 51.7758C590.316 52.4158 590.616 53.2358 590.616 54.2358V58.6158H587.736C588.456 60.5758 589.436 62.5358 590.676 64.4958H583.536ZM576.216 81.2358C575.536 80.9558 574.836 80.6358 574.116 80.2758C573.436 79.9558 572.756 79.6158 572.076 79.2558C571.236 79.6558 570.396 80.0158 569.556 80.3358C568.716 80.6958 567.856 80.9958 566.976 81.2358H550.956C555.716 79.5558 560.396 77.6958 564.996 75.6558C564.556 75.4558 564.116 75.2158 563.676 74.9358C563.276 74.6558 562.856 74.3558 562.416 74.0358C562.256 74.2358 562.076 74.4358 561.876 74.6358C561.676 74.8358 561.476 75.0358 561.276 75.2358H551.436C553.236 73.4758 554.996 71.6158 556.716 69.6558C558.436 67.6558 560.036 65.6358 561.516 63.5958H564.816C564.376 63.2758 564.016 62.8758 563.736 62.3958C563.456 61.8758 563.316 61.3358 563.316 60.7758V56.0958H570.336V59.6358C570.336 59.8758 570.456 60.1158 570.696 60.3558C570.936 60.5558 571.156 60.6558 571.356 60.6558H580.896L579.636 64.3158H570.096C569.896 64.6358 569.676 64.9758 569.436 65.3358C569.196 65.6558 568.936 65.9558 568.656 66.2358H583.656C584.216 66.2358 584.696 66.4158 585.096 66.7758C585.536 67.0958 585.856 67.4958 586.056 67.9758C586.256 68.4958 586.316 69.0358 586.236 69.5958C586.196 70.1158 585.956 70.5958 585.516 71.0358C584.516 71.9958 583.456 72.8358 582.336 73.5558C581.256 74.2758 580.116 74.9758 578.916 75.6558C580.876 76.6958 582.876 77.6758 584.916 78.5958C586.956 79.5158 589.036 80.3958 591.156 81.2358H576.216ZM553.836 28.2558C552.956 31.8158 551.956 35.3358 550.836 38.8158C549.756 42.2958 548.496 45.7158 547.056 49.0758H549.876V81.2958H540.876V51.5958H536.376C539.856 44.0758 542.516 36.2958 544.356 28.2558H553.836ZM578.676 39.8958C578.676 39.6958 578.556 39.4958 578.316 39.2958C578.116 39.0958 577.916 38.9958 577.716 38.9958H565.296C565.056 38.9958 564.816 39.0758 564.576 39.2358C564.336 39.3958 564.216 39.6158 564.216 39.8958V40.7358H578.676V39.8958ZM578.676 43.6758H564.216V45.2958H578.676V43.6758ZM578.676 48.5358H564.216V50.3958H578.676V48.5358ZM566.136 69.7158C565.936 70.0358 565.716 70.3358 565.476 70.6158C565.236 70.8958 564.996 71.1758 564.756 71.4558H570.636C570.836 71.5758 571.056 71.7158 571.296 71.8758C571.576 71.9958 571.816 72.0958 572.016 72.1758C572.696 71.8558 573.396 71.4758 574.116 71.0358C574.876 70.5958 575.576 70.1558 576.216 69.7158H566.136ZM641.956 65.8758C641.636 65.5558 641.316 65.2158 640.996 64.8558C640.716 64.4958 640.456 64.1358 640.216 63.7758C633.336 64.0958 626.436 64.3558 619.516 64.5558C612.636 64.7158 605.776 64.7958 598.936 64.7958V59.6358C602.616 59.7158 606.256 59.7558 609.856 59.7558C613.496 59.7558 617.136 59.7158 620.776 59.6358V56.3958H606.856C606.136 56.3958 605.436 56.2558 604.756 55.9758C604.076 55.6958 603.496 55.2558 603.016 54.6558C602.256 53.7758 601.876 52.5558 601.876 50.9958V43.4358C601.876 42.7558 601.996 42.1558 602.236 41.6358C602.476 41.0758 602.816 40.5758 603.256 40.1358C604.296 39.1758 605.536 38.6958 606.976 38.6958H620.776V36.1758H599.116V31.4958H620.776V28.3158H629.536V31.4958H651.256V36.1758H629.536V38.6958H643.396C645.036 38.6958 646.356 39.1958 647.356 40.1958C648.236 41.1558 648.676 42.3958 648.676 43.9158V51.2358C648.676 52.7158 648.216 53.9158 647.296 54.8358C646.256 55.8758 644.896 56.3958 643.216 56.3958H629.536V59.4558C629.976 59.4558 630.516 59.4358 631.156 59.3958C631.836 59.3558 632.516 59.3358 633.196 59.3358C633.916 59.2958 634.616 59.2558 635.296 59.2158C635.976 59.1758 636.576 59.1558 637.096 59.1558C636.696 58.5558 636.416 58.0358 636.256 57.5958H646.396C647.236 58.9958 648.116 60.3958 649.036 61.7958C649.956 63.1958 651.016 64.5558 652.216 65.8758H641.956ZM643.696 80.2758C642.696 78.3158 641.816 76.3158 641.056 74.2758C640.296 72.2358 639.616 70.1358 639.016 67.9758H647.716C648.316 70.0958 649.036 72.1758 649.876 74.2158C650.716 76.2558 651.636 78.2758 652.636 80.2758H643.696ZM626.536 74.0358C625.936 72.7158 625.396 71.3758 624.916 70.0158C624.476 68.6558 624.076 67.2758 623.716 65.8758H632.416C633.136 68.6358 634.176 71.3558 635.536 74.0358H626.536ZM638.836 81.2958H618.136C617.216 81.2958 616.416 81.1158 615.736 80.7558C615.096 80.4358 614.556 79.9958 614.116 79.4358C613.316 78.3158 612.916 76.9158 612.916 75.2358V66.5358H621.436V74.8158C621.436 75.1758 621.556 75.5158 621.796 75.8358C622.076 76.1158 622.416 76.2558 622.816 76.2558H640.276L638.836 81.2958ZM611.236 68.0358C610.676 70.1558 610.036 72.2358 609.316 74.2758C608.636 76.3158 607.836 78.3358 606.916 80.3358H597.976C598.896 78.3758 599.736 76.3758 600.496 74.3358C601.296 72.2558 601.956 70.1558 602.476 68.0358H611.236ZM639.856 43.9158C639.856 43.7158 639.736 43.5158 639.496 43.3158C639.296 43.1158 639.096 43.0158 638.896 43.0158H629.536V45.3558H639.856V43.9158ZM639.856 49.6758H629.536V52.0758H638.776C639.016 52.0758 639.256 51.9958 639.496 51.8358C639.736 51.6358 639.856 51.4158 639.856 51.1758V49.6758ZM620.776 43.0158H611.656C611.416 43.0158 611.156 43.1158 610.876 43.3158C610.636 43.4758 610.516 43.6958 610.516 43.9758V45.3558H620.776V43.0158ZM620.776 49.6758H610.516V51.0558C610.516 51.2558 610.616 51.4758 610.816 51.7158C611.056 51.9558 611.276 52.0758 611.476 52.0758H620.776V49.6758Z" fill="#3E1EE6"/>
</g>
<defs>
<filter id="filter0_d_320_56" x="5.31035" y="15.5616" width="154.553" height="105.179" filterUnits="userSpaceOnUse" color-interpolation-filters="sRGB">
<feFlood flood-opacity="0" result="BackgroundImageFix"/>
<feColorMatrix in="SourceAlpha" type="matrix" values="0 0 0 0 0 0 0 0 0 0 0 0 0 0 0 0 0 0 127 0" result="hardAlpha"/>
<feOffset dx="4" dy="6"/>
<feGaussianBlur stdDeviation="2.4"/>
<feComposite in2="hardAlpha" operator="out"/>
<feColorMatrix type="matrix" values="0 0 0 0 1 0 0 0 0 1 0 0 0 0 1 0 0 0 0.8 0"/>
<feBlend mode="screen" in2="BackgroundImageFix" result="effect1_dropShadow_320_56"/>
<feBlend mode="normal" in="SourceGraphic" in2="effect1_dropShadow_320_56" result="shape"/>
</filter>
<filter id="filter1_d_320_56" x="169.516" y="28.0159" width="491.919" height="64.26" filterUnits="userSpaceOnUse" color-interpolation-filters="sRGB">
<feFlood flood-opacity="0" result="BackgroundImageFix"/>
<feColorMatrix in="SourceAlpha" type="matrix" values="0 0 0 0 0 0 0 0 0 0 0 0 0 0 0 0 0 0 127 0" result="hardAlpha"/>
<feOffset dx="4" dy="6"/>
<feGaussianBlur stdDeviation="2.4"/>
<feComposite in2="hardAlpha" operator="out"/>
<feColorMatrix type="matrix" values="0 0 0 0 1 0 0 0 0 1 0 0 0 0 1 0 0 0 0.8 0"/>
<feBlend mode="screen" in2="BackgroundImageFix" result="effect1_dropShadow_320_56"/>
<feBlend mode="normal" in="SourceGraphic" in2="effect1_dropShadow_320_56" result="shape"/>
</filter>
<linearGradient id="paint0_linear_320_56" x1="157.25" y1="15.9958" x2="14.4036" y2="-1.54349" gradientUnits="userSpaceOnUse">
<stop stop-color="#FF8F08"/>
<stop offset="1" stop-color="#F73603"/>
</linearGradient>
</defs>
</svg>
