<svg width="775" height="143" viewBox="0 0 775 143" fill="none" xmlns="http://www.w3.org/2000/svg">
<path d="M49.18 29.18C48.62 28.5267 48.0367 27.7567 47.43 26.87C46.87 25.9833 46.4033 25.26 46.03 24.7L43.86 29.18H5.36C4.33333 29.18 3.47 28.9467 2.77 28.48C2.11667 27.9667 1.62667 27.3367 1.3 26.59C0.973334 25.89 0.833334 25.1667 0.88 24.42C0.973334 23.6733 1.27667 22.9967 1.79 22.39L20.34 0.479998H33.71L14.95 22.81H44.84C43.58 20.85 42.3667 18.8667 41.2 16.86C40.08 14.8067 39.03 12.7767 38.05 10.77H50.02C51.3733 13.5233 53.03 16.5567 54.99 19.87C56.9967 23.1367 59.19 26.24 61.57 29.18H49.18ZM57.93 56.13C57.93 57.81 57.4167 59.21 56.39 60.33C55.2233 61.6367 53.7067 62.29 51.84 62.29H9.91C8.69667 62.29 7.64667 62.08 6.76 61.66C5.92 61.24 5.22 60.6567 4.66 59.91C3.63333 58.6033 3.12 56.9467 3.12 54.94V41.29C3.12 39.75 3.68 38.3733 4.8 37.16C5.45333 36.46 6.22333 35.9 7.11 35.48C7.99667 35.06 8.93 34.85 9.91 34.85H51C51.9333 34.85 52.7967 35.0367 53.59 35.41C54.43 35.7367 55.1767 36.18 55.83 36.74C56.4833 37.3467 56.9967 38.0467 57.37 38.84C57.7433 39.5867 57.93 40.4033 57.93 41.29V56.13ZM47.29 42.97C47.29 42.69 47.1033 42.3867 46.73 42.06C46.4033 41.7333 46.0767 41.57 45.75 41.57H15.3C14.9267 41.57 14.5767 41.71 14.25 41.99C13.97 42.27 13.83 42.5967 13.83 42.97V54.38C13.83 54.7533 13.9933 55.08 14.32 55.36C14.6933 55.64 15.02 55.78 15.3 55.78H45.75C46.0767 55.78 46.4033 55.64 46.73 55.36C47.1033 55.08 47.29 54.7767 47.29 54.45V42.97ZM128.58 23.02C128.44 22.6467 128.253 22.1333 128.02 21.48C127.787 20.8267 127.6 20.29 127.46 19.87L125.92 23.09H117.8C117.147 23.09 116.587 22.9033 116.12 22.53C115.7 22.1567 115.397 21.7133 115.21 21.2C115.023 20.7333 114.977 20.2433 115.07 19.73C115.163 19.2167 115.42 18.75 115.84 18.33L121.3 12.8H117.73C117.03 12.8 116.47 12.66 116.05 12.38C115.63 12.1 115.35 11.75 115.21 11.33C115.023 10.91 114.953 10.4433 115 9.93C115.093 9.41667 115.327 8.92666 115.7 8.46L121.44 1.11H130.4L125.15 7.69H129.84C130.307 7.69 130.68 7.83 130.96 8.11C131.24 8.39 131.45 8.71666 131.59 9.09C131.73 9.46333 131.753 9.83666 131.66 10.21C131.613 10.5833 131.497 10.8867 131.31 11.12L126.9 15.74H131.03C131.123 16.16 131.24 16.6967 131.38 17.35C131.52 17.9567 131.683 18.61 131.87 19.31C132.103 19.9633 132.337 20.6167 132.57 21.27C132.803 21.9233 133.013 22.5067 133.2 23.02H128.58ZM98.41 8.6V4.19H102.26C102.167 3.91 102.003 3.46666 101.77 2.86C101.537 2.20666 101.327 1.62333 101.14 1.11H109.47C109.657 1.62333 109.867 2.13666 110.1 2.65C110.333 3.16333 110.59 3.67666 110.87 4.19H114.79V8.6H98.41ZM128.44 33.66C128.3 33.1467 128.137 32.5167 127.95 31.77C127.81 31.0233 127.67 30.2533 127.53 29.46C127.437 28.6667 127.343 27.8967 127.25 27.15C127.203 26.3567 127.18 25.6567 127.18 25.05H131.73C131.777 26.2633 131.917 27.71 132.15 29.39C132.43 31.07 132.733 32.4933 133.06 33.66H128.44ZM122.63 33.66C122.583 33.1467 122.513 32.54 122.42 31.84C122.327 31.14 122.233 30.3933 122.14 29.6C122.093 28.76 122.047 27.9433 122 27.15C121.953 26.3567 121.93 25.6567 121.93 25.05H125.92C125.92 25.6567 125.943 26.3567 125.99 27.15C126.037 27.9433 126.107 28.7367 126.2 29.53C126.293 30.3233 126.387 31.0933 126.48 31.84C126.573 32.54 126.667 33.1467 126.76 33.66H122.63ZM99.81 14.97V10.91H114.09V14.97H99.81ZM120.81 25.05C120.717 26.6367 120.53 28.2 120.25 29.74C119.97 31.28 119.667 32.5867 119.34 33.66H114.86C115.187 32.6333 115.513 31.3033 115.84 29.67C116.167 28.0367 116.423 26.4967 116.61 25.05H120.81ZM99.81 21.13V17H114.09V21.13H99.81ZM114.16 30.58C114.16 31.2333 113.88 31.8167 113.32 32.33C112.62 32.9367 111.78 33.24 110.8 33.24H102.89C101.957 33.24 101.233 32.96 100.72 32.4C100.16 31.84 99.88 31.14 99.88 30.3V26.03C99.88 25.1433 100.16 24.4667 100.72 24C101.373 23.44 102.307 23.16 103.52 23.16H111.29C112.177 23.16 112.9 23.4867 113.46 24.14C113.927 24.6533 114.16 25.2833 114.16 26.03V30.58ZM94.91 23.09C94.77 22.7167 94.5833 22.1567 94.35 21.41C94.1633 20.6633 94.0233 20.0333 93.93 19.52L92.32 23.09H83.71C83.15 23.09 82.6367 22.9267 82.17 22.6C81.75 22.2267 81.4467 21.7833 81.26 21.27C80.9333 20.2433 81.2133 19.2867 82.1 18.4L87.77 12.8H84.34C83.78 12.8 83.3133 12.7067 82.94 12.52C82.6133 12.3333 82.3333 12.1 82.1 11.82C81.7267 11.3533 81.54 10.84 81.54 10.28C81.5867 9.72 81.7733 9.23 82.1 8.81L87.84 1.11H96.8L91.34 7.76H95.82C96.3333 7.76 96.7533 7.9 97.08 8.18C97.4067 8.46 97.6633 8.78667 97.85 9.16C98.1767 10.0467 98.1067 10.7233 97.64 11.19L93.3 15.74H97.64C97.78 16.86 98.0133 18.0967 98.34 19.45C98.7133 20.7567 99.1333 21.97 99.6 23.09H94.91ZM73.49 16.44C73.1633 15.46 72.8133 14.34 72.44 13.08C72.0667 11.7733 71.6933 10.4433 71.32 9.09C70.9933 7.69 70.69 6.31333 70.41 4.96C70.13 3.60666 69.8967 2.34666 69.71 1.18H78.81C78.95 2.3 79.1367 3.56 79.37 4.96C79.65 6.36 79.9533 7.76 80.28 9.16C80.6533 10.5133 81.0267 11.8433 81.4 13.15C81.82 14.41 82.2167 15.5067 82.59 16.44H73.49ZM94.7 33.66C94.56 33.1467 94.42 32.5167 94.28 31.77C94.14 31.0233 94.0233 30.2533 93.93 29.46C93.8367 28.62 93.7433 27.8267 93.65 27.08C93.6033 26.2867 93.58 25.61 93.58 25.05H97.57C97.6167 25.61 97.6867 26.2633 97.78 27.01C97.8733 27.71 97.9667 28.4567 98.06 29.25C98.2 30.0433 98.34 30.8367 98.48 31.63C98.6667 32.3767 98.83 33.0533 98.97 33.66H94.7ZM88.68 33.66C88.6333 33.1 88.5633 32.47 88.47 31.77C88.4233 31.0233 88.3767 30.2767 88.33 29.53C88.2833 28.7367 88.2367 27.9667 88.19 27.22C88.19 26.4267 88.19 25.7033 88.19 25.05H92.04C92.04 25.61 92.0633 26.2633 92.11 27.01C92.2033 27.7567 92.2733 28.5267 92.32 29.32C92.4133 30.1133 92.5067 30.9067 92.6 31.7C92.6933 32.4467 92.81 33.1 92.95 33.66H88.68ZM131.52 58.44C131.52 59.0933 131.403 59.7 131.17 60.26C130.983 60.82 130.68 61.2633 130.26 61.59C129.373 62.3367 127.95 62.71 125.99 62.71H104.29L101.84 57.74H120.11C120.297 57.74 120.483 57.67 120.67 57.53C120.857 57.3433 120.95 57.1567 120.95 56.97V55.57C120.95 55.0567 120.717 54.8 120.25 54.8H88.75C88.2833 54.8 87.84 54.66 87.42 54.38C87.0467 54.1 86.6733 53.7733 86.3 53.4C85.9267 53.0267 85.6467 52.63 85.46 52.21C85.2733 51.7433 85.2033 51.37 85.25 51.09L85.95 45.91C85.9967 45.5833 86.1367 45.21 86.37 44.79C86.65 44.37 87 43.9967 87.42 43.67C88.12 43.0633 88.89 42.76 89.73 42.76H119.76L120.25 41.92V40.59L119.76 40.24H84.55V35.27H125.5C126.76 35.27 127.763 35.62 128.51 36.32C129.35 37.0667 129.77 38.1633 129.77 39.61V43.11C129.77 44.4633 129.42 45.5367 128.72 46.33C127.88 47.17 126.69 47.59 125.15 47.59H96.52C95.96 47.59 95.6567 47.8233 95.61 48.29L95.54 49.06C95.4933 49.2467 95.5633 49.4567 95.75 49.69C95.9833 49.8767 96.2167 49.97 96.45 49.97H127.46C128.44 49.97 129.327 50.32 130.12 51.02C131.053 51.9533 131.52 53.0967 131.52 54.45V58.44ZM87.21 25.05C87.1633 25.75 87.0933 26.52 87 27.36C86.9067 28.1533 86.79 28.9467 86.65 29.74C86.5567 30.5333 86.44 31.28 86.3 31.98C86.2067 32.6333 86.09 33.1933 85.95 33.66H82.66L82.94 35.06H73.56C72.7667 32.54 72.09 29.9967 71.53 27.43C71.0167 24.8633 70.5267 22.2267 70.06 19.52H79.23C79.51 21.6667 79.8833 23.7667 80.35 25.82C80.8167 27.8267 81.3767 29.8333 82.03 31.84C82.2633 30.9067 82.4733 29.7867 82.66 28.48C82.8467 27.1267 82.9867 25.9833 83.08 25.05H87.21ZM83.22 39.26C83.08 41.22 82.87 43.25 82.59 45.35C82.3567 47.45 82.0533 49.5267 81.68 51.58C81.3067 53.6333 80.8867 55.64 80.42 57.6C80 59.5133 79.5567 61.31 79.09 62.99H69.29C69.8033 61.17 70.2933 59.2333 70.76 57.18C71.2733 55.1267 71.7167 53.0733 72.09 51.02C72.51 48.92 72.86 46.8667 73.14 44.86C73.4667 42.8533 73.7 40.9867 73.84 39.26H83.22ZM126.97 18.4C126.877 18.12 126.783 17.7933 126.69 17.42C126.597 17 126.503 16.6267 126.41 16.3L124.24 18.4H126.97ZM108.35 27.08C108.35 27.0333 108.303 26.9633 108.21 26.87C108.163 26.7767 108.093 26.73 108 26.73H105.9C105.62 26.73 105.48 26.87 105.48 27.15V28.9C105.48 28.9933 105.527 29.11 105.62 29.25C105.713 29.39 105.83 29.46 105.97 29.46H107.86C108.187 29.46 108.35 29.3433 108.35 29.11V27.08ZM93.58 18.4C93.4867 18.12 93.3933 17.7467 93.3 17.28C93.2067 16.8133 93.1367 16.3933 93.09 16.02L90.64 18.4H93.58ZM189.5 63.06C185.86 59.1867 182.733 55.1033 180.12 50.81C177.507 46.5167 175.127 42.13 172.98 37.65C171.067 42.3167 168.687 46.7967 165.84 51.09C162.993 55.3367 159.61 59.3267 155.69 63.06H140.64C144.327 59.98 147.827 56.5267 151.14 52.7C154.453 48.8733 157.277 44.7433 159.61 40.31C161.103 37.51 162.317 34.64 163.25 31.7C164.23 28.76 164.883 25.75 165.21 22.67H141.55V16.02H165.84C166.12 13.5933 166.353 11.0733 166.54 8.46C166.727 5.84666 166.843 3.35 166.89 0.969996H177.74C177.647 3.44333 177.553 5.96333 177.46 8.53C177.413 11.05 177.273 13.5467 177.04 16.02H202.87V22.67H176.41C176.317 23.51 176.177 24.5133 175.99 25.68C175.85 26.8467 175.687 27.85 175.5 28.69H180.47C182.01 31.6767 183.573 34.6867 185.16 37.72C186.793 40.7533 188.543 43.74 190.41 46.68C192.277 49.5733 194.307 52.42 196.5 55.22C198.693 57.9733 201.097 60.5867 203.71 63.06H189.5ZM251.75 21.41C251.75 22.67 251.33 23.72 250.49 24.56C249.65 25.4933 248.507 25.96 247.06 25.96H222.28C220.973 25.96 219.923 25.5633 219.13 24.77C218.197 23.8367 217.73 22.6233 217.73 21.13V14.9C217.73 13.4533 218.22 12.2867 219.2 11.4C220.133 10.6067 221.23 10.21 222.49 10.21H247.2C248.46 10.21 249.557 10.6767 250.49 11.61C251.33 12.4967 251.75 13.6167 251.75 14.97V21.41ZM268.76 34.78V54.66C268.76 57.04 268.06 59 266.66 60.54C266.007 61.2867 265.213 61.87 264.28 62.29C263.347 62.71 262.297 62.92 261.13 62.92H235.16L233.06 56.62H256.79C257.863 56.62 258.4 56.1067 258.4 55.08V34.78H212.27V28.83H258.4V7.48H212.76V1.32H273.66V7.48H268.76V28.83H274.15V34.78H268.76ZM251.89 49.13C251.89 50.5767 251.423 51.72 250.49 52.56C249.603 53.4 248.413 53.82 246.92 53.82H223.26C221.627 53.82 220.343 53.47 219.41 52.77C218.243 51.8833 217.66 50.53 217.66 48.71V42.27C217.66 41.4767 217.777 40.8233 218.01 40.31C218.29 39.7967 218.64 39.3533 219.06 38.98C219.573 38.56 220.133 38.28 220.74 38.14C221.393 37.9533 222.117 37.86 222.91 37.86H246.57C248.343 37.86 249.673 38.35 250.56 39.33C251.447 40.2167 251.89 41.5467 251.89 43.32V49.13ZM242.3 17.14C242.3 16.8133 242.16 16.5333 241.88 16.3C241.647 16.02 241.413 15.88 241.18 15.88H228.79C228.51 15.88 228.23 15.9733 227.95 16.16C227.717 16.3467 227.6 16.5567 227.6 16.79V19.24C227.6 19.5667 227.693 19.8233 227.88 20.01C228.113 20.1967 228.347 20.29 228.58 20.29H241.25C241.95 20.29 242.3 19.8933 242.3 19.1V17.14ZM242.3 44.51C242.3 43.95 241.997 43.67 241.39 43.67H229C228.767 43.67 228.533 43.7633 228.3 43.95C228.113 44.09 228.02 44.2767 228.02 44.51V47.31C228.02 47.5433 228.113 47.7533 228.3 47.94C228.533 48.08 228.767 48.15 229 48.15H241.25C241.53 48.15 241.763 48.0333 241.95 47.8C242.183 47.52 242.3 47.24 242.3 46.96V44.51ZM331.5 63.06C327.86 59.1867 324.733 55.1033 322.12 50.81C319.507 46.5167 317.127 42.13 314.98 37.65C313.067 42.3167 310.687 46.7967 307.84 51.09C304.993 55.3367 301.61 59.3267 297.69 63.06H282.64C286.327 59.98 289.827 56.5267 293.14 52.7C296.453 48.8733 299.277 44.7433 301.61 40.31C303.103 37.51 304.317 34.64 305.25 31.7C306.23 28.76 306.883 25.75 307.21 22.67H283.55V16.02H307.84C308.12 13.5933 308.353 11.0733 308.54 8.46C308.727 5.84666 308.843 3.35 308.89 0.969996H319.74C319.647 3.44333 319.553 5.96333 319.46 8.53C319.413 11.05 319.273 13.5467 319.04 16.02H344.87V22.67H318.41C318.317 23.51 318.177 24.5133 317.99 25.68C317.85 26.8467 317.687 27.85 317.5 28.69H322.47C324.01 31.6767 325.573 34.6867 327.16 37.72C328.793 40.7533 330.543 43.74 332.41 46.68C334.277 49.5733 336.307 52.42 338.5 55.22C340.693 57.9733 343.097 60.5867 345.71 63.06H331.5ZM413.98 43.25C413.98 43.9033 413.793 44.51 413.42 45.07C413.093 45.63 412.673 46.1433 412.16 46.61C411.507 47.17 410.807 47.6133 410.06 47.94C409.313 48.2667 408.567 48.43 407.82 48.43H390.67V62.92H379.89V48.43H362.81C361.737 48.43 360.757 48.22 359.87 47.8C359.03 47.3333 358.33 46.7033 357.77 45.91C357.303 45.2567 356.93 44.5333 356.65 43.74C356.417 42.9467 356.3 42.13 356.3 41.29V15.95C356.3 15.39 356.487 14.7833 356.86 14.13C357.233 13.43 357.747 12.8233 358.4 12.31C358.913 11.8433 359.473 11.47 360.08 11.19C360.733 10.91 361.387 10.77 362.04 10.77H379.89V0.899997H390.67V10.77H408.45C409.85 10.77 411.11 11.3767 412.23 12.59C412.743 13.15 413.163 13.78 413.49 14.48C413.817 15.18 413.98 15.9033 413.98 16.65V43.25ZM403.27 19.17C403.27 18.61 403.13 18.1667 402.85 17.84C402.617 17.5133 402.313 17.35 401.94 17.35H390.67V41.85H401.66C402.08 41.85 402.453 41.71 402.78 41.43C403.107 41.15 403.27 40.8233 403.27 40.45V19.17ZM379.89 17.35H368.55C367.57 17.35 367.08 17.8867 367.08 18.96V40.1C367.08 40.52 367.22 40.9167 367.5 41.29C367.827 41.6633 368.247 41.85 368.76 41.85H379.89V17.35ZM477.63 53.05C476.323 49.97 475.157 46.7033 474.13 43.25C473.103 39.7967 472.193 36.2967 471.4 32.75C470.653 29.1567 469.977 25.5633 469.37 21.97C468.81 18.33 468.297 14.8067 467.83 11.4H478.33C478.797 14.7133 479.357 18.1667 480.01 21.76C480.663 25.3533 481.433 28.97 482.32 32.61C483.207 36.2033 484.21 39.75 485.33 43.25C486.45 46.7033 487.71 49.97 489.11 53.05H477.63ZM461.88 56.83C461.88 57.6233 461.693 58.37 461.32 59.07C460.947 59.8167 460.48 60.47 459.92 61.03C459.36 61.59 458.73 62.0333 458.03 62.36C457.377 62.6867 456.747 62.85 456.14 62.85H439.2L437.17 56.13H449.77C450.05 56.13 450.307 56.0133 450.54 55.78C450.82 55.5467 450.96 55.3133 450.96 55.08V1.32H461.88V56.83ZM444.59 11.4C443.703 18.54 442.49 25.61 440.95 32.61C439.457 39.61 437.333 46.4233 434.58 53.05H423.17C424.477 50.1567 425.667 47.03 426.74 43.67C427.86 40.31 428.863 36.8333 429.75 33.24C430.683 29.6467 431.5 26.0067 432.2 22.32C432.947 18.5867 433.623 14.9467 434.23 11.4H444.59ZM546.18 27.22C544.08 24.42 542.12 21.5967 540.3 18.75C538.527 15.8567 536.847 12.8933 535.26 9.86C535.027 9.48666 534.7 9.18333 534.28 8.95C533.907 8.67 533.533 8.53 533.16 8.53H520.56C520.187 8.53 519.837 8.69333 519.51 9.02C519.183 9.3 518.95 9.58 518.81 9.86C517.177 12.94 515.473 15.9267 513.7 18.82C511.973 21.7133 509.967 24.5133 507.68 27.22H494.8C497.74 23.86 500.4 20.3133 502.78 16.58C505.207 12.8 507.54 9.04333 509.78 5.31C510.387 4.28333 511.297 3.46666 512.51 2.86C513.63 2.3 514.82 2.02 516.08 2.02H538.34C539.74 2.02 541.023 2.41666 542.19 3.21C543.123 3.91 543.823 4.65666 544.29 5.45C546.063 8.57666 548.07 11.89 550.31 15.39C552.597 18.89 555.537 22.8333 559.13 27.22H546.18ZM496.9 62.22V55.71H503.69V30.93H514.26V55.71H522.38V19.03H533.09V33.94H552.9V40.38H533.09V55.71H557.73V62.22H496.9ZM626.49 3.21C626.163 4.56333 625.767 5.94 625.3 7.34C624.833 8.74 624.343 10.0933 623.83 11.4H613.61C614.263 10.14 614.847 8.81 615.36 7.41C615.873 6.01 616.317 4.61 616.69 3.21H626.49ZM567.76 18.82V13.01H585.54V1.25H595.62V13.01H601.08V1.25H611.16V13.01H628.73V18.82H567.76ZM572.8 11.4C572.24 10.0467 571.727 8.71666 571.26 7.41C570.84 6.05666 570.443 4.65666 570.07 3.21H579.94C580.407 4.61 580.897 5.98666 581.41 7.34C581.923 8.69333 582.507 10.0467 583.16 11.4H572.8ZM617.18 61.8C615.547 60.3067 613.96 58.6967 612.42 56.97C610.88 55.1967 609.503 53.4467 608.29 51.72H620.54C621.987 53.54 623.527 55.3133 625.16 57.04C626.793 58.7667 628.543 60.3533 630.41 61.8H617.18ZM603.74 49.55V62.78H593.17V49.55H567.9V43.81H593.17V40.17H571.33V34.92H593.17V31.35H569.3V25.54H583.02C582.087 24.98 581.13 24.2567 580.15 23.37C579.17 22.4833 578.353 21.62 577.7 20.78H589.18C589.927 21.6667 590.813 22.53 591.84 23.37C592.867 24.21 593.847 24.9333 594.78 25.54H602.62C603.367 25.0267 604.277 24.3267 605.35 23.44C606.423 22.5067 607.263 21.62 607.87 20.78H619.14C618.487 21.6667 617.647 22.53 616.62 23.37C615.593 24.1633 614.613 24.8867 613.68 25.54H627.4V31.35H603.74V34.92H625.58V40.24H603.74V43.81H628.94V49.55H603.74ZM588.41 51.72C587.15 53.4933 585.75 55.2433 584.21 56.97C582.717 58.6967 581.13 60.3067 579.45 61.8H566.64C568.32 60.3067 570 58.6967 571.68 56.97C573.407 55.2433 575.017 53.4933 576.51 51.72H588.41ZM690.77 62.85C690.397 62.4767 690 61.9633 689.58 61.31C689.207 60.7033 688.833 60.0967 688.46 59.49C688.087 60.1433 687.737 60.7267 687.41 61.24C687.083 61.8 686.733 62.3367 686.36 62.85H667.32V7.48C667.32 5.75333 667.903 4.37666 669.07 3.35C670.19 2.23 671.683 1.67 673.55 1.67H692.24C694.48 1.67 696.16 2.3 697.28 3.56C698.26 4.68 698.75 6.19667 698.75 8.11V17C698.75 18.6333 698.283 19.9867 697.35 21.06C696.837 21.62 696.23 22.0633 695.53 22.39C694.83 22.7167 694.083 22.88 693.29 22.88H683L681.46 16.65H687.76C688.133 16.65 688.46 16.5333 688.74 16.3C689.02 16.02 689.16 15.67 689.16 15.25V9.16C689.16 8.78667 689.02 8.48333 688.74 8.25C688.507 8.01667 688.203 7.9 687.83 7.9H678.24C677.867 7.9 677.563 8.01667 677.33 8.25C677.097 8.48333 676.98 8.78667 676.98 9.16V26.66H693.29C694.597 26.66 695.67 26.87 696.51 27.29C697.397 27.71 698.097 28.2933 698.61 29.04C699.497 30.4867 699.707 32.2133 699.24 34.22C698.54 37.2067 697.63 40.1 696.51 42.9C695.39 45.7 694.223 48.5233 693.01 51.37C694.083 53.0033 695.367 54.8467 696.86 56.9C698.4 58.9067 700.033 60.89 701.76 62.85H690.77ZM663.4 57.53C663.4 58.3233 663.26 59.0233 662.98 59.63C662.747 60.2833 662.42 60.8433 662 61.31C661.02 62.29 659.783 62.78 658.29 62.78H651.64L649.89 56.55H653.18C653.46 56.55 653.717 56.4567 653.95 56.27C654.183 56.0367 654.3 55.7333 654.3 55.36V40.17H650.03C649.937 43.8567 649.75 47.6367 649.47 51.51C649.19 55.3833 648.747 59.14 648.14 62.78H638.69C639.063 61.0533 639.367 59.3967 639.6 57.81C639.833 56.1767 640.02 54.5433 640.16 52.91C640.3 51.23 640.393 49.5267 640.44 47.8C640.533 46.0733 640.58 44.23 640.58 42.27V6.71C640.58 5.26333 641.14 4.05 642.26 3.07C642.727 2.65 643.263 2.32333 643.87 2.09C644.477 1.81 645.107 1.67 645.76 1.67H657.59C659.223 1.67 660.6 2.16 661.72 3.14C662.84 4.12 663.4 5.35666 663.4 6.85V57.53ZM689.72 34.15C689.813 33.87 689.767 33.6133 689.58 33.38C689.44 33.1 689.207 32.96 688.88 32.96H676.98V36.39H684.54C684.913 37.4167 685.31 38.4667 685.73 39.54C686.197 40.5667 686.687 41.5467 687.2 42.48C687.713 41.1267 688.203 39.7733 688.67 38.42C689.137 37.0667 689.487 35.6433 689.72 34.15ZM654.3 9.3C654.3 8.83333 654.16 8.48333 653.88 8.25C653.6 8.01667 653.297 7.9 652.97 7.9H650.87C650.59 7.9 650.357 8.04 650.17 8.32C649.983 8.55333 649.89 8.85666 649.89 9.23V18.12H654.3V9.3ZM683.07 52.07C681.997 50.11 680.947 48.1267 679.92 46.12C678.893 44.1133 677.913 42.0833 676.98 40.03V62.08C678.1 60.54 679.15 58.93 680.13 57.25C681.157 55.5233 682.137 53.7967 683.07 52.07ZM654.3 24.14H649.89V33.94H654.3V24.14ZM760.23 34.85C759.297 34.1967 758.317 33.4733 757.29 32.68C756.263 31.8867 755.283 31.1633 754.35 30.51C753.79 31.0233 753.043 31.6767 752.11 32.47C751.177 33.2633 750.36 33.9633 749.66 34.57H755.96C755.96 35.1767 755.937 35.9 755.89 36.74C755.843 37.58 755.797 38.35 755.75 39.05H764.01C765.877 39.05 767.393 39.6333 768.56 40.8C769.54 41.8733 770.03 43.2033 770.03 44.79V57.25C770.03 58.79 769.517 60.0267 768.49 60.96C767.23 62.1267 765.69 62.71 763.87 62.71H754L752.25 56.41H758.97C759.343 56.41 759.647 56.3167 759.88 56.13C760.113 55.9433 760.23 55.6633 760.23 55.29V46.61C760.23 46.2367 760.09 45.8867 759.81 45.56C759.53 45.2333 759.157 45.07 758.69 45.07H755.19C755.003 46.5167 754.607 48.0567 754 49.69C753.44 51.2767 752.763 52.8633 751.97 54.45C751.177 55.99 750.29 57.4833 749.31 58.93C748.33 60.33 747.327 61.59 746.3 62.71H734.82C737.387 60.33 739.65 57.6 741.61 54.52C743.617 51.44 744.947 48.29 745.6 45.07H740.98V39.05H746.16C746.253 38.3967 746.3 37.72 746.3 37.02C746.3 36.32 746.3 35.6433 746.3 34.99H738.81V48.78H732.23V31.91C732.23 31.5833 732.09 31.3033 731.81 31.07C731.577 30.8367 731.32 30.72 731.04 30.72H729.99V56.76C729.99 58.72 729.36 60.2133 728.1 61.24C727.493 61.7533 726.77 62.1267 725.93 62.36C725.137 62.5933 724.273 62.71 723.34 62.71L712.77 62.78L710.81 56.41H719.7C720.54 56.41 720.983 56.0133 721.03 55.22V30.72H709.41V24.49H719.28C718.02 22.3433 716.807 20.1733 715.64 17.98C714.52 15.74 713.493 13.4533 712.56 11.12H722.5C722.733 11.68 722.967 12.24 723.2 12.8C723.48 13.36 723.76 13.8967 724.04 14.41C724.787 13.4767 725.487 12.45 726.14 11.33C726.84 10.1633 727.493 9.04333 728.1 7.97H711.44V1.74H732.93C734.05 1.74 735.007 1.95 735.8 2.37C736.593 2.79 737.2 3.35 737.62 4.05C738.04 4.75 738.227 5.56666 738.18 6.5C738.133 7.38666 737.807 8.32 737.2 9.3C736.593 10.28 735.893 11.3533 735.1 12.52C734.353 13.64 733.56 14.7833 732.72 15.95C731.927 17.1167 731.133 18.2367 730.34 19.31C729.547 20.3367 728.823 21.2467 728.17 22.04C728.45 22.46 728.73 22.88 729.01 23.3C729.29 23.72 729.57 24.1167 729.85 24.49H733.49C735.17 24.49 736.477 25.0033 737.41 26.03C738.343 27.0567 738.81 28.3633 738.81 29.95V32.12C740.49 30.9067 742.077 29.6933 743.57 28.48C745.11 27.22 746.58 25.89 747.98 24.49C747 23.4633 745.95 22.39 744.83 21.27C743.71 20.1033 742.637 18.9133 741.61 17.7H736.5C738.133 15.0867 739.557 12.4033 740.77 9.65C741.983 6.85 743.08 3.98 744.06 1.04H753.72C753.533 1.83333 753.3 2.67333 753.02 3.56C752.787 4.44666 752.507 5.33333 752.18 6.22H770.59V12.31H766.95C766.577 14.3633 765.713 16.4633 764.36 18.61C763.007 20.7567 761.443 22.74 759.67 24.56C761.537 26.24 763.707 27.99 766.18 29.81C768.653 31.63 771.29 33.31 774.09 34.85H760.23ZM719.42 33.45C719.28 35.3167 719.047 37.1833 718.72 39.05C718.44 40.9167 718.067 42.7367 717.6 44.51C717.133 46.2367 716.643 47.8933 716.13 49.48C715.617 51.0667 715.08 52.5367 714.52 53.89H706.89C708.243 50.5767 709.387 47.17 710.32 43.67C711.253 40.17 711.883 36.7633 712.21 33.45H719.42ZM749.59 12.31C749.357 12.8233 749.053 13.4067 748.68 14.06C748.353 14.7133 748.073 15.25 747.84 15.67H750.78C751.293 16.23 751.807 16.86 752.32 17.56C752.88 18.26 753.323 18.82 753.65 19.24C754.537 18.26 755.283 17.21 755.89 16.09C756.543 14.97 756.917 13.71 757.01 12.31H749.59Z" fill="url(#paint0_linear_89_176)"/>
<path d="M193.7 142.78C193.047 141.893 192.417 140.983 191.81 140.05C191.25 139.163 190.69 138.253 190.13 137.32C189.617 138.253 189.08 139.187 188.52 140.12C188.007 141.053 187.423 141.94 186.77 142.78H176.9C178.44 140.26 179.933 137.763 181.38 135.29C182.873 132.817 184.18 130.227 185.3 127.52C183.947 124.44 182.757 121.29 181.73 118.07C180.75 114.803 179.817 111.513 178.93 108.2H187.61C187.89 109.273 188.193 110.323 188.52 111.35C188.847 112.33 189.197 113.333 189.57 114.36C190.177 111.747 190.667 109.087 191.04 106.38C191.46 103.673 191.787 100.943 192.02 98.19H189.57C189.243 99.4033 188.917 100.617 188.59 101.83C188.31 103.043 187.983 104.257 187.61 105.47H178.58C179.653 101.503 180.587 97.49 181.38 93.43C182.22 89.37 182.873 85.2167 183.34 80.97H192.44C192.253 82.7433 192.02 84.5167 191.74 86.29C191.507 88.0167 191.227 89.7667 190.9 91.54H203.01V98.19H200.77C200.257 103.277 199.58 108.27 198.74 113.17C197.9 118.07 196.617 122.807 194.89 127.38C196.197 130.04 197.55 132.653 198.95 135.22C200.397 137.787 201.937 140.307 203.57 142.78H193.7ZM172.28 99.73V110.09H173.89C174.543 110.09 175.15 110.277 175.71 110.65C176.27 110.977 176.783 111.397 177.25 111.91C178.09 112.89 178.51 113.963 178.51 115.13V135.64C178.51 136.34 178.37 137.017 178.09 137.67C177.857 138.323 177.483 138.883 176.97 139.35C176.037 140.19 174.917 140.61 173.61 140.61H163.11C160.917 140.61 159.307 139.957 158.28 138.65C157.533 137.717 157.16 136.317 157.16 134.45V114.57C157.16 114.01 157.323 113.45 157.65 112.89C157.977 112.33 158.397 111.817 158.91 111.35C159.33 110.977 159.773 110.673 160.24 110.44C160.753 110.207 161.243 110.09 161.71 110.09H162.83V99.73H156.11V93.22H162.83V80.97H172.28V93.22H179.07V99.73H172.28ZM158.35 80.97C157.557 85.1233 156.577 89.2067 155.41 93.22C154.243 97.2333 152.913 101.2 151.42 105.12H154.08V142.85H144.14V107.5H140.5C142.273 103.253 143.767 98.9133 144.98 94.48C146.24 90.0467 147.29 85.5433 148.13 80.97H158.35ZM170.25 117.44C170.25 117.207 170.133 116.997 169.9 116.81C169.667 116.623 169.433 116.53 169.2 116.53H166.89C166.657 116.53 166.4 116.623 166.12 116.81C165.887 116.997 165.77 117.207 165.77 117.44V133.19C165.77 133.423 165.84 133.657 165.98 133.89C166.167 134.123 166.377 134.24 166.61 134.24H169.27C169.55 134.24 169.783 134.123 169.97 133.89C170.157 133.657 170.25 133.423 170.25 133.19V117.44ZM264.56 116.88C263.627 114.08 262.787 111.28 262.04 108.48C261.293 105.68 260.617 102.787 260.01 99.8H270.02C270.673 102.74 271.397 105.633 272.19 108.48C272.983 111.28 273.847 114.08 274.78 116.88H264.56ZM263.37 97.63V93.22C263.37 92.8 263.207 92.45 262.88 92.17C262.6 91.8433 262.203 91.68 261.69 91.68H257.7V114.78C257.7 115.433 257.56 116.087 257.28 116.74C257 117.347 256.627 117.883 256.16 118.35C255.647 118.817 255.087 119.19 254.48 119.47C253.873 119.75 253.243 119.89 252.59 119.89H244.19L242.37 113.45H246.92C247.153 113.45 247.34 113.333 247.48 113.1C247.667 112.867 247.76 112.633 247.76 112.4V91.68H244.12C243.933 92.0533 243.7 92.52 243.42 93.08C243.187 93.5933 242.907 94.13 242.58 94.69C242.3 95.25 242.02 95.7867 241.74 96.3C241.46 96.7667 241.203 97.1867 240.97 97.56H229.56C231.24 94.9 232.733 92.17 234.04 89.37C235.393 86.57 236.677 83.7467 237.89 80.9H248.81C248.297 82.44 247.713 83.9333 247.06 85.38H267.57C269.437 85.38 270.883 86.0333 271.91 87.34C272.843 88.4133 273.31 89.8133 273.31 91.54V97.63H263.37ZM264.56 141.59C263.487 138.93 262.53 136.27 261.69 133.61C260.85 130.95 260.033 128.22 259.24 125.42H269.6C270.393 128.08 271.257 130.787 272.19 133.54C273.123 136.247 274.127 138.93 275.2 141.59H264.56ZM245.31 99.8C243.77 105.587 241.81 111.233 239.43 116.74H228.72C230.027 114.08 231.17 111.35 232.15 108.55C233.177 105.75 234.133 102.833 235.02 99.8H245.31ZM233.34 80.9C232.08 83.98 230.703 87.0133 229.21 90C227.717 92.9867 226.13 95.9967 224.45 99.03H226.76V119.89H216.89V100.71H211.78C213.787 97.49 215.653 94.2233 217.38 90.91C219.107 87.5967 220.717 84.26 222.21 80.9H233.34ZM245.45 132.84C244.797 131.067 244.167 129.317 243.56 127.59C243 125.863 242.463 124.09 241.95 122.27H252.24C252.753 124.09 253.29 125.887 253.85 127.66C254.41 129.387 255.063 131.113 255.81 132.84H245.45ZM259.38 142.5H235.44C233.573 142.5 232.01 141.917 230.75 140.75C229.583 139.677 229 138.23 229 136.41V122.76H239.22V134.66C239.22 134.893 239.36 135.197 239.64 135.57C239.92 135.897 240.2 136.06 240.48 136.06H260.78L259.38 142.5ZM227.18 125.21C226.48 128.15 225.71 130.927 224.87 133.54C224.03 136.153 223.143 138.79 222.21 141.45H211.5C212.667 138.883 213.693 136.27 214.58 133.61C215.467 130.95 216.307 128.15 217.1 125.21H227.18ZM321.56 128.22C319.927 124.86 318.503 121.43 317.29 117.93C316.077 114.43 314.933 110.883 313.86 107.29H323.66C324.92 110.883 326.227 114.43 327.58 117.93C328.98 121.43 330.59 124.86 332.41 128.22H321.56ZM344.45 136.69C344.45 137.577 344.263 138.393 343.89 139.14C343.563 139.887 343.097 140.54 342.49 141.1C341.883 141.613 341.183 142.033 340.39 142.36C339.643 142.687 338.85 142.85 338.01 142.85H325.55L323.1 136.34H333.25C333.67 136.34 334.043 136.177 334.37 135.85C334.697 135.477 334.86 135.103 334.86 134.73V97.49C334.86 97.1167 334.65 96.7667 334.23 96.44C333.857 96.0667 333.483 95.88 333.11 95.88H324.08C323.753 97.3733 323.333 98.9133 322.82 100.5C322.307 102.04 321.723 103.487 321.07 104.84H310.92V135.5C310.92 137.367 310.453 138.767 309.52 139.7C308.493 140.727 307.047 141.24 305.18 141.24H289.71C287.983 141.24 286.583 140.657 285.51 139.49C284.997 138.977 284.6 138.393 284.32 137.74C284.04 137.04 283.9 136.293 283.9 135.5V94.62C283.9 93.7333 284.04 92.9867 284.32 92.38C284.6 91.7267 284.973 91.1667 285.44 90.7C286.093 90.0933 286.863 89.6733 287.75 89.44C288.637 89.16 289.547 89.0667 290.48 89.16C290.947 87.8067 291.367 86.4533 291.74 85.1C292.113 83.7 292.487 82.2767 292.86 80.83H303.36C302.987 82.23 302.613 83.63 302.24 85.03C301.913 86.43 301.54 87.8067 301.12 89.16H304.76C306.72 89.16 308.283 89.6967 309.45 90.77C310.43 91.8433 310.92 93.2433 310.92 94.97V103.02C312.32 99.4733 313.557 95.8333 314.63 92.1C315.703 88.3667 316.637 84.61 317.43 80.83H327.58C327.347 81.9967 327.067 83.3733 326.74 84.96C326.46 86.5 326.133 87.9933 325.76 89.44H337.94C339.947 89.44 341.58 90.1167 342.84 91.47C343.353 91.9833 343.75 92.6133 344.03 93.36C344.31 94.06 344.45 94.8533 344.45 95.74V136.69ZM301.75 97.07C301.75 96.7433 301.61 96.4633 301.33 96.23C301.05 95.9967 300.747 95.88 300.42 95.88H294.82C293.887 95.88 293.42 96.3233 293.42 97.21V111.28H301.75V97.07ZM301.75 117.51H293.42V133.19C293.42 133.517 293.537 133.843 293.77 134.17C294.05 134.497 294.377 134.66 294.75 134.66H300.49C300.863 134.66 301.167 134.52 301.4 134.24C301.633 133.96 301.75 133.633 301.75 133.26V117.51ZM415.17 123.88C415.17 126.213 414.54 127.987 413.28 129.2C412.16 130.32 410.527 130.88 408.38 130.88H401.45V142.85H391.86V130.88H385.77C383.39 130.88 381.547 130.343 380.24 129.27C378.933 128.15 378.28 126.377 378.28 123.95V97.14C378.28 95.0867 379.003 93.4767 380.45 92.31C381.663 91.33 383.133 90.84 384.86 90.84H391.86V80.97H401.45V90.84H407.61C410.13 90.84 412.043 91.4933 413.35 92.8C414.563 94.0133 415.17 95.67 415.17 97.77V123.88ZM371.84 124.02C371.653 122.993 371.467 121.85 371.28 120.59C371.093 119.283 370.93 117.953 370.79 116.6C370.65 115.247 370.533 113.917 370.44 112.61C370.347 111.257 370.277 110.043 370.23 108.97C370.137 109.25 369.927 109.717 369.6 110.37C369.273 110.977 369.017 111.42 368.83 111.7V142.85H358.75V120.1H352.66C355.46 116.087 357.98 112.05 360.22 107.99C362.507 103.93 364.397 99.87 365.89 95.81C365.937 95.67 365.89 95.53 365.75 95.39C365.61 95.2033 365.47 95.11 365.33 95.11H354.97V88.6H360.08C359.753 87.4333 359.427 86.1733 359.1 84.82C358.82 83.4667 358.563 82.1833 358.33 80.97H368.62C368.807 82.2767 369.04 83.5833 369.32 84.89C369.647 86.15 369.997 87.41 370.37 88.67C372.657 88.67 374.29 89.23 375.27 90.35C376.343 91.47 376.483 93.2667 375.69 95.74C374.99 97.98 374.197 100.197 373.31 102.39C372.423 104.537 371.443 106.66 370.37 108.76H375.13C375.223 109.927 375.317 111.187 375.41 112.54C375.503 113.847 375.62 115.177 375.76 116.53C375.9 117.883 376.063 119.213 376.25 120.52C376.437 121.78 376.647 122.947 376.88 124.02H371.84ZM406 99.17C406 98.7967 405.813 98.4 405.44 97.98C405.113 97.56 404.74 97.35 404.32 97.35H401.45V108.06H406V99.17ZM391.86 97.35H388.64C388.313 97.35 388.01 97.5133 387.73 97.84C387.497 98.1667 387.38 98.47 387.38 98.75V108.06H391.86V97.35ZM406 114.43H401.45V124.51H404.74C405.02 124.51 405.3 124.37 405.58 124.09C405.86 123.81 406 123.483 406 123.11V114.43ZM391.86 114.43H387.38V122.76C387.38 123.227 387.52 123.647 387.8 124.02C388.127 124.347 388.453 124.51 388.78 124.51H391.86V114.43ZM455.44 89.51C454.787 88.1567 454.157 86.78 453.55 85.38C452.943 83.9333 452.383 82.4633 451.87 80.97H461.81C462.323 82.4633 462.907 83.9567 463.56 85.45C464.213 86.8967 464.913 88.25 465.66 89.51H455.44ZM487.64 104.14C487.08 106.613 486.427 109.063 485.68 111.49C484.933 113.917 484.047 116.25 483.02 118.49H475.11C475.25 121.43 475.297 124.253 475.25 126.96C475.25 129.667 475.203 132.49 475.11 135.43C474.97 137.577 474.27 139.303 473.01 140.61C471.61 142.103 469.743 142.85 467.41 142.85H461.39L459.85 136.41H463.42C463.933 136.41 464.377 136.27 464.75 135.99C465.123 135.663 465.333 135.243 465.38 134.73C465.66 131.883 465.823 128.99 465.87 126.05C465.917 123.063 465.847 120.123 465.66 117.23C465.567 115.737 465.193 114.15 464.54 112.47C463.887 110.743 463.047 109.273 462.02 108.06C461.647 108.48 461.273 108.877 460.9 109.25C460.527 109.577 460.107 109.927 459.64 110.3H446.83C449.07 108.48 451.193 106.543 453.2 104.49C455.253 102.437 457.213 100.36 459.08 98.26H448.93V91.96H468.95C469.977 90.1867 470.91 88.39 471.75 86.57C472.59 84.75 473.407 82.9067 474.2 81.04H484.98C484.187 82.9067 483.347 84.75 482.46 86.57C481.573 88.39 480.64 90.1867 479.66 91.96H487.08V98.26H470.49C470.117 98.82 469.673 99.4267 469.16 100.08C468.693 100.687 468.25 101.223 467.83 101.69C469.977 103.65 471.563 105.843 472.59 108.27C473.617 110.697 474.363 113.24 474.83 115.9C475.623 113.987 476.347 112.073 477 110.16C477.653 108.247 478.283 106.24 478.89 104.14H487.64ZM479.66 139.84C478.82 136.9 478.12 133.843 477.56 130.67C477 127.497 476.533 124.3 476.16 121.08H484.84C485.213 124.253 485.703 127.427 486.31 130.6C486.917 133.727 487.57 136.807 488.27 139.84H479.66ZM465.52 123.46C464.96 124.627 464.26 125.957 463.42 127.45C462.627 128.897 461.763 130.367 460.83 131.86C459.897 133.307 458.94 134.73 457.96 136.13C456.98 137.53 456.047 138.767 455.16 139.84L444.31 139.77C445.057 138.837 445.85 137.787 446.69 136.62C447.53 135.407 448.393 134.17 449.28 132.91C450.167 131.603 451.007 130.32 451.8 129.06C452.64 127.753 453.387 126.517 454.04 125.35H447.6C447.46 126.377 447.273 127.217 447.04 127.87C446.807 128.477 446.363 129.13 445.71 129.83C445.103 130.483 444.403 131.02 443.61 131.44C442.863 131.813 441.953 132 440.88 132H436.75L435.42 127.03V142.78H425.76V86.57C425.76 84.9367 426.227 83.6533 427.16 82.72C428.187 81.8333 429.633 81.39 431.5 81.39H443.75C445.523 81.39 446.807 81.9267 447.6 83C448.393 84.0733 448.65 85.4733 448.37 87.2C447.903 90.0467 447.343 92.87 446.69 95.67C446.037 98.4233 445.337 101.107 444.59 103.72C444.497 104 444.45 104.397 444.45 104.91C444.497 105.423 444.567 105.82 444.66 106.1C445.22 107.547 445.687 108.877 446.06 110.09C446.48 111.303 446.83 112.517 447.11 113.73C447.39 114.897 447.6 116.133 447.74 117.44C447.927 118.7 448.067 120.1 448.16 121.64C449.233 120.147 450.19 118.63 451.03 117.09C451.917 115.55 452.757 113.963 453.55 112.33L463.56 112.4C462.767 114.22 461.88 116.11 460.9 118.07C459.967 120.03 458.94 121.827 457.82 123.46H465.52ZM439.48 88.81C439.527 88.5767 439.457 88.3433 439.27 88.11C439.13 87.8767 438.943 87.76 438.71 87.76H436.61C436.283 87.76 436.003 87.8533 435.77 88.04C435.537 88.2267 435.42 88.4833 435.42 88.81V125.14H437.66C438.5 125.14 438.967 124.673 439.06 123.74C439.293 120.707 439.177 117.813 438.71 115.06C438.243 112.26 437.567 109.46 436.68 106.66C436.493 106.053 436.4 105.423 436.4 104.77C436.447 104.117 436.563 103.463 436.75 102.81C437.263 100.477 437.753 98.1667 438.22 95.88C438.687 93.5467 439.107 91.19 439.48 88.81ZM543.59 142.85C542.843 142.383 542.027 141.847 541.14 141.24C540.3 140.633 539.437 140.003 538.55 139.35C537.663 138.697 536.8 138.02 535.96 137.32C535.12 136.62 534.35 135.943 533.65 135.29C532.297 136.597 530.757 137.903 529.03 139.21C527.35 140.563 525.647 141.777 523.92 142.85H508.52C511.6 140.703 514.773 138.463 518.04 136.13C521.353 133.797 524.34 131.417 527 128.99C526.113 127.917 525.157 126.75 524.13 125.49C523.103 124.23 522.077 122.947 521.05 121.64C520.07 120.287 519.09 118.957 518.11 117.65C517.177 116.343 516.313 115.107 515.52 113.94C514.913 119.587 513.817 124.883 512.23 129.83C510.69 134.73 508.473 139.07 505.58 142.85H494.45C497.25 138.837 499.397 134.893 500.89 131.02C502.383 127.147 503.457 123.157 504.11 119.05C504.39 117.23 504.647 115.317 504.88 113.31C505.113 111.257 505.3 109.18 505.44 107.08C505.627 104.98 505.767 102.903 505.86 100.85C505.953 98.75 506 96.72 506 94.76H496.76V88.18H506V80.97H516.71V88.18H557.59V94.76H516.71C516.71 95.18 516.687 95.74 516.64 96.44C516.64 97.14 516.617 97.8633 516.57 98.61C516.523 99.3567 516.477 100.08 516.43 100.78C516.43 101.433 516.43 101.947 516.43 102.32H549.47C550.683 102.32 551.733 102.553 552.62 103.02C553.507 103.44 554.207 104 554.72 104.7C555.607 106.193 555.63 107.92 554.79 109.88C554.183 111.28 553.32 112.82 552.2 114.5C551.127 116.133 549.937 117.79 548.63 119.47C547.37 121.15 546.04 122.783 544.64 124.37C543.24 125.957 541.91 127.38 540.65 128.64C543.497 131.44 546.53 134.03 549.75 136.41C552.97 138.743 556.26 140.89 559.62 142.85H543.59ZM543.66 109.88C543.753 109.74 543.753 109.553 543.66 109.32C543.613 109.087 543.497 108.947 543.31 108.9H516.15C516.103 109.367 516.057 110.043 516.01 110.93C515.963 111.817 515.893 112.54 515.8 113.1H526.93C527.21 113.613 527.63 114.267 528.19 115.06C528.75 115.807 529.333 116.6 529.94 117.44C530.593 118.28 531.247 119.12 531.9 119.96C532.6 120.753 533.23 121.43 533.79 121.99C535.563 120.123 537.337 118.163 539.11 116.11C540.93 114.057 542.447 111.98 543.66 109.88ZM601.29 123.53H594.71L592.33 86.64H603.67L601.29 123.53ZM592.82 138.3V128.29H603.32V138.3H592.82Z" fill="url(#paint1_linear_89_176)"/>
<defs>
<linearGradient id="paint0_linear_89_176" x1="6.9214" y1="-13" x2="762.397" y2="-13" gradientUnits="userSpaceOnUse">
<stop stop-color="#624BEE"/>
<stop offset="0.25331" stop-color="#A6469E"/>
<stop offset="0.49318" stop-color="#E0425A"/>
<stop offset="0.695051" stop-color="#F2522C"/>
<stop offset="0.791236" stop-color="#F95D16"/>
<stop offset="1" stop-color="#FF6700"/>
</linearGradient>
<linearGradient id="paint1_linear_89_176" x1="6.9214" y1="-13" x2="762.397" y2="-13" gradientUnits="userSpaceOnUse">
<stop/>
<stop offset="0.25331" stop-color="#A6469E"/>
<stop offset="0.49318" stop-color="#E0425A"/>
<stop offset="0.695051" stop-color="#F2522C"/>
<stop offset="0.791236" stop-color="#F95D16"/>
<stop offset="1" stop-color="#FF6700"/>
</linearGradient>
</defs>
</svg>
