<svg width="268" height="137" viewBox="0 0 268 137" fill="none" xmlns="http://www.w3.org/2000/svg">
<path d="M69.96 16.96C69.64 16.5867 69.3067 16.1467 68.96 15.64C68.64 15.1333 68.3733 14.72 68.16 14.4L66.92 16.96H44.92C44.3333 16.96 43.84 16.8267 43.44 16.56C43.0667 16.2667 42.7867 15.9067 42.6 15.48C42.4133 15.08 42.3333 14.6667 42.36 14.24C42.4133 13.8133 42.5867 13.4267 42.88 13.08L53.48 0.559999H61.12L50.4 13.32H67.48C66.76 12.2 66.0667 11.0667 65.4 9.92C64.76 8.74667 64.16 7.58667 63.6 6.44H70.44C71.2133 8.01333 72.16 9.74667 73.28 11.64C74.4267 13.5067 75.68 15.28 77.04 16.96H69.96ZM74.96 32.36C74.96 33.32 74.6667 34.12 74.08 34.76C73.4133 35.5067 72.5467 35.88 71.48 35.88H47.52C46.8267 35.88 46.2267 35.76 45.72 35.52C45.24 35.28 44.84 34.9467 44.52 34.52C43.9333 33.7733 43.64 32.8267 43.64 31.68V23.88C43.64 23 43.96 22.2133 44.6 21.52C44.9733 21.12 45.4133 20.8 45.92 20.56C46.4267 20.32 46.96 20.2 47.52 20.2H71C71.5333 20.2 72.0267 20.3067 72.48 20.52C72.96 20.7067 73.3867 20.96 73.76 21.28C74.1333 21.6267 74.4267 22.0267 74.64 22.48C74.8533 22.9067 74.96 23.3733 74.96 23.88V32.36ZM68.88 24.84C68.88 24.68 68.7733 24.5067 68.56 24.32C68.3733 24.1333 68.1867 24.04 68 24.04H50.6C50.3867 24.04 50.1867 24.12 50 24.28C49.84 24.44 49.76 24.6267 49.76 24.84V31.36C49.76 31.5733 49.8533 31.76 50.04 31.92C50.2533 32.08 50.44 32.16 50.6 32.16H68C68.1867 32.16 68.3733 32.08 68.56 31.92C68.7733 31.76 68.88 31.5867 68.88 31.4V24.84ZM115.76 13.44C115.68 13.2267 115.573 12.9333 115.44 12.56C115.307 12.1867 115.2 11.88 115.12 11.64L114.24 13.48H109.6C109.227 13.48 108.907 13.3733 108.64 13.16C108.4 12.9467 108.227 12.6933 108.12 12.4C108.013 12.1333 107.987 11.8533 108.04 11.56C108.093 11.2667 108.24 11 108.48 10.76L111.6 7.6H109.56C109.16 7.6 108.84 7.52 108.6 7.36C108.36 7.2 108.2 7 108.12 6.76C108.013 6.52 107.973 6.25333 108 5.96C108.053 5.66667 108.187 5.38667 108.4 5.12L111.68 0.919999H116.8L113.8 4.68H116.48C116.747 4.68 116.96 4.76 117.12 4.92C117.28 5.08 117.4 5.26667 117.48 5.48C117.56 5.69333 117.573 5.90667 117.52 6.12C117.493 6.33333 117.427 6.50667 117.32 6.64L114.8 9.28H117.16C117.213 9.52 117.28 9.82667 117.36 10.2C117.44 10.5467 117.533 10.92 117.64 11.32C117.773 11.6933 117.907 12.0667 118.04 12.44C118.173 12.8133 118.293 13.1467 118.4 13.44H115.76ZM98.52 5.2V2.68H100.72C100.667 2.52 100.573 2.26667 100.44 1.92C100.307 1.54666 100.187 1.21333 100.08 0.919999H104.84C104.947 1.21333 105.067 1.50666 105.2 1.8C105.333 2.09333 105.48 2.38667 105.64 2.68H107.88V5.2H98.52ZM115.68 19.52C115.6 19.2267 115.507 18.8667 115.4 18.44C115.32 18.0133 115.24 17.5733 115.16 17.12C115.107 16.6667 115.053 16.2267 115 15.8C114.973 15.3467 114.96 14.9467 114.96 14.6H117.56C117.587 15.2933 117.667 16.12 117.8 17.08C117.96 18.04 118.133 18.8533 118.32 19.52H115.68ZM112.36 19.52C112.333 19.2267 112.293 18.88 112.24 18.48C112.187 18.08 112.133 17.6533 112.08 17.2C112.053 16.72 112.027 16.2533 112 15.8C111.973 15.3467 111.96 14.9467 111.96 14.6H114.24C114.24 14.9467 114.253 15.3467 114.28 15.8C114.307 16.2533 114.347 16.7067 114.4 17.16C114.453 17.6133 114.507 18.0533 114.56 18.48C114.613 18.88 114.667 19.2267 114.72 19.52H112.36ZM99.32 8.84V6.52H107.48V8.84H99.32ZM111.32 14.6C111.267 15.5067 111.16 16.4 111 17.28C110.84 18.16 110.667 18.9067 110.48 19.52H107.92C108.107 18.9333 108.293 18.1733 108.48 17.24C108.667 16.3067 108.813 15.4267 108.92 14.6H111.32ZM99.32 12.36V10H107.48V12.36H99.32ZM107.52 17.76C107.52 18.1333 107.36 18.4667 107.04 18.76C106.64 19.1067 106.16 19.28 105.6 19.28H101.08C100.547 19.28 100.133 19.12 99.84 18.8C99.52 18.48 99.36 18.08 99.36 17.6V15.16C99.36 14.6533 99.52 14.2667 99.84 14C100.213 13.68 100.747 13.52 101.44 13.52H105.88C106.387 13.52 106.8 13.7067 107.12 14.08C107.387 14.3733 107.52 14.7333 107.52 15.16V17.76ZM96.52 13.48C96.44 13.2667 96.3333 12.9467 96.2 12.52C96.0933 12.0933 96.0133 11.7333 95.96 11.44L95.04 13.48H90.12C89.8 13.48 89.5067 13.3867 89.24 13.2C89 12.9867 88.8267 12.7333 88.72 12.44C88.5333 11.8533 88.6933 11.3067 89.2 10.8L92.44 7.6H90.48C90.16 7.6 89.8933 7.54667 89.68 7.44C89.4933 7.33333 89.3333 7.2 89.2 7.04C88.9867 6.77333 88.88 6.48 88.88 6.16C88.9067 5.84 89.0133 5.56 89.2 5.32L92.48 0.919999H97.6L94.48 4.72H97.04C97.3333 4.72 97.5733 4.8 97.76 4.96C97.9467 5.12 98.0933 5.30667 98.2 5.52C98.3867 6.02667 98.3467 6.41333 98.08 6.68L95.6 9.28H98.08C98.16 9.92 98.2933 10.6267 98.48 11.4C98.6933 12.1467 98.9333 12.84 99.2 13.48H96.52ZM84.28 9.68C84.0933 9.12 83.8933 8.48 83.68 7.76C83.4667 7.01333 83.2533 6.25333 83.04 5.48C82.8533 4.68 82.68 3.89333 82.52 3.12C82.36 2.34666 82.2267 1.62666 82.12 0.959999H87.32C87.4 1.6 87.5067 2.32 87.64 3.12C87.8 3.92 87.9733 4.72 88.16 5.52C88.3733 6.29333 88.5867 7.05333 88.8 7.8C89.04 8.52 89.2667 9.14667 89.48 9.68H84.28ZM96.4 19.52C96.32 19.2267 96.24 18.8667 96.16 18.44C96.08 18.0133 96.0133 17.5733 95.96 17.12C95.9067 16.64 95.8533 16.1867 95.8 15.76C95.7733 15.3067 95.76 14.92 95.76 14.6H98.04C98.0667 14.92 98.1067 15.2933 98.16 15.72C98.2133 16.12 98.2667 16.5467 98.32 17C98.4 17.4533 98.48 17.9067 98.56 18.36C98.6667 18.7867 98.76 19.1733 98.84 19.52H96.4ZM92.96 19.52C92.9333 19.2 92.8933 18.84 92.84 18.44C92.8133 18.0133 92.7867 17.5867 92.76 17.16C92.7333 16.7067 92.7067 16.2667 92.68 15.84C92.68 15.3867 92.68 14.9733 92.68 14.6H94.88C94.88 14.92 94.8933 15.2933 94.92 15.72C94.9733 16.1467 95.0133 16.5867 95.04 17.04C95.0933 17.4933 95.1467 17.9467 95.2 18.4C95.2533 18.8267 95.32 19.2 95.4 19.52H92.96ZM117.44 33.68C117.44 34.0533 117.373 34.4 117.24 34.72C117.133 35.04 116.96 35.2933 116.72 35.48C116.213 35.9067 115.4 36.12 114.28 36.12H101.88L100.48 33.28H110.92C111.027 33.28 111.133 33.24 111.24 33.16C111.347 33.0533 111.4 32.9467 111.4 32.84V32.04C111.4 31.7467 111.267 31.6 111 31.6H93C92.7333 31.6 92.48 31.52 92.24 31.36C92.0267 31.2 91.8133 31.0133 91.6 30.8C91.3867 30.5867 91.2267 30.36 91.12 30.12C91.0133 29.8533 90.9733 29.64 91 29.48L91.4 26.52C91.4267 26.3333 91.5067 26.12 91.64 25.88C91.8 25.64 92 25.4267 92.24 25.24C92.64 24.8933 93.08 24.72 93.56 24.72H110.72L111 24.24V23.48L110.72 23.28H90.6V20.44H114C114.72 20.44 115.293 20.64 115.72 21.04C116.2 21.4667 116.44 22.0933 116.44 22.92V24.92C116.44 25.6933 116.24 26.3067 115.84 26.76C115.36 27.24 114.68 27.48 113.8 27.48H97.44C97.12 27.48 96.9467 27.6133 96.92 27.88L96.88 28.32C96.8533 28.4267 96.8933 28.5467 97 28.68C97.1333 28.7867 97.2667 28.84 97.4 28.84H115.12C115.68 28.84 116.187 29.04 116.64 29.44C117.173 29.9733 117.44 30.6267 117.44 31.4V33.68ZM92.12 14.6C92.0933 15 92.0533 15.44 92 15.92C91.9467 16.3733 91.88 16.8267 91.8 17.28C91.7467 17.7333 91.68 18.16 91.6 18.56C91.5467 18.9333 91.48 19.2533 91.4 19.52H89.52L89.68 20.32H84.32C83.8667 18.88 83.48 17.4267 83.16 15.96C82.8667 14.4933 82.5867 12.9867 82.32 11.44H87.56C87.72 12.6667 87.9333 13.8667 88.2 15.04C88.4667 16.1867 88.7867 17.3333 89.16 18.48C89.2933 17.9467 89.4133 17.3067 89.52 16.56C89.6267 15.7867 89.7067 15.1333 89.76 14.6H92.12ZM89.84 22.72C89.76 23.84 89.64 25 89.48 26.2C89.3467 27.4 89.1733 28.5867 88.96 29.76C88.7467 30.9333 88.5067 32.08 88.24 33.2C88 34.2933 87.7467 35.32 87.48 36.28H81.88C82.1733 35.24 82.4533 34.1333 82.72 32.96C83.0133 31.7867 83.2667 30.6133 83.48 29.44C83.72 28.24 83.92 27.0667 84.08 25.92C84.2667 24.7733 84.4 23.7067 84.48 22.72H89.84ZM114.84 10.8C114.787 10.64 114.733 10.4533 114.68 10.24C114.627 10 114.573 9.78667 114.52 9.6L113.28 10.8H114.84ZM104.2 15.76C104.2 15.7333 104.173 15.6933 104.12 15.64C104.093 15.5867 104.053 15.56 104 15.56H102.8C102.64 15.56 102.56 15.64 102.56 15.8V16.8C102.56 16.8533 102.587 16.92 102.64 17C102.693 17.08 102.76 17.12 102.84 17.12H103.92C104.107 17.12 104.2 17.0533 104.2 16.92V15.76ZM95.76 10.8C95.7067 10.64 95.6533 10.4267 95.6 10.16C95.5467 9.89333 95.5067 9.65333 95.48 9.44L94.08 10.8H95.76ZM151 36.32C148.92 34.1067 147.133 31.7733 145.64 29.32C144.147 26.8667 142.787 24.36 141.56 21.8C140.467 24.4667 139.107 27.0267 137.48 29.48C135.853 31.9067 133.92 34.1867 131.68 36.32H123.08C125.187 34.56 127.187 32.5867 129.08 30.4C130.973 28.2133 132.587 25.8533 133.92 23.32C134.773 21.72 135.467 20.08 136 18.4C136.56 16.72 136.933 15 137.12 13.24H123.6V9.44H137.48C137.64 8.05333 137.773 6.61333 137.88 5.12C137.987 3.62666 138.053 2.2 138.08 0.839998H144.28C144.227 2.25333 144.173 3.69333 144.12 5.16C144.093 6.6 144.013 8.02666 143.88 9.44H158.64V13.24H143.52C143.467 13.72 143.387 14.2933 143.28 14.96C143.2 15.6267 143.107 16.2 143 16.68H145.84C146.72 18.3867 147.613 20.1067 148.52 21.84C149.453 23.5733 150.453 25.28 151.52 26.96C152.587 28.6133 153.747 30.24 155 31.84C156.253 33.4133 157.627 34.9067 159.12 36.32H151ZM187 12.52C187 13.24 186.76 13.84 186.28 14.32C185.8 14.8533 185.147 15.12 184.32 15.12H170.16C169.413 15.12 168.813 14.8933 168.36 14.44C167.827 13.9067 167.56 13.2133 167.56 12.36V8.8C167.56 7.97333 167.84 7.30667 168.4 6.8C168.933 6.34667 169.56 6.12 170.28 6.12H184.4C185.12 6.12 185.747 6.38667 186.28 6.92C186.76 7.42666 187 8.06667 187 8.84V12.52ZM196.72 20.16V31.52C196.72 32.88 196.32 34 195.52 34.88C195.147 35.3067 194.693 35.64 194.16 35.88C193.627 36.12 193.027 36.24 192.36 36.24H177.52L176.32 32.64H189.88C190.493 32.64 190.8 32.3467 190.8 31.76V20.16H164.44V16.76H190.8V4.56H164.72V1.04H199.52V4.56H196.72V16.76H199.8V20.16H196.72ZM187.08 28.36C187.08 29.1867 186.813 29.84 186.28 30.32C185.773 30.8 185.093 31.04 184.24 31.04H170.72C169.787 31.04 169.053 30.84 168.52 30.44C167.853 29.9333 167.52 29.16 167.52 28.12V24.44C167.52 23.9867 167.587 23.6133 167.72 23.32C167.88 23.0267 168.08 22.7733 168.32 22.56C168.613 22.32 168.933 22.16 169.28 22.08C169.653 21.9733 170.067 21.92 170.52 21.92H184.04C185.053 21.92 185.813 22.2 186.32 22.76C186.827 23.2667 187.08 24.0267 187.08 25.04V28.36ZM181.6 10.08C181.6 9.89333 181.52 9.73333 181.36 9.6C181.227 9.44 181.093 9.36 180.96 9.36H173.88C173.72 9.36 173.56 9.41333 173.4 9.52C173.267 9.62666 173.2 9.74667 173.2 9.88V11.28C173.2 11.4667 173.253 11.6133 173.36 11.72C173.493 11.8267 173.627 11.88 173.76 11.88H181C181.4 11.88 181.6 11.6533 181.6 11.2V10.08ZM181.6 25.72C181.6 25.4 181.427 25.24 181.08 25.24H174C173.867 25.24 173.733 25.2933 173.6 25.4C173.493 25.48 173.44 25.5867 173.44 25.72V27.32C173.44 27.4533 173.493 27.5733 173.6 27.68C173.733 27.76 173.867 27.8 174 27.8H181C181.16 27.8 181.293 27.7333 181.4 27.6C181.533 27.44 181.6 27.28 181.6 27.12V25.72ZM233 36.32C230.92 34.1067 229.133 31.7733 227.64 29.32C226.147 26.8667 224.787 24.36 223.56 21.8C222.467 24.4667 221.107 27.0267 219.48 29.48C217.853 31.9067 215.92 34.1867 213.68 36.32H205.08C207.187 34.56 209.187 32.5867 211.08 30.4C212.973 28.2133 214.587 25.8533 215.92 23.32C216.773 21.72 217.467 20.08 218 18.4C218.56 16.72 218.933 15 219.12 13.24H205.6V9.44H219.48C219.64 8.05333 219.773 6.61333 219.88 5.12C219.987 3.62666 220.053 2.2 220.08 0.839998H226.28C226.227 2.25333 226.173 3.69333 226.12 5.16C226.093 6.6 226.013 8.02666 225.88 9.44H240.64V13.24H225.52C225.467 13.72 225.387 14.2933 225.28 14.96C225.2 15.6267 225.107 16.2 225 16.68H227.84C228.72 18.3867 229.613 20.1067 230.52 21.84C231.453 23.5733 232.453 25.28 233.52 26.96C234.587 28.6133 235.747 30.24 237 31.84C238.253 33.4133 239.627 34.9067 241.12 36.32H233ZM55.06 75C55.06 75.3733 54.9533 75.72 54.74 76.04C54.5533 76.36 54.3133 76.6533 54.02 76.92C53.6467 77.24 53.2467 77.4933 52.82 77.68C52.3933 77.8667 51.9667 77.96 51.54 77.96H41.74V86.24H35.58V77.96H25.82C25.2067 77.96 24.6467 77.84 24.14 77.6C23.66 77.3333 23.26 76.9733 22.94 76.52C22.6733 76.1467 22.46 75.7333 22.3 75.28C22.1667 74.8267 22.1 74.36 22.1 73.88V59.4C22.1 59.08 22.2067 58.7333 22.42 58.36C22.6333 57.96 22.9267 57.6133 23.3 57.32C23.5933 57.0533 23.9133 56.84 24.26 56.68C24.6333 56.52 25.0067 56.44 25.38 56.44H35.58V50.8H41.74V56.44H51.9C52.7 56.44 53.42 56.7867 54.06 57.48C54.3533 57.8 54.5933 58.16 54.78 58.56C54.9667 58.96 55.06 59.3733 55.06 59.8V75ZM48.94 61.24C48.94 60.92 48.86 60.6667 48.7 60.48C48.5667 60.2933 48.3933 60.2 48.18 60.2H41.74V74.2H48.02C48.26 74.2 48.4733 74.12 48.66 73.96C48.8467 73.8 48.94 73.6133 48.94 73.4V61.24ZM35.58 60.2H29.1C28.54 60.2 28.26 60.5067 28.26 61.12V73.2C28.26 73.44 28.34 73.6667 28.5 73.88C28.6867 74.0933 28.9267 74.2 29.22 74.2H35.58V60.2ZM91.86 80.6C91.1133 78.84 90.4467 76.9733 89.86 75C89.2733 73.0267 88.7533 71.0267 88.3 69C87.8733 66.9467 87.4867 64.8933 87.14 62.84C86.82 60.76 86.5267 58.7467 86.26 56.8H92.26C92.5267 58.6933 92.8467 60.6667 93.22 62.72C93.5933 64.7733 94.0333 66.84 94.54 68.92C95.0467 70.9733 95.62 73 96.26 75C96.9 76.9733 97.62 78.84 98.42 80.6H91.86ZM82.86 82.76C82.86 83.2133 82.7533 83.64 82.54 84.04C82.3267 84.4667 82.06 84.84 81.74 85.16C81.42 85.48 81.06 85.7333 80.66 85.92C80.2867 86.1067 79.9267 86.2 79.58 86.2H69.9L68.74 82.36H75.94C76.1 82.36 76.2467 82.2933 76.38 82.16C76.54 82.0267 76.62 81.8933 76.62 81.76V51.04H82.86V82.76ZM72.98 56.8C72.4733 60.88 71.78 64.92 70.9 68.92C70.0467 72.92 68.8333 76.8133 67.26 80.6H60.74C61.4867 78.9467 62.1667 77.16 62.78 75.24C63.42 73.32 63.9933 71.3333 64.5 69.28C65.0333 67.2267 65.5 65.1467 65.9 63.04C66.3267 60.9067 66.7133 58.8267 67.06 56.8H72.98ZM131.46 65.84C130.26 64.24 129.14 62.6267 128.1 61C127.087 59.3467 126.127 57.6533 125.22 55.92C125.087 55.7067 124.9 55.5333 124.66 55.4C124.447 55.24 124.233 55.16 124.02 55.16H116.82C116.607 55.16 116.407 55.2533 116.22 55.44C116.033 55.6 115.9 55.76 115.82 55.92C114.887 57.68 113.913 59.3867 112.9 61.04C111.913 62.6933 110.767 64.2933 109.46 65.84H102.1C103.78 63.92 105.3 61.8933 106.66 59.76C108.047 57.6 109.38 55.4533 110.66 53.32C111.007 52.7333 111.527 52.2667 112.22 51.92C112.86 51.6 113.54 51.44 114.26 51.44H126.98C127.78 51.44 128.513 51.6667 129.18 52.12C129.713 52.52 130.113 52.9467 130.38 53.4C131.393 55.1867 132.54 57.08 133.82 59.08C135.127 61.08 136.807 63.3333 138.86 65.84H131.46ZM103.3 85.84V82.12H107.18V67.96H113.22V82.12H117.86V61.16H123.98V69.68H135.3V73.36H123.98V82.12H138.06V85.84H103.3ZM177.78 52.12C177.593 52.8933 177.367 53.68 177.1 54.48C176.833 55.28 176.553 56.0533 176.26 56.8H170.42C170.793 56.08 171.127 55.32 171.42 54.52C171.713 53.72 171.967 52.92 172.18 52.12H177.78ZM144.22 61.04V57.72H154.38V51H160.14V57.72H163.26V51H169.02V57.72H179.06V61.04H144.22ZM147.1 56.8C146.78 56.0267 146.487 55.2667 146.22 54.52C145.98 53.7467 145.753 52.9467 145.54 52.12H151.18C151.447 52.92 151.727 53.7067 152.02 54.48C152.313 55.2533 152.647 56.0267 153.02 56.8H147.1ZM172.46 85.6C171.527 84.7467 170.62 83.8267 169.74 82.84C168.86 81.8267 168.073 80.8267 167.38 79.84H174.38C175.207 80.88 176.087 81.8933 177.02 82.88C177.953 83.8667 178.953 84.7733 180.02 85.6H172.46ZM164.78 78.6V86.16H158.74V78.6H144.3V75.32H158.74V73.24H146.26V70.24H158.74V68.2H145.1V64.88H152.94C152.407 64.56 151.86 64.1467 151.3 63.64C150.74 63.1333 150.273 62.64 149.9 62.16H156.46C156.887 62.6667 157.393 63.16 157.98 63.64C158.567 64.12 159.127 64.5333 159.66 64.88H164.14C164.567 64.5867 165.087 64.1867 165.7 63.68C166.313 63.1467 166.793 62.64 167.14 62.16H173.58C173.207 62.6667 172.727 63.16 172.14 63.64C171.553 64.0933 170.993 64.5067 170.46 64.88H178.3V68.2H164.78V70.24H177.26V73.28H164.78V75.32H179.18V78.6H164.78ZM156.02 79.84C155.3 80.8533 154.5 81.8533 153.62 82.84C152.767 83.8267 151.86 84.7467 150.9 85.6H143.58C144.54 84.7467 145.5 83.8267 146.46 82.84C147.447 81.8533 148.367 80.8533 149.22 79.84H156.02ZM214.94 86.2C214.727 85.9867 214.5 85.6933 214.26 85.32C214.047 84.9733 213.833 84.6267 213.62 84.28C213.407 84.6533 213.207 84.9867 213.02 85.28C212.833 85.6 212.633 85.9067 212.42 86.2H201.54V54.56C201.54 53.5733 201.873 52.7867 202.54 52.2C203.18 51.56 204.033 51.24 205.1 51.24H215.78C217.06 51.24 218.02 51.6 218.66 52.32C219.22 52.96 219.5 53.8267 219.5 54.92V60C219.5 60.9333 219.233 61.7067 218.7 62.32C218.407 62.64 218.06 62.8933 217.66 63.08C217.26 63.2667 216.833 63.36 216.38 63.36H210.5L209.62 59.8H213.22C213.433 59.8 213.62 59.7333 213.78 59.6C213.94 59.44 214.02 59.24 214.02 59V55.52C214.02 55.3067 213.94 55.1333 213.78 55C213.647 54.8667 213.473 54.8 213.26 54.8H207.78C207.567 54.8 207.393 54.8667 207.26 55C207.127 55.1333 207.06 55.3067 207.06 55.52V65.52H216.38C217.127 65.52 217.74 65.64 218.22 65.88C218.727 66.12 219.127 66.4533 219.42 66.88C219.927 67.7067 220.047 68.6933 219.78 69.84C219.38 71.5467 218.86 73.2 218.22 74.8C217.58 76.4 216.913 78.0133 216.22 79.64C216.833 80.5733 217.567 81.6267 218.42 82.8C219.3 83.9467 220.233 85.08 221.22 86.2H214.94ZM199.3 83.16C199.3 83.6133 199.22 84.0133 199.06 84.36C198.927 84.7333 198.74 85.0533 198.5 85.32C197.94 85.88 197.233 86.16 196.38 86.16H192.58L191.58 82.6H193.46C193.62 82.6 193.767 82.5467 193.9 82.44C194.033 82.3067 194.1 82.1333 194.1 81.92V73.24H191.66C191.607 75.3467 191.5 77.5067 191.34 79.72C191.18 81.9333 190.927 84.08 190.58 86.16H185.18C185.393 85.1733 185.567 84.2267 185.7 83.32C185.833 82.3867 185.94 81.4533 186.02 80.52C186.1 79.56 186.153 78.5867 186.18 77.6C186.233 76.6133 186.26 75.56 186.26 74.44V54.12C186.26 53.2933 186.58 52.6 187.22 52.04C187.487 51.8 187.793 51.6133 188.14 51.48C188.487 51.32 188.847 51.24 189.22 51.24H195.98C196.913 51.24 197.7 51.52 198.34 52.08C198.98 52.64 199.3 53.3467 199.3 54.2V83.16ZM214.34 69.8C214.393 69.64 214.367 69.4933 214.26 69.36C214.18 69.2 214.047 69.12 213.86 69.12H207.06V71.08H211.38C211.593 71.6667 211.82 72.2667 212.06 72.88C212.327 73.4667 212.607 74.0267 212.9 74.56C213.193 73.7867 213.473 73.0133 213.74 72.24C214.007 71.4667 214.207 70.6533 214.34 69.8ZM194.1 55.6C194.1 55.3333 194.02 55.1333 193.86 55C193.7 54.8667 193.527 54.8 193.34 54.8H192.14C191.98 54.8 191.847 54.88 191.74 55.04C191.633 55.1733 191.58 55.3467 191.58 55.56V60.64H194.1V55.6ZM210.54 80.04C209.927 78.92 209.327 77.7867 208.74 76.64C208.153 75.4933 207.593 74.3333 207.06 73.16V85.76C207.7 84.88 208.3 83.96 208.86 83C209.447 82.0133 210.007 81.0267 210.54 80.04ZM194.1 64.08H191.58V69.68H194.1V64.08ZM255.06 70.2C254.527 69.8267 253.967 69.4133 253.38 68.96C252.793 68.5067 252.233 68.0933 251.7 67.72C251.38 68.0133 250.953 68.3867 250.42 68.84C249.887 69.2933 249.42 69.6933 249.02 70.04H252.62C252.62 70.3867 252.607 70.8 252.58 71.28C252.553 71.76 252.527 72.2 252.5 72.6H257.22C258.287 72.6 259.153 72.9333 259.82 73.6C260.38 74.2133 260.66 74.9733 260.66 75.88V83C260.66 83.88 260.367 84.5867 259.78 85.12C259.06 85.7867 258.18 86.12 257.14 86.12H251.5L250.5 82.52H254.34C254.553 82.52 254.727 82.4667 254.86 82.36C254.993 82.2533 255.06 82.0933 255.06 81.88V76.92C255.06 76.7067 254.98 76.5067 254.82 76.32C254.66 76.1333 254.447 76.04 254.18 76.04H252.18C252.073 76.8667 251.847 77.7467 251.5 78.68C251.18 79.5867 250.793 80.4933 250.34 81.4C249.887 82.28 249.38 83.1333 248.82 83.96C248.26 84.76 247.687 85.48 247.1 86.12H240.54C242.007 84.76 243.3 83.2 244.42 81.44C245.567 79.68 246.327 77.88 246.7 76.04H244.06V72.6H247.02C247.073 72.2267 247.1 71.84 247.1 71.44C247.1 71.04 247.1 70.6533 247.1 70.28H242.82V78.16H239.06V68.52C239.06 68.3333 238.98 68.1733 238.82 68.04C238.687 67.9067 238.54 67.84 238.38 67.84H237.78V82.72C237.78 83.84 237.42 84.6933 236.7 85.28C236.353 85.5733 235.94 85.7867 235.46 85.92C235.007 86.0533 234.513 86.12 233.98 86.12L227.94 86.16L226.82 82.52H231.9C232.38 82.52 232.633 82.2933 232.66 81.84V67.84H226.02V64.28H231.66C230.94 63.0533 230.247 61.8133 229.58 60.56C228.94 59.28 228.353 57.9733 227.82 56.64H233.5C233.633 56.96 233.767 57.28 233.9 57.6C234.06 57.92 234.22 58.2267 234.38 58.52C234.807 57.9867 235.207 57.4 235.58 56.76C235.98 56.0933 236.353 55.4533 236.7 54.84H227.18V51.28H239.46C240.1 51.28 240.647 51.4 241.1 51.64C241.553 51.88 241.9 52.2 242.14 52.6C242.38 53 242.487 53.4667 242.46 54C242.433 54.5067 242.247 55.04 241.9 55.6C241.553 56.16 241.153 56.7733 240.7 57.44C240.273 58.08 239.82 58.7333 239.34 59.4C238.887 60.0667 238.433 60.7067 237.98 61.32C237.527 61.9067 237.113 62.4267 236.74 62.88C236.9 63.12 237.06 63.36 237.22 63.6C237.38 63.84 237.54 64.0667 237.7 64.28H239.78C240.74 64.28 241.487 64.5733 242.02 65.16C242.553 65.7467 242.82 66.4933 242.82 67.4V68.64C243.78 67.9467 244.687 67.2533 245.54 66.56C246.42 65.84 247.26 65.08 248.06 64.28C247.5 63.6933 246.9 63.08 246.26 62.44C245.62 61.7733 245.007 61.0933 244.42 60.4H241.5C242.433 58.9067 243.247 57.3733 243.94 55.8C244.633 54.2 245.26 52.56 245.82 50.88H251.34C251.233 51.3333 251.1 51.8133 250.94 52.32C250.807 52.8267 250.647 53.3333 250.46 53.84H260.98V57.32H258.9C258.687 58.4933 258.193 59.6933 257.42 60.92C256.647 62.1467 255.753 63.28 254.74 64.32C255.807 65.28 257.047 66.28 258.46 67.32C259.873 68.36 261.38 69.32 262.98 70.2H255.06ZM231.74 69.4C231.66 70.4667 231.527 71.5333 231.34 72.6C231.18 73.6667 230.967 74.7067 230.7 75.72C230.433 76.7067 230.153 77.6533 229.86 78.56C229.567 79.4667 229.26 80.3067 228.94 81.08H224.58C225.353 79.1867 226.007 77.24 226.54 75.24C227.073 73.24 227.433 71.2933 227.62 69.4H231.74ZM248.98 57.32C248.847 57.6133 248.673 57.9467 248.46 58.32C248.273 58.6933 248.113 59 247.98 59.24H249.66C249.953 59.56 250.247 59.92 250.54 60.32C250.86 60.72 251.113 61.04 251.3 61.28C251.807 60.72 252.233 60.12 252.58 59.48C252.953 58.84 253.167 58.12 253.22 57.32H248.98ZM30.4 136.16C30.0267 135.653 29.6667 135.133 29.32 134.6C29 134.093 28.68 133.573 28.36 133.04C28.0667 133.573 27.76 134.107 27.44 134.64C27.1467 135.173 26.8133 135.68 26.44 136.16H20.8C21.68 134.72 22.5333 133.293 23.36 131.88C24.2133 130.467 24.96 128.987 25.6 127.44C24.8267 125.68 24.1467 123.88 23.56 122.04C23 120.173 22.4667 118.293 21.96 116.4H26.92C27.08 117.013 27.2533 117.613 27.44 118.2C27.6267 118.76 27.8267 119.333 28.04 119.92C28.3867 118.427 28.6667 116.907 28.88 115.36C29.12 113.813 29.3067 112.253 29.44 110.68H28.04C27.8533 111.373 27.6667 112.067 27.48 112.76C27.32 113.453 27.1333 114.147 26.92 114.84H21.76C22.3733 112.573 22.9067 110.28 23.36 107.96C23.84 105.64 24.2133 103.267 24.48 100.84H29.68C29.5733 101.853 29.44 102.867 29.28 103.88C29.1467 104.867 28.9867 105.867 28.8 106.88H35.72V110.68H34.44C34.1467 113.587 33.76 116.44 33.28 119.24C32.8 122.04 32.0667 124.747 31.08 127.36C31.8267 128.88 32.6 130.373 33.4 131.84C34.2267 133.307 35.1067 134.747 36.04 136.16H30.4ZM18.16 111.56V117.48H19.08C19.4533 117.48 19.8 117.587 20.12 117.8C20.44 117.987 20.7333 118.227 21 118.52C21.48 119.08 21.72 119.693 21.72 120.36V132.08C21.72 132.48 21.64 132.867 21.48 133.24C21.3467 133.613 21.1333 133.933 20.84 134.2C20.3067 134.68 19.6667 134.92 18.92 134.92H12.92C11.6667 134.92 10.7467 134.547 10.16 133.8C9.73333 133.267 9.52 132.467 9.52 131.4V120.04C9.52 119.72 9.61333 119.4 9.8 119.08C9.98667 118.76 10.2267 118.467 10.52 118.2C10.76 117.987 11.0133 117.813 11.28 117.68C11.5733 117.547 11.8533 117.48 12.12 117.48H12.76V111.56H8.92V107.84H12.76V100.84H18.16V107.84H22.04V111.56H18.16ZM10.2 100.84C9.74667 103.213 9.18667 105.547 8.52 107.84C7.85333 110.133 7.09333 112.4 6.24 114.64H7.76V136.2H2.08V116H2.98023e-08C1.01333 113.573 1.86667 111.093 2.56 108.56C3.28 106.027 3.88 103.453 4.36 100.84H10.2ZM17 121.68C17 121.547 16.9333 121.427 16.8 121.32C16.6667 121.213 16.5333 121.16 16.4 121.16H15.08C14.9467 121.16 14.8 121.213 14.64 121.32C14.5067 121.427 14.44 121.547 14.44 121.68V130.68C14.44 130.813 14.48 130.947 14.56 131.08C14.6667 131.213 14.7867 131.28 14.92 131.28H16.44C16.6 131.28 16.7333 131.213 16.84 131.08C16.9467 130.947 17 130.813 17 130.68V121.68ZM71.32 121.36C70.7867 119.76 70.3067 118.16 69.88 116.56C69.4533 114.96 69.0667 113.307 68.72 111.6H74.44C74.8133 113.28 75.2267 114.933 75.68 116.56C76.1333 118.16 76.6267 119.76 77.16 121.36H71.32ZM70.64 110.36V107.84C70.64 107.6 70.5467 107.4 70.36 107.24C70.2 107.053 69.9733 106.96 69.68 106.96H67.4V120.16C67.4 120.533 67.32 120.907 67.16 121.28C67 121.627 66.7867 121.933 66.52 122.2C66.2267 122.467 65.9067 122.68 65.56 122.84C65.2133 123 64.8533 123.08 64.48 123.08H59.68L58.64 119.4H61.24C61.3733 119.4 61.48 119.333 61.56 119.2C61.6667 119.067 61.72 118.933 61.72 118.8V106.96H59.64C59.5333 107.173 59.4 107.44 59.24 107.76C59.1067 108.053 58.9467 108.36 58.76 108.68C58.6 109 58.44 109.307 58.28 109.6C58.12 109.867 57.9733 110.107 57.84 110.32H51.32C52.28 108.8 53.1333 107.24 53.88 105.64C54.6533 104.04 55.3867 102.427 56.08 100.8H62.32C62.0267 101.68 61.6933 102.533 61.32 103.36H73.04C74.1067 103.36 74.9333 103.733 75.52 104.48C76.0533 105.093 76.32 105.893 76.32 106.88V110.36H70.64ZM71.32 135.48C70.7067 133.96 70.16 132.44 69.68 130.92C69.2 129.4 68.7333 127.84 68.28 126.24H74.2C74.6533 127.76 75.1467 129.307 75.68 130.88C76.2133 132.427 76.7867 133.96 77.4 135.48H71.32ZM60.32 111.6C59.44 114.907 58.32 118.133 56.96 121.28H50.84C51.5867 119.76 52.24 118.2 52.8 116.6C53.3867 115 53.9333 113.333 54.44 111.6H60.32ZM53.48 100.8C52.76 102.56 51.9733 104.293 51.12 106C50.2667 107.707 49.36 109.427 48.4 111.16H49.72V123.08H44.08V112.12H41.16C42.3067 110.28 43.3733 108.413 44.36 106.52C45.3467 104.627 46.2667 102.72 47.12 100.8H53.48ZM60.4 130.48C60.0267 129.467 59.6667 128.467 59.32 127.48C59 126.493 58.6933 125.48 58.4 124.44H64.28C64.5733 125.48 64.88 126.507 65.2 127.52C65.52 128.507 65.8933 129.493 66.32 130.48H60.4ZM68.36 136H54.68C53.6133 136 52.72 135.667 52 135C51.3333 134.387 51 133.56 51 132.52V124.72H56.84V131.52C56.84 131.653 56.92 131.827 57.08 132.04C57.24 132.227 57.4 132.32 57.56 132.32H69.16L68.36 136ZM49.96 126.12C49.56 127.8 49.12 129.387 48.64 130.88C48.16 132.373 47.6533 133.88 47.12 135.4H41C41.6667 133.933 42.2533 132.44 42.76 130.92C43.2667 129.4 43.7467 127.8 44.2 126.12H49.96ZM104.32 127.84C103.387 125.92 102.573 123.96 101.88 121.96C101.187 119.96 100.533 117.933 99.92 115.88H105.52C106.24 117.933 106.987 119.96 107.76 121.96C108.56 123.96 109.48 125.92 110.52 127.84H104.32ZM117.4 132.68C117.4 133.187 117.293 133.653 117.08 134.08C116.893 134.507 116.627 134.88 116.28 135.2C115.933 135.493 115.533 135.733 115.08 135.92C114.653 136.107 114.2 136.2 113.72 136.2H106.6L105.2 132.48H111C111.24 132.48 111.453 132.387 111.64 132.2C111.827 131.987 111.92 131.773 111.92 131.56V110.28C111.92 110.067 111.8 109.867 111.56 109.68C111.347 109.467 111.133 109.36 110.92 109.36H105.76C105.573 110.213 105.333 111.093 105.04 112C104.747 112.88 104.413 113.707 104.04 114.48H98.24V132C98.24 133.067 97.9733 133.867 97.44 134.4C96.8533 134.987 96.0267 135.28 94.96 135.28H86.12C85.1333 135.28 84.3333 134.947 83.72 134.28C83.4267 133.987 83.2 133.653 83.04 133.28C82.88 132.88 82.8 132.453 82.8 132V108.64C82.8 108.133 82.88 107.707 83.04 107.36C83.2 106.987 83.4133 106.667 83.68 106.4C84.0533 106.053 84.4933 105.813 85 105.68C85.5067 105.52 86.0267 105.467 86.56 105.52C86.8267 104.747 87.0667 103.973 87.28 103.2C87.4933 102.4 87.7067 101.587 87.92 100.76H93.92C93.7067 101.56 93.4933 102.36 93.28 103.16C93.0933 103.96 92.88 104.747 92.64 105.52H94.72C95.84 105.52 96.7333 105.827 97.4 106.44C97.96 107.053 98.24 107.853 98.24 108.84V113.44C99.04 111.413 99.7467 109.333 100.36 107.2C100.973 105.067 101.507 102.92 101.96 100.76H107.76C107.627 101.427 107.467 102.213 107.28 103.12C107.12 104 106.933 104.853 106.72 105.68H113.68C114.827 105.68 115.76 106.067 116.48 106.84C116.773 107.133 117 107.493 117.16 107.92C117.32 108.32 117.4 108.773 117.4 109.28V132.68ZM93 110.04C93 109.853 92.92 109.693 92.76 109.56C92.6 109.427 92.4267 109.36 92.24 109.36H89.04C88.5067 109.36 88.24 109.613 88.24 110.12V118.16H93V110.04ZM93 121.72H88.24V130.68C88.24 130.867 88.3067 131.053 88.44 131.24C88.6 131.427 88.7867 131.52 89 131.52H92.28C92.4933 131.52 92.6667 131.44 92.8 131.28C92.9333 131.12 93 130.933 93 130.72V121.72ZM158.24 125.36C158.24 126.693 157.88 127.707 157.16 128.4C156.52 129.04 155.587 129.36 154.36 129.36H150.4V136.2H144.92V129.36H141.44C140.08 129.36 139.027 129.053 138.28 128.44C137.533 127.8 137.16 126.787 137.16 125.4V110.08C137.16 108.907 137.573 107.987 138.4 107.32C139.093 106.76 139.933 106.48 140.92 106.48H144.92V100.84H150.4V106.48H153.92C155.36 106.48 156.453 106.853 157.2 107.6C157.893 108.293 158.24 109.24 158.24 110.44V125.36ZM133.48 125.44C133.373 124.853 133.267 124.2 133.16 123.48C133.053 122.733 132.96 121.973 132.88 121.2C132.8 120.427 132.733 119.667 132.68 118.92C132.627 118.147 132.587 117.453 132.56 116.84C132.507 117 132.387 117.267 132.2 117.64C132.013 117.987 131.867 118.24 131.76 118.4V136.2H126V123.2H122.52C124.12 120.907 125.56 118.6 126.84 116.28C128.147 113.96 129.227 111.64 130.08 109.32C130.107 109.24 130.08 109.16 130 109.08C129.92 108.973 129.84 108.92 129.76 108.92H123.84V105.2H126.76C126.573 104.533 126.387 103.813 126.2 103.04C126.04 102.267 125.893 101.533 125.76 100.84H131.64C131.747 101.587 131.88 102.333 132.04 103.08C132.227 103.8 132.427 104.52 132.64 105.24C133.947 105.24 134.88 105.56 135.44 106.2C136.053 106.84 136.133 107.867 135.68 109.28C135.28 110.56 134.827 111.827 134.32 113.08C133.813 114.307 133.253 115.52 132.64 116.72H135.36C135.413 117.387 135.467 118.107 135.52 118.88C135.573 119.627 135.64 120.387 135.72 121.16C135.8 121.933 135.893 122.693 136 123.44C136.107 124.16 136.227 124.827 136.36 125.44H133.48ZM153 111.24C153 111.027 152.893 110.8 152.68 110.56C152.493 110.32 152.28 110.2 152.04 110.2H150.4V116.32H153V111.24ZM144.92 110.2H143.08C142.893 110.2 142.72 110.293 142.56 110.48C142.427 110.667 142.36 110.84 142.36 111V116.32H144.92V110.2ZM153 119.96H150.4V125.72H152.28C152.44 125.72 152.6 125.64 152.76 125.48C152.92 125.32 153 125.133 153 124.92V119.96ZM144.92 119.96H142.36V124.72C142.36 124.987 142.44 125.227 142.6 125.44C142.787 125.627 142.973 125.72 143.16 125.72H144.92V119.96ZM181.68 105.72C181.307 104.947 180.947 104.16 180.6 103.36C180.253 102.533 179.933 101.693 179.64 100.84H185.32C185.613 101.693 185.947 102.547 186.32 103.4C186.693 104.227 187.093 105 187.52 105.72H181.68ZM200.08 114.08C199.76 115.493 199.387 116.893 198.96 118.28C198.533 119.667 198.027 121 197.44 122.28H192.92C193 123.96 193.027 125.573 193 127.12C193 128.667 192.973 130.28 192.92 131.96C192.84 133.187 192.44 134.173 191.72 134.92C190.92 135.773 189.853 136.2 188.52 136.2H185.08L184.2 132.52H186.24C186.533 132.52 186.787 132.44 187 132.28C187.213 132.093 187.333 131.853 187.36 131.56C187.52 129.933 187.613 128.28 187.64 126.6C187.667 124.893 187.627 123.213 187.52 121.56C187.467 120.707 187.253 119.8 186.88 118.84C186.507 117.853 186.027 117.013 185.44 116.32C185.227 116.56 185.013 116.787 184.8 117C184.587 117.187 184.347 117.387 184.08 117.6H176.76C178.04 116.56 179.253 115.453 180.4 114.28C181.573 113.107 182.693 111.92 183.76 110.72H177.96V107.12H189.4C189.987 106.107 190.52 105.08 191 104.04C191.48 103 191.947 101.947 192.4 100.88H198.56C198.107 101.947 197.627 103 197.12 104.04C196.613 105.08 196.08 106.107 195.52 107.12H199.76V110.72H190.28C190.067 111.04 189.813 111.387 189.52 111.76C189.253 112.107 189 112.413 188.76 112.68C189.987 113.8 190.893 115.053 191.48 116.44C192.067 117.827 192.493 119.28 192.76 120.8C193.213 119.707 193.627 118.613 194 117.52C194.373 116.427 194.733 115.28 195.08 114.08H200.08ZM195.52 134.48C195.04 132.8 194.64 131.053 194.32 129.24C194 127.427 193.733 125.6 193.52 123.76H198.48C198.693 125.573 198.973 127.387 199.32 129.2C199.667 130.987 200.04 132.747 200.44 134.48H195.52ZM187.44 125.12C187.12 125.787 186.72 126.547 186.24 127.4C185.787 128.227 185.293 129.067 184.76 129.92C184.227 130.747 183.68 131.56 183.12 132.36C182.56 133.16 182.027 133.867 181.52 134.48L175.32 134.44C175.747 133.907 176.2 133.307 176.68 132.64C177.16 131.947 177.653 131.24 178.16 130.52C178.667 129.773 179.147 129.04 179.6 128.32C180.08 127.573 180.507 126.867 180.88 126.2H177.2C177.12 126.787 177.013 127.267 176.88 127.64C176.747 127.987 176.493 128.36 176.12 128.76C175.773 129.133 175.373 129.44 174.92 129.68C174.493 129.893 173.973 130 173.36 130H171L170.24 127.16V136.16H164.72V104.04C164.72 103.107 164.987 102.373 165.52 101.84C166.107 101.333 166.933 101.08 168 101.08H175C176.013 101.08 176.747 101.387 177.2 102C177.653 102.613 177.8 103.413 177.64 104.4C177.373 106.027 177.053 107.64 176.68 109.24C176.307 110.813 175.907 112.347 175.48 113.84C175.427 114 175.4 114.227 175.4 114.52C175.427 114.813 175.467 115.04 175.52 115.2C175.84 116.027 176.107 116.787 176.32 117.48C176.56 118.173 176.76 118.867 176.92 119.56C177.08 120.227 177.2 120.933 177.28 121.68C177.387 122.4 177.467 123.2 177.52 124.08C178.133 123.227 178.68 122.36 179.16 121.48C179.667 120.6 180.147 119.693 180.6 118.76L186.32 118.8C185.867 119.84 185.36 120.92 184.8 122.04C184.267 123.16 183.68 124.187 183.04 125.12H187.44ZM172.56 105.32C172.587 105.187 172.547 105.053 172.44 104.92C172.36 104.787 172.253 104.72 172.12 104.72H170.92C170.733 104.72 170.573 104.773 170.44 104.88C170.307 104.987 170.24 105.133 170.24 105.32V126.08H171.52C172 126.08 172.267 125.813 172.32 125.28C172.453 123.547 172.387 121.893 172.12 120.32C171.853 118.72 171.467 117.12 170.96 115.52C170.853 115.173 170.8 114.813 170.8 114.44C170.827 114.067 170.893 113.693 171 113.32C171.293 111.987 171.573 110.667 171.84 109.36C172.107 108.027 172.347 106.68 172.56 105.32ZM232.48 136.2C232.053 135.933 231.587 135.627 231.08 135.28C230.6 134.933 230.107 134.573 229.6 134.2C229.093 133.827 228.6 133.44 228.12 133.04C227.64 132.64 227.2 132.253 226.8 131.88C226.027 132.627 225.147 133.373 224.16 134.12C223.2 134.893 222.227 135.587 221.24 136.2H212.44C214.2 134.973 216.013 133.693 217.88 132.36C219.773 131.027 221.48 129.667 223 128.28C222.493 127.667 221.947 127 221.36 126.28C220.773 125.56 220.187 124.827 219.6 124.08C219.04 123.307 218.48 122.547 217.92 121.8C217.387 121.053 216.893 120.347 216.44 119.68C216.093 122.907 215.467 125.933 214.56 128.76C213.68 131.56 212.413 134.04 210.76 136.2H204.4C206 133.907 207.227 131.653 208.08 129.44C208.933 127.227 209.547 124.947 209.92 122.6C210.08 121.56 210.227 120.467 210.36 119.32C210.493 118.147 210.6 116.96 210.68 115.76C210.787 114.56 210.867 113.373 210.92 112.2C210.973 111 211 109.84 211 108.72H205.72V104.96H211V100.84H217.12V104.96H240.48V108.72H217.12C217.12 108.96 217.107 109.28 217.08 109.68C217.08 110.08 217.067 110.493 217.04 110.92C217.013 111.347 216.987 111.76 216.96 112.16C216.96 112.533 216.96 112.827 216.96 113.04H235.84C236.533 113.04 237.133 113.173 237.64 113.44C238.147 113.68 238.547 114 238.84 114.4C239.347 115.253 239.36 116.24 238.88 117.36C238.533 118.16 238.04 119.04 237.4 120C236.787 120.933 236.107 121.88 235.36 122.84C234.64 123.8 233.88 124.733 233.08 125.64C232.28 126.547 231.52 127.36 230.8 128.08C232.427 129.68 234.16 131.16 236 132.52C237.84 133.853 239.72 135.08 241.64 136.2H232.48ZM232.52 117.36C232.573 117.28 232.573 117.173 232.52 117.04C232.493 116.907 232.427 116.827 232.32 116.8H216.8C216.773 117.067 216.747 117.453 216.72 117.96C216.693 118.467 216.653 118.88 216.6 119.2H222.96C223.12 119.493 223.36 119.867 223.68 120.32C224 120.747 224.333 121.2 224.68 121.68C225.053 122.16 225.427 122.64 225.8 123.12C226.2 123.573 226.56 123.96 226.88 124.28C227.893 123.213 228.907 122.093 229.92 120.92C230.96 119.747 231.827 118.56 232.52 117.36ZM265.88 125.16H262.12L260.76 104.08H267.24L265.88 125.16ZM261.04 133.6V127.88H267.04V133.6H261.04Z" fill="url(#paint0_linear_89_311)"/>
<defs>
<linearGradient id="paint0_linear_89_311" x1="-28.6507" y1="-9" x2="310.345" y2="-9" gradientUnits="userSpaceOnUse">
<stop stop-color="#624BEE"/>
<stop offset="0.25331" stop-color="#A6469E"/>
<stop offset="0.49318" stop-color="#E0425A"/>
<stop offset="0.695051" stop-color="#F2522C"/>
<stop offset="0.791236" stop-color="#F95D16"/>
<stop offset="1" stop-color="#FF6700"/>
</linearGradient>
</defs>
</svg>
